NotoSerifSinhala-CondensedLight.ufo
<glyph name="exclam.sinh" format="2">
  <advance width="236"/>
  <unicode hex="0021"/>
  <outline>
    <contour>
      <point x="104" y="714" type="line"/>
      <point x="107" y="167" type="line"/>
      <point x="132" y="167" type="line"/>
      <point x="133" y="714" type="line"/>
    </contour>
    <contour>
      <point x="118" y="-5" type="curve" smooth="yes"/>
      <point x="134" y="-5"/>
      <point x="147" y="4"/>
      <point x="147" y="35" type="curve" smooth="yes"/>
      <point x="147" y="65"/>
      <point x="134" y="73"/>
      <point x="118" y="73" type="curve" smooth="yes"/>
      <point x="103" y="73"/>
      <point x="89" y="65"/>
      <point x="89" y="35" type="curve" smooth="yes"/>
      <point x="89" y="4"/>
      <point x="103" y="-5"/>
    </contour>
  </outline>
</glyph>
<glyph name="quotedbl.sinh" format="2">
  <advance width="290"/>
  <unicode hex="0022"/>
  <outline>
    <contour>
      <point x="184" y="799" type="line"/>
      <point x="194" y="584" type="line"/>
      <point x="216" y="584" type="line"/>
      <point x="224" y="799" type="line"/>
    </contour>
    <contour>
      <point x="66" y="799" type="line"/>
      <point x="76" y="584" type="line"/>
      <point x="98" y="584" type="line"/>
      <point x="106" y="799" type="line"/>
    </contour>
  </outline>
</glyph>
<glyph name="numbersign.sinh" format="2">
  <advance width="474"/>
  <unicode hex="0023"/>
  <outline>
    <contour>
      <point x="107" y="219" type="line"/>
      <point x="66" y="0" type="line"/>
      <point x="94" y="0" type="line"/>
      <point x="135" y="219" type="line"/>
      <point x="281" y="219" type="line"/>
      <point x="240" y="0" type="line"/>
      <point x="268" y="0" type="line"/>
      <point x="309" y="219" type="line"/>
      <point x="415" y="219" type="line"/>
      <point x="415" y="244" type="line"/>
      <point x="314" y="244" type="line"/>
      <point x="357" y="476" type="line"/>
      <point x="447" y="476" type="line"/>
      <point x="447" y="501" type="line"/>
      <point x="362" y="501" type="line"/>
      <point x="402" y="714" type="line"/>
      <point x="374" y="714" type="line"/>
      <point x="334" y="501" type="line"/>
      <point x="188" y="501" type="line"/>
      <point x="228" y="714" type="line"/>
      <point x="200" y="714" type="line"/>
      <point x="160" y="501" type="line"/>
      <point x="59" y="501" type="line"/>
      <point x="59" y="476" type="line"/>
      <point x="155" y="476" type="line"/>
      <point x="112" y="244" type="line"/>
      <point x="27" y="244" type="line"/>
      <point x="27" y="219" type="line"/>
    </contour>
    <contour>
      <point x="286" y="244" type="line"/>
      <point x="140" y="244" type="line"/>
      <point x="183" y="476" type="line"/>
      <point x="329" y="476" type="line"/>
    </contour>
  </outline>
</glyph>
<glyph name="percent.sinh" format="2">
  <advance width="681"/>
  <unicode hex="0025"/>
  <outline>
    <contour>
      <point x="470" y="714" type="line"/>
      <point x="178" y="0" type="line"/>
      <point x="206" y="0" type="line"/>
      <point x="498" y="714" type="line"/>
    </contour>
    <contour>
      <point x="159" y="280" type="curve" smooth="yes"/>
      <point x="237" y="280"/>
      <point x="273" y="353"/>
      <point x="273" y="503" type="curve" smooth="yes"/>
      <point x="273" y="649"/>
      <point x="238" y="724"/>
      <point x="160" y="724" type="curve" smooth="yes"/>
      <point x="82" y="724"/>
      <point x="47" y="647"/>
      <point x="47" y="503" type="curve" smooth="yes"/>
      <point x="47" y="354"/>
      <point x="83" y="280"/>
    </contour>
    <contour>
      <point x="159" y="305" type="curve" smooth="yes"/>
      <point x="95" y="305"/>
      <point x="74" y="376"/>
      <point x="74" y="503" type="curve" smooth="yes"/>
      <point x="74" y="629"/>
      <point x="95" y="699"/>
      <point x="159" y="699" type="curve" smooth="yes"/>
      <point x="226" y="699"/>
      <point x="246" y="629"/>
      <point x="246" y="503" type="curve" smooth="yes"/>
      <point x="246" y="376"/>
      <point x="226" y="305"/>
    </contour>
    <contour>
      <point x="520" y="-10" type="curve" smooth="yes"/>
      <point x="598" y="-10"/>
      <point x="634" y="58"/>
      <point x="634" y="213" type="curve" smooth="yes"/>
      <point x="634" y="359"/>
      <point x="599" y="434"/>
      <point x="521" y="434" type="curve" smooth="yes"/>
      <point x="443" y="434"/>
      <point x="408" y="357"/>
      <point x="408" y="213" type="curve" smooth="yes"/>
      <point x="408" y="64"/>
      <point x="444" y="-10"/>
    </contour>
    <contour>
      <point x="520" y="15" type="curve" smooth="yes"/>
      <point x="456" y="15"/>
      <point x="435" y="86"/>
      <point x="435" y="213" type="curve" smooth="yes"/>
      <point x="435" y="339"/>
      <point x="456" y="409"/>
      <point x="520" y="409" type="curve" smooth="yes"/>
      <point x="587" y="409"/>
      <point x="607" y="339"/>
      <point x="607" y="213" type="curve" smooth="yes"/>
      <point x="607" y="86"/>
      <point x="587" y="15"/>
    </contour>
  </outline>
</glyph>
<glyph name="quotesingle.sinh" format="2">
  <advance width="172"/>
  <unicode hex="0027"/>
  <outline>
    <contour>
      <point x="66" y="799" type="line"/>
      <point x="76" y="584" type="line"/>
      <point x="98" y="584" type="line"/>
      <point x="106" y="799" type="line"/>
    </contour>
  </outline>
</glyph>
<glyph name="parenleft.sinh" format="2">
  <advance width="310"/>
  <unicode hex="0028"/>
  <outline>
    <contour>
      <point x="280" y="-264" type="curve"/>
      <point x="280" y="-237" type="line"/>
      <point x="165" y="-162"/>
      <point x="82" y="8"/>
      <point x="82" y="270" type="curve" smooth="yes"/>
      <point x="82" y="532"/>
      <point x="165" y="702"/>
      <point x="280" y="777" type="curve"/>
      <point x="280" y="804" type="line"/>
      <point x="165" y="739"/>
      <point x="54" y="587"/>
      <point x="54" y="270" type="curve" smooth="yes"/>
      <point x="54" y="-47"/>
      <point x="165" y="-199"/>
    </contour>
  </outline>
</glyph>
<glyph name="parenright.sinh" format="2">
  <advance width="310"/>
  <unicode hex="0029"/>
  <outline>
    <contour>
      <point x="30" y="804" type="curve"/>
      <point x="30" y="777" type="line"/>
      <point x="145" y="702"/>
      <point x="228" y="532"/>
      <point x="228" y="270" type="curve" smooth="yes"/>
      <point x="228" y="8"/>
      <point x="145" y="-162"/>
      <point x="30" y="-237" type="curve"/>
      <point x="30" y="-264" type="line"/>
      <point x="145" y="-199"/>
      <point x="256" y="-47"/>
      <point x="256" y="270" type="curve" smooth="yes"/>
      <point x="256" y="587"/>
      <point x="145" y="739"/>
    </contour>
  </outline>
</glyph>
<glyph name="asterisk.sinh" format="2">
  <advance width="363"/>
  <unicode hex="002A"/>
  <outline>
    <contour>
      <point x="173" y="595" type="line"/>
      <point x="162" y="421" type="line"/>
      <point x="203" y="421" type="line"/>
      <point x="189" y="595" type="line"/>
      <point x="297" y="509" type="line"/>
      <point x="319" y="546" type="line"/>
      <point x="192" y="610" type="line"/>
      <point x="318" y="676" type="line"/>
      <point x="297" y="713" type="line"/>
      <point x="190" y="625" type="line"/>
      <point x="203" y="799" type="line"/>
      <point x="162" y="799" type="line"/>
      <point x="174" y="626" type="line"/>
      <point x="67" y="715" type="line"/>
      <point x="44" y="676" type="line"/>
      <point x="171" y="610" type="line"/>
      <point x="44" y="545" type="line"/>
      <point x="67" y="509" type="line"/>
    </contour>
  </outline>
</glyph>
<glyph name="plus.sinh" format="2">
  <advance width="425"/>
  <unicode hex="002B"/>
  <outline>
    <contour>
      <point x="199" y="343" type="line"/>
      <point x="199" y="143" type="line"/>
      <point x="227" y="143" type="line"/>
      <point x="227" y="343" type="line"/>
      <point x="381" y="343" type="line"/>
      <point x="381" y="370" type="line"/>
      <point x="227" y="370" type="line"/>
      <point x="227" y="572" type="line"/>
      <point x="199" y="572" type="line"/>
      <point x="199" y="370" type="line"/>
      <point x="44" y="370" type="line"/>
      <point x="44" y="343" type="line"/>
    </contour>
  </outline>
</glyph>
<glyph name="comma.sinh" format="2">
  <advance width="190"/>
  <unicode hex="002C"/>
  <outline>
    <contour>
      <point x="87" y="73" type="curve" smooth="yes"/>
      <point x="70" y="73"/>
      <point x="59" y="61"/>
      <point x="59" y="46" type="curve" smooth="yes"/>
      <point x="59" y="5"/>
      <point x="110" y="21"/>
      <point x="110" y="-38" type="curve" smooth="yes"/>
      <point x="110" y="-81"/>
      <point x="85" y="-114"/>
      <point x="37" y="-133" type="curve"/>
      <point x="37" y="-158" type="line"/>
      <point x="122" y="-124"/>
      <point x="138" y="-73"/>
      <point x="138" y="-19" type="curve" smooth="yes"/>
      <point x="138" y="44"/>
      <point x="113" y="73"/>
    </contour>
  </outline>
</glyph>
<glyph name="hyphen.sinh" format="2">
  <advance width="272"/>
  <unicode hex="002D"/>
  <outline>
    <contour>
      <point x="38" y="327" type="line"/>
      <point x="38" y="299" type="line"/>
      <point x="234" y="299" type="line"/>
      <point x="234" y="327" type="line"/>
    </contour>
  </outline>
</glyph>
<glyph name="period.sinh" format="2">
  <advance width="190"/>
  <unicode hex="002E"/>
  <outline>
    <contour>
      <point x="95" y="-5" type="curve" smooth="yes"/>
      <point x="111" y="-5"/>
      <point x="124" y="4"/>
      <point x="124" y="35" type="curve" smooth="yes"/>
      <point x="124" y="65"/>
      <point x="111" y="73"/>
      <point x="95" y="73" type="curve" smooth="yes"/>
      <point x="80" y="73"/>
      <point x="66" y="65"/>
      <point x="66" y="35" type="curve" smooth="yes"/>
      <point x="66" y="4"/>
      <point x="80" y="-5"/>
    </contour>
  </outline>
</glyph>
<glyph name="one.sinh" format="2">
  <advance width="425"/>
  <unicode hex="0031"/>
  <outline>
    <contour>
      <point x="104" y="22" type="line"/>
      <point x="104" y="0" type="line"/>
      <point x="341" y="0" type="line"/>
      <point x="341" y="22" type="line"/>
      <point x="296" y="22" type="line" smooth="yes"/>
      <point x="248" y="22"/>
      <point x="239" y="32"/>
      <point x="239" y="107" type="curve" smooth="yes"/>
      <point x="239" y="718" type="line"/>
      <point x="222" y="718" type="line"/>
      <point x="184" y="665" type="line" smooth="yes"/>
      <point x="144" y="609"/>
      <point x="111" y="597"/>
      <point x="81" y="587" type="curve"/>
      <point x="81" y="577"/>
      <point x="94" y="569"/>
      <point x="106" y="569" type="curve" smooth="yes"/>
      <point x="143" y="569"/>
      <point x="179" y="612"/>
      <point x="212" y="666" type="curve"/>
      <point x="212" y="107" type="line" smooth="yes"/>
      <point x="212" y="32"/>
      <point x="204" y="22"/>
      <point x="156" y="22" type="curve" smooth="yes"/>
    </contour>
  </outline>
</glyph>
<glyph name="two.sinh" format="2">
  <advance width="425"/>
  <unicode hex="0032"/>
  <outline>
    <contour>
      <point x="43" y="22" type="line"/>
      <point x="43" y="0" type="line"/>
      <point x="354" y="0" type="line"/>
      <point x="356" y="131" type="line"/>
      <point x="336" y="131" type="line"/>
      <point x="335" y="96" type="line" smooth="yes"/>
      <point x="334" y="45"/>
      <point x="328" y="25"/>
      <point x="273" y="25" type="curve" smooth="yes"/>
      <point x="75" y="25" type="line"/>
      <point x="235" y="282" type="line" smooth="yes"/>
      <point x="298" y="382"/>
      <point x="340" y="459"/>
      <point x="340" y="558" type="curve" smooth="yes"/>
      <point x="340" y="655"/>
      <point x="296" y="724"/>
      <point x="203" y="724" type="curve" smooth="yes"/>
      <point x="109" y="724"/>
      <point x="70" y="650"/>
      <point x="70" y="602" type="curve" smooth="yes"/>
      <point x="70" y="574"/>
      <point x="78" y="563"/>
      <point x="91" y="563" type="curve"/>
      <point x="91" y="639"/>
      <point x="123" y="699"/>
      <point x="203" y="699" type="curve" smooth="yes"/>
      <point x="287" y="699"/>
      <point x="312" y="631"/>
      <point x="312" y="553" type="curve" smooth="yes"/>
      <point x="312" y="469"/>
      <point x="276" y="398"/>
      <point x="203" y="279" type="curve" smooth="yes"/>
    </contour>
  </outline>
</glyph>
<glyph name="three.sinh" format="2">
  <advance width="425"/>
  <unicode hex="0033"/>
  <outline>
    <contour>
      <point x="186" y="-9" type="curve" smooth="yes"/>
      <point x="261" y="-9"/>
      <point x="353" y="43"/>
      <point x="353" y="190" type="curve" smooth="yes"/>
      <point x="353" y="331"/>
      <point x="280" y="372"/>
      <point x="216" y="376" type="curve"/>
      <point x="285" y="390"/>
      <point x="334" y="471"/>
      <point x="334" y="561" type="curve" smooth="yes"/>
      <point x="334" y="665"/>
      <point x="285" y="724"/>
      <point x="203" y="724" type="curve" smooth="yes"/>
      <point x="122" y="724"/>
      <point x="70" y="668"/>
      <point x="70" y="593" type="curve" smooth="yes"/>
      <point x="70" y="563"/>
      <point x="81" y="553"/>
      <point x="91" y="553" type="curve"/>
      <point x="91" y="639"/>
      <point x="119" y="699"/>
      <point x="203" y="699" type="curve" smooth="yes"/>
      <point x="272" y="699"/>
      <point x="306" y="649"/>
      <point x="306" y="560" type="curve" smooth="yes"/>
      <point x="306" y="451"/>
      <point x="245" y="387"/>
      <point x="171" y="387" type="curve" smooth="yes"/>
      <point x="153" y="387" type="line"/>
      <point x="153" y="362" type="line"/>
      <point x="173" y="362" type="line" smooth="yes"/>
      <point x="276" y="362"/>
      <point x="325" y="302"/>
      <point x="325" y="191" type="curve" smooth="yes"/>
      <point x="325" y="70"/>
      <point x="258" y="16"/>
      <point x="187" y="16" type="curve" smooth="yes"/>
      <point x="100" y="16"/>
      <point x="70" y="71"/>
      <point x="70" y="136" type="curve"/>
      <point x="55" y="136"/>
      <point x="49" y="119"/>
      <point x="49" y="98" type="curve" smooth="yes"/>
      <point x="49" y="42"/>
      <point x="95" y="-9"/>
    </contour>
  </outline>
</glyph>
<glyph name="four.sinh" format="2">
  <advance width="425"/>
  <unicode hex="0034"/>
  <outline>
    <contour>
      <point x="195" y="20" type="line"/>
      <point x="195" y="0" type="line"/>
      <point x="383" y="0" type="line"/>
      <point x="383" y="20" type="line"/>
      <point x="370" y="20" type="line" smooth="yes"/>
      <point x="316" y="20"/>
      <point x="308" y="29"/>
      <point x="308" y="101" type="curve" smooth="yes"/>
      <point x="308" y="209" type="line"/>
      <point x="417" y="209" type="line"/>
      <point x="417" y="233" type="line"/>
      <point x="308" y="233" type="line"/>
      <point x="308" y="714" type="line"/>
      <point x="280" y="714" type="line"/>
      <point x="19" y="226" type="line"/>
      <point x="19" y="209" type="line"/>
      <point x="281" y="209" type="line"/>
      <point x="281" y="101" type="line" smooth="yes"/>
      <point x="281" y="29"/>
      <point x="273" y="20"/>
      <point x="220" y="20" type="curve" smooth="yes"/>
    </contour>
    <contour>
      <point x="281" y="233" type="line"/>
      <point x="51" y="233" type="line"/>
      <point x="200" y="511" type="line" smooth="yes"/>
      <point x="222" y="553"/>
      <point x="275" y="653"/>
      <point x="283" y="674" type="curve"/>
      <point x="281" y="610"/>
      <point x="281" y="503"/>
      <point x="281" y="445" type="curve" smooth="yes"/>
    </contour>
  </outline>
</glyph>
<glyph name="five.sinh" format="2">
  <advance width="425"/>
  <unicode hex="0035"/>
  <outline>
    <contour>
      <point x="195" y="-10" type="curve" smooth="yes"/>
      <point x="297" y="-10"/>
      <point x="360" y="60"/>
      <point x="360" y="216" type="curve" smooth="yes"/>
      <point x="360" y="354"/>
      <point x="295" y="423"/>
      <point x="201" y="423" type="curve" smooth="yes"/>
      <point x="163" y="423"/>
      <point x="137" y="415"/>
      <point x="113" y="403" type="curve"/>
      <point x="133" y="684" type="line"/>
      <point x="266" y="684" type="line" smooth="yes"/>
      <point x="310" y="684"/>
      <point x="317" y="678"/>
      <point x="319" y="626" type="curve" smooth="yes"/>
      <point x="320" y="601" type="line"/>
      <point x="340" y="601" type="line"/>
      <point x="337" y="712" type="line"/>
      <point x="109" y="712" type="line"/>
      <point x="85" y="376" type="line"/>
      <point x="102" y="371" type="line"/>
      <point x="130" y="388"/>
      <point x="152" y="398"/>
      <point x="199" y="398" type="curve" smooth="yes"/>
      <point x="283" y="398"/>
      <point x="332" y="335"/>
      <point x="332" y="216" type="curve" smooth="yes"/>
      <point x="332" y="76"/>
      <point x="279" y="15"/>
      <point x="195" y="15" type="curve" smooth="yes"/>
      <point x="115" y="15"/>
      <point x="81" y="67"/>
      <point x="81" y="126" type="curve"/>
      <point x="67" y="126"/>
      <point x="60" y="115"/>
      <point x="60" y="88" type="curve" smooth="yes"/>
      <point x="60" y="57"/>
      <point x="91" y="-10"/>
    </contour>
  </outline>
</glyph>
<glyph name="six.sinh" format="2">
  <advance width="425"/>
  <unicode hex="0036"/>
  <outline>
    <contour>
      <point x="225" y="-10" type="curve" smooth="yes"/>
      <point x="302" y="-10"/>
      <point x="376" y="40"/>
      <point x="376" y="216" type="curve" smooth="yes"/>
      <point x="376" y="354"/>
      <point x="325" y="429"/>
      <point x="229" y="429" type="curve" smooth="yes"/>
      <point x="157" y="429"/>
      <point x="109" y="383"/>
      <point x="88" y="354" type="curve"/>
      <point x="88" y="608"/>
      <point x="142" y="699"/>
      <point x="242" y="699" type="curve" smooth="yes"/>
      <point x="312" y="699"/>
      <point x="338" y="661"/>
      <point x="338" y="587" type="curve"/>
      <point x="348" y="587"/>
      <point x="358" y="592"/>
      <point x="358" y="625" type="curve" smooth="yes"/>
      <point x="358" y="682"/>
      <point x="320" y="724"/>
      <point x="243" y="724" type="curve" smooth="yes"/>
      <point x="130" y="724"/>
      <point x="61" y="640"/>
      <point x="61" y="339" type="curve" smooth="yes"/>
      <point x="61" y="91"/>
      <point x="121" y="-10"/>
    </contour>
    <contour>
      <point x="226" y="15" type="curve" smooth="yes"/>
      <point x="140" y="15"/>
      <point x="90" y="110"/>
      <point x="88" y="317" type="curve"/>
      <point x="114" y="354"/>
      <point x="159" y="404"/>
      <point x="229" y="404" type="curve" smooth="yes"/>
      <point x="310" y="404"/>
      <point x="348" y="344"/>
      <point x="348" y="217" type="curve" smooth="yes"/>
      <point x="348" y="77"/>
      <point x="301" y="15"/>
    </contour>
  </outline>
</glyph>
<glyph name="seven.sinh" format="2">
  <advance width="425"/>
  <unicode hex="0037"/>
  <outline>
    <contour>
      <point x="349" y="684" type="line"/>
      <point x="148" y="0" type="line"/>
      <point x="174" y="0" type="line"/>
      <point x="378" y="690" type="line"/>
      <point x="378" y="712" type="line"/>
      <point x="51" y="712" type="line"/>
      <point x="47" y="568" type="line"/>
      <point x="67" y="568" type="line"/>
      <point x="70" y="628" type="line" smooth="yes"/>
      <point x="73" y="678"/>
      <point x="82" y="684"/>
      <point x="117" y="684" type="curve" smooth="yes"/>
    </contour>
  </outline>
</glyph>
<glyph name="eight.sinh" format="2">
  <advance width="425"/>
  <unicode hex="0038"/>
  <outline>
    <contour>
      <point x="208" y="-10" type="curve" smooth="yes"/>
      <point x="307" y="-10"/>
      <point x="375" y="53"/>
      <point x="375" y="162" type="curve" smooth="yes"/>
      <point x="375" y="261"/>
      <point x="323" y="315"/>
      <point x="242" y="373" type="curve"/>
      <point x="310" y="417"/>
      <point x="362" y="469"/>
      <point x="362" y="564" type="curve" smooth="yes"/>
      <point x="362" y="658"/>
      <point x="313" y="724"/>
      <point x="219" y="724" type="curve" smooth="yes"/>
      <point x="124" y="724"/>
      <point x="70" y="651"/>
      <point x="70" y="567" type="curve" smooth="yes"/>
      <point x="70" y="479"/>
      <point x="125" y="424"/>
      <point x="196" y="373" type="curve"/>
      <point x="108" y="318"/>
      <point x="49" y="260"/>
      <point x="49" y="161" type="curve" smooth="yes"/>
      <point x="49" y="61"/>
      <point x="106" y="-10"/>
    </contour>
    <contour>
      <point x="208" y="15" type="curve" smooth="yes"/>
      <point x="120" y="15"/>
      <point x="77" y="77"/>
      <point x="77" y="162" type="curve" smooth="yes"/>
      <point x="77" y="243"/>
      <point x="118" y="300"/>
      <point x="218" y="359" type="curve"/>
      <point x="304" y="298"/>
      <point x="347" y="244"/>
      <point x="347" y="162" type="curve" smooth="yes"/>
      <point x="347" y="70"/>
      <point x="292" y="15"/>
    </contour>
    <contour>
      <point x="221" y="388" type="curve"/>
      <point x="151" y="433"/>
      <point x="98" y="490"/>
      <point x="98" y="566" type="curve" smooth="yes"/>
      <point x="98" y="641"/>
      <point x="141" y="699"/>
      <point x="220" y="699" type="curve" smooth="yes"/>
      <point x="298" y="699"/>
      <point x="334" y="639"/>
      <point x="334" y="563" type="curve" smooth="yes"/>
      <point x="334" y="486"/>
      <point x="295" y="435"/>
    </contour>
  </outline>
</glyph>
<glyph name="nine.sinh" format="2">
  <advance width="425"/>
  <unicode hex="0039"/>
  <outline>
    <contour>
      <point x="176" y="-13" type="curve" smooth="yes"/>
      <point x="300" y="-13"/>
      <point x="364" y="89"/>
      <point x="364" y="388" type="curve" smooth="yes"/>
      <point x="364" y="636"/>
      <point x="294" y="724"/>
      <point x="196" y="724" type="curve" smooth="yes"/>
      <point x="98" y="724"/>
      <point x="49" y="642"/>
      <point x="49" y="484" type="curve" smooth="yes"/>
      <point x="49" y="348"/>
      <point x="104" y="285"/>
      <point x="199" y="285" type="curve" smooth="yes"/>
      <point x="275" y="285"/>
      <point x="322" y="331"/>
      <point x="337" y="357" type="curve"/>
      <point x="331" y="116"/>
      <point x="285" y="12"/>
      <point x="177" y="12" type="curve" smooth="yes"/>
      <point x="123" y="12"/>
      <point x="95" y="48"/>
      <point x="83" y="80" type="curve"/>
      <point x="77" y="77"/>
      <point x="74" y="70"/>
      <point x="74" y="55" type="curve" smooth="yes"/>
      <point x="74" y="22"/>
      <point x="112" y="-13"/>
    </contour>
    <contour>
      <point x="201" y="310" type="curve" smooth="yes"/>
      <point x="113" y="310"/>
      <point x="77" y="366"/>
      <point x="77" y="488" type="curve" smooth="yes"/>
      <point x="77" y="619"/>
      <point x="111" y="699"/>
      <point x="196" y="699" type="curve" smooth="yes"/>
      <point x="283" y="699"/>
      <point x="337" y="603"/>
      <point x="337" y="397" type="curve"/>
      <point x="323" y="373"/>
      <point x="285" y="310"/>
    </contour>
  </outline>
</glyph>
<glyph name="colon.sinh" format="2">
  <advance width="206"/>
  <unicode hex="003A"/>
  <outline>
    <contour>
      <point x="103" y="439" type="curve" smooth="yes"/>
      <point x="119" y="439"/>
      <point x="132" y="448"/>
      <point x="132" y="479" type="curve" smooth="yes"/>
      <point x="132" y="509"/>
      <point x="119" y="517"/>
      <point x="103" y="517" type="curve" smooth="yes"/>
      <point x="88" y="517"/>
      <point x="74" y="509"/>
      <point x="74" y="479" type="curve" smooth="yes"/>
      <point x="74" y="448"/>
      <point x="88" y="439"/>
    </contour>
    <contour>
      <point x="103" y="-5" type="curve" smooth="yes"/>
      <point x="119" y="-5"/>
      <point x="132" y="4"/>
      <point x="132" y="35" type="curve" smooth="yes"/>
      <point x="132" y="65"/>
      <point x="119" y="73"/>
      <point x="103" y="73" type="curve" smooth="yes"/>
      <point x="88" y="73"/>
      <point x="74" y="65"/>
      <point x="74" y="35" type="curve" smooth="yes"/>
      <point x="74" y="4"/>
      <point x="88" y="-5"/>
    </contour>
  </outline>
</glyph>
<glyph name="semicolon.sinh" format="2">
  <advance width="206"/>
  <unicode hex="003B"/>
  <outline>
    <contour>
      <point x="103" y="439" type="curve" smooth="yes"/>
      <point x="119" y="439"/>
      <point x="132" y="448"/>
      <point x="132" y="479" type="curve" smooth="yes"/>
      <point x="132" y="509"/>
      <point x="119" y="517"/>
      <point x="103" y="517" type="curve" smooth="yes"/>
      <point x="88" y="517"/>
      <point x="74" y="509"/>
      <point x="74" y="479" type="curve" smooth="yes"/>
      <point x="74" y="448"/>
      <point x="88" y="439"/>
    </contour>
    <component base="comma.sinh" xOffset="8"/>
  </outline>
</glyph>
<glyph name="less.sinh" format="2">
  <advance width="425"/>
  <unicode hex="003C"/>
  <outline>
    <contour>
      <point x="43" y="344" type="line"/>
      <point x="381" y="117" type="line"/>
      <point x="381" y="149" type="line"/>
      <point x="68" y="357" type="line"/>
      <point x="381" y="567" type="line"/>
      <point x="381" y="599" type="line"/>
      <point x="43" y="371" type="line"/>
    </contour>
  </outline>
</glyph>
<glyph name="equal.sinh" format="2">
  <advance width="425"/>
  <unicode hex="003D"/>
  <outline>
    <contour>
      <point x="44" y="470" type="line"/>
      <point x="44" y="443" type="line"/>
      <point x="381" y="443" type="line"/>
      <point x="381" y="470" type="line"/>
    </contour>
    <contour>
      <point x="44" y="272" type="line"/>
      <point x="44" y="245" type="line"/>
      <point x="381" y="245" type="line"/>
      <point x="381" y="272" type="line"/>
    </contour>
  </outline>
</glyph>
<glyph name="greater.sinh" format="2">
  <advance width="425"/>
  <unicode hex="003E"/>
  <outline>
    <contour>
      <point x="44" y="149" type="line"/>
      <point x="44" y="117" type="line"/>
      <point x="381" y="345" type="line"/>
      <point x="381" y="372" type="line"/>
      <point x="44" y="599" type="line"/>
      <point x="44" y="567" type="line"/>
      <point x="356" y="359" type="line"/>
    </contour>
  </outline>
</glyph>
<glyph name="question.sinh" format="2">
  <advance width="341"/>
  <unicode hex="003F"/>
  <outline>
    <contour>
      <point x="163" y="724" type="curve" smooth="yes"/>
      <point x="74" y="724"/>
      <point x="32" y="663"/>
      <point x="32" y="614" type="curve" smooth="yes"/>
      <point x="32" y="585"/>
      <point x="44" y="574"/>
      <point x="54" y="574" type="curve"/>
      <point x="54" y="644"/>
      <point x="93" y="699"/>
      <point x="163" y="699" type="curve" smooth="yes"/>
      <point x="237" y="699"/>
      <point x="275" y="642"/>
      <point x="275" y="550" type="curve" smooth="yes"/>
      <point x="275" y="453"/>
      <point x="236" y="385"/>
      <point x="145" y="337" type="curve"/>
      <point x="147" y="167" type="line"/>
      <point x="169" y="167" type="line"/>
      <point x="170" y="323" type="line"/>
      <point x="257" y="370"/>
      <point x="303" y="438"/>
      <point x="303" y="552" type="curve" smooth="yes"/>
      <point x="303" y="667"/>
      <point x="247" y="724"/>
    </contour>
    <contour>
      <point x="159" y="-5" type="curve" smooth="yes"/>
      <point x="175" y="-5"/>
      <point x="188" y="4"/>
      <point x="188" y="35" type="curve" smooth="yes"/>
      <point x="188" y="65"/>
      <point x="175" y="73"/>
      <point x="159" y="73" type="curve" smooth="yes"/>
      <point x="144" y="73"/>
      <point x="130" y="65"/>
      <point x="130" y="35" type="curve" smooth="yes"/>
      <point x="130" y="4"/>
      <point x="144" y="-5"/>
    </contour>
  </outline>
</glyph>
<glyph name="bracketleft.sinh" format="2">
  <advance width="283"/>
  <unicode hex="005B"/>
  <outline>
    <contour>
      <point x="96" y="799" type="line"/>
      <point x="96" y="-259" type="line"/>
      <point x="243" y="-259" type="line"/>
      <point x="243" y="-239" type="line"/>
      <point x="180" y="-239" type="line" smooth="yes"/>
      <point x="130" y="-239"/>
      <point x="123" y="-228"/>
      <point x="123" y="-171" type="curve" smooth="yes"/>
      <point x="123" y="702" type="line" smooth="yes"/>
      <point x="123" y="768"/>
      <point x="130" y="779"/>
      <point x="180" y="779" type="curve" smooth="yes"/>
      <point x="243" y="779" type="line"/>
      <point x="243" y="799" type="line"/>
    </contour>
  </outline>
</glyph>
<glyph name="bracketright.sinh" format="2">
  <advance width="283"/>
  <unicode hex="005D"/>
  <outline>
    <contour>
      <point x="187" y="-259" type="line"/>
      <point x="187" y="799" type="line"/>
      <point x="40" y="799" type="line"/>
      <point x="40" y="779" type="line"/>
      <point x="103" y="779" type="line" smooth="yes"/>
      <point x="153" y="779"/>
      <point x="160" y="768"/>
      <point x="160" y="711" type="curve" smooth="yes"/>
      <point x="160" y="-162" type="line" smooth="yes"/>
      <point x="160" y="-228"/>
      <point x="153" y="-239"/>
      <point x="103" y="-239" type="curve" smooth="yes"/>
      <point x="40" y="-239" type="line"/>
      <point x="40" y="-259" type="line"/>
    </contour>
  </outline>
</glyph>
<glyph name="asciicircum.sinh" format="2">
  <advance width="425"/>
  <unicode hex="005E"/>
  <outline>
    <contour>
      <point x="199" y="714" type="line"/>
      <point x="30" y="271" type="line"/>
      <point x="59" y="271" type="line"/>
      <point x="210" y="676" type="line"/>
      <point x="365" y="271" type="line"/>
      <point x="394" y="271" type="line"/>
      <point x="223" y="714" type="line"/>
    </contour>
  </outline>
</glyph>
<glyph name="underscore.sinh" format="2">
  <advance width="357"/>
  <unicode hex="005F"/>
  <outline>
    <contour>
      <point x="0" y="-83" type="line"/>
      <point x="0" y="-108" type="line"/>
      <point x="357" y="-108" type="line"/>
      <point x="357" y="-83" type="line"/>
    </contour>
  </outline>
</glyph>
<glyph name="braceleft.sinh" format="2">
  <advance width="314"/>
  <unicode hex="007B"/>
  <outline>
    <contour>
      <point x="274" y="-259" type="line"/>
      <point x="274" y="-234" type="line"/>
      <point x="262" y="-234" type="line" smooth="yes"/>
      <point x="188" y="-234"/>
      <point x="169" y="-197"/>
      <point x="169" y="-113" type="curve" smooth="yes"/>
      <point x="169" y="136" type="line" smooth="yes"/>
      <point x="169" y="212"/>
      <point x="143" y="256"/>
      <point x="88" y="269" type="curve"/>
      <point x="88" y="270" type="line"/>
      <point x="143" y="284"/>
      <point x="169" y="328"/>
      <point x="169" y="404" type="curve" smooth="yes"/>
      <point x="169" y="653" type="line" smooth="yes"/>
      <point x="169" y="737"/>
      <point x="188" y="774"/>
      <point x="262" y="774" type="curve" smooth="yes"/>
      <point x="274" y="774" type="line"/>
      <point x="274" y="799" type="line"/>
      <point x="260" y="799" type="line" smooth="yes"/>
      <point x="189" y="799"/>
      <point x="141" y="767"/>
      <point x="141" y="660" type="curve" smooth="yes"/>
      <point x="141" y="403" type="line" smooth="yes"/>
      <point x="141" y="311"/>
      <point x="104" y="284"/>
      <point x="40" y="282" type="curve"/>
      <point x="40" y="258" type="line"/>
      <point x="104" y="256"/>
      <point x="141" y="229"/>
      <point x="141" y="137" type="curve" smooth="yes"/>
      <point x="141" y="-119" type="line" smooth="yes"/>
      <point x="141" y="-227"/>
      <point x="189" y="-259"/>
      <point x="260" y="-259" type="curve"/>
    </contour>
  </outline>
</glyph>
<glyph name="braceright.sinh" format="2">
  <advance width="314"/>
  <unicode hex="007D"/>
  <outline>
    <contour>
      <point x="40" y="799" type="line"/>
      <point x="40" y="774" type="line"/>
      <point x="52" y="774" type="line" smooth="yes"/>
      <point x="126" y="774"/>
      <point x="145" y="737"/>
      <point x="145" y="653" type="curve" smooth="yes"/>
      <point x="145" y="404" type="line" smooth="yes"/>
      <point x="145" y="328"/>
      <point x="171" y="284"/>
      <point x="226" y="271" type="curve"/>
      <point x="226" y="270" type="line"/>
      <point x="171" y="256"/>
      <point x="145" y="212"/>
      <point x="145" y="136" type="curve" smooth="yes"/>
      <point x="145" y="-113" type="line" smooth="yes"/>
      <point x="145" y="-197"/>
      <point x="126" y="-234"/>
      <point x="52" y="-234" type="curve" smooth="yes"/>
      <point x="40" y="-234" type="line"/>
      <point x="40" y="-259" type="line"/>
      <point x="54" y="-259" type="line" smooth="yes"/>
      <point x="125" y="-259"/>
      <point x="173" y="-227"/>
      <point x="173" y="-120" type="curve" smooth="yes"/>
      <point x="173" y="137" type="line" smooth="yes"/>
      <point x="173" y="229"/>
      <point x="210" y="256"/>
      <point x="274" y="258" type="curve"/>
      <point x="274" y="282" type="line"/>
      <point x="210" y="284"/>
      <point x="173" y="311"/>
      <point x="173" y="403" type="curve" smooth="yes"/>
      <point x="173" y="659" type="line" smooth="yes"/>
      <point x="173" y="767"/>
      <point x="125" y="799"/>
      <point x="54" y="799" type="curve"/>
    </contour>
  </outline>
</glyph>
<glyph name="multiply.sinh" format="2">
  <advance width="425"/>
  <unicode hex="00D7"/>
  <outline>
    <contour>
      <point x="43" y="166" type="line"/>
      <point x="64" y="150" type="line"/>
      <point x="213" y="343" type="line"/>
      <point x="362" y="150" type="line"/>
      <point x="383" y="166" type="line"/>
      <point x="229" y="364" type="line"/>
      <point x="383" y="561" type="line"/>
      <point x="362" y="577" type="line"/>
      <point x="213" y="384" type="line"/>
      <point x="64" y="578" type="line"/>
      <point x="43" y="561" type="line"/>
      <point x="197" y="363" type="line"/>
    </contour>
  </outline>
</glyph>
<glyph name="divide.sinh" format="2">
  <advance width="425"/>
  <unicode hex="00F7"/>
  <outline>
    <contour>
      <point x="44" y="370" type="line"/>
      <point x="44" y="343" type="line"/>
      <point x="381" y="343" type="line"/>
      <point x="381" y="370" type="line"/>
    </contour>
    <contour>
      <point x="213" y="149" type="curve" smooth="yes"/>
      <point x="230" y="149"/>
      <point x="242" y="157"/>
      <point x="242" y="185" type="curve" smooth="yes"/>
      <point x="242" y="215"/>
      <point x="230" y="223"/>
      <point x="213" y="223" type="curve" smooth="yes"/>
      <point x="195" y="223"/>
      <point x="185" y="215"/>
      <point x="185" y="185" type="curve" smooth="yes"/>
      <point x="185" y="157"/>
      <point x="195" y="149"/>
    </contour>
    <contour>
      <point x="213" y="490" type="curve" smooth="yes"/>
      <point x="230" y="490"/>
      <point x="242" y="498"/>
      <point x="242" y="526" type="curve" smooth="yes"/>
      <point x="242" y="556"/>
      <point x="230" y="564"/>
      <point x="213" y="564" type="curve" smooth="yes"/>
      <point x="195" y="564"/>
      <point x="185" y="556"/>
      <point x="185" y="526" type="curve" smooth="yes"/>
      <point x="185" y="498"/>
      <point x="195" y="490"/>
    </contour>
  </outline>
</glyph>
<glyph name="dbldanda.sinh" format="2">
  <advance width="397"/>
  <unicode hex="0965"/>
  <outline>
    <contour>
      <point x="152" y="662" type="line"/>
      <point x="152" y="-65" type="line"/>
      <point x="179" y="-65" type="line"/>
      <point x="179" y="662" type="line"/>
    </contour>
    <contour>
      <point x="292" y="662" type="line"/>
      <point x="292" y="-65" type="line"/>
      <point x="319" y="-65" type="line"/>
      <point x="319" y="662" type="line"/>
    </contour>
  </outline>
</glyph>
<glyph name="anusvarasinh" format="2">
  <advance width="394"/>
  <unicode hex="0D82"/>
  <outline>
    <contour>
      <point x="35" y="265" type="curve" smooth="yes"/>
      <point x="35" y="141"/>
      <point x="95" y="71"/>
      <point x="197" y="71" type="curve" smooth="yes"/>
      <point x="299" y="71"/>
      <point x="359" y="142"/>
      <point x="359" y="265" type="curve" smooth="yes"/>
      <point x="359" y="381"/>
      <point x="297" y="459"/>
      <point x="197" y="459" type="curve" smooth="yes"/>
      <point x="96" y="459"/>
      <point x="35" y="380"/>
    </contour>
    <contour>
      <point x="62" y="265" type="curve" smooth="yes"/>
      <point x="62" y="373"/>
      <point x="115" y="434"/>
      <point x="197" y="434" type="curve" smooth="yes"/>
      <point x="281" y="434"/>
      <point x="332" y="373"/>
      <point x="332" y="264" type="curve" smooth="yes"/>
      <point x="332" y="171"/>
      <point x="293" y="98"/>
      <point x="197" y="98" type="curve" smooth="yes"/>
      <point x="103" y="98"/>
      <point x="62" y="167"/>
    </contour>
  </outline>
</glyph>
<glyph name="visargasinh" format="2">
  <advance width="232"/>
  <unicode hex="0D83"/>
  <outline>
    <contour>
      <point x="202" y="418" type="curve" smooth="yes"/>
      <point x="202" y="492"/>
      <point x="169" y="533"/>
      <point x="116" y="533" type="curve" smooth="yes"/>
      <point x="64" y="533"/>
      <point x="30" y="490"/>
      <point x="30" y="416" type="curve" smooth="yes"/>
      <point x="30" y="347"/>
      <point x="58" y="301"/>
      <point x="117" y="301" type="curve" smooth="yes"/>
      <point x="168" y="301"/>
      <point x="202" y="342"/>
    </contour>
    <contour>
      <point x="176" y="420" type="curve" smooth="yes"/>
      <point x="176" y="352"/>
      <point x="151" y="326"/>
      <point x="115" y="326" type="curve" smooth="yes"/>
      <point x="73" y="326"/>
      <point x="56" y="364"/>
      <point x="56" y="414" type="curve" smooth="yes"/>
      <point x="56" y="480"/>
      <point x="80" y="508"/>
      <point x="116" y="508" type="curve" smooth="yes"/>
      <point x="156" y="508"/>
      <point x="176" y="474"/>
    </contour>
    <contour>
      <point x="202" y="117" type="curve" smooth="yes"/>
      <point x="202" y="191"/>
      <point x="169" y="232"/>
      <point x="116" y="232" type="curve" smooth="yes"/>
      <point x="64" y="232"/>
      <point x="30" y="189"/>
      <point x="30" y="115" type="curve" smooth="yes"/>
      <point x="30" y="46"/>
      <point x="58" y="0"/>
      <point x="117" y="0" type="curve" smooth="yes"/>
      <point x="168" y="0"/>
      <point x="202" y="41"/>
    </contour>
    <contour>
      <point x="176" y="119" type="curve" smooth="yes"/>
      <point x="176" y="51"/>
      <point x="151" y="25"/>
      <point x="115" y="25" type="curve" smooth="yes"/>
      <point x="73" y="25"/>
      <point x="56" y="63"/>
      <point x="56" y="113" type="curve" smooth="yes"/>
      <point x="56" y="179"/>
      <point x="80" y="207"/>
      <point x="116" y="207" type="curve" smooth="yes"/>
      <point x="156" y="207"/>
      <point x="176" y="173"/>
    </contour>
  </outline>
</glyph>
<glyph name="asinh" format="2">
  <advance width="502"/>
  <unicode hex="0D85"/>
  <outline>
    <contour>
      <point x="247" y="-10" type="curve" smooth="yes"/>
      <point x="325" y="-10"/>
      <point x="375" y="6"/>
      <point x="436" y="37" type="curve"/>
      <point x="426" y="61" type="line"/>
      <point x="374" y="32"/>
      <point x="322" y="16"/>
      <point x="248" y="16" type="curve" smooth="yes"/>
      <point x="127" y="16"/>
      <point x="65" y="85"/>
      <point x="65" y="213" type="curve" smooth="yes"/>
      <point x="65" y="350"/>
      <point x="151" y="417"/>
      <point x="316" y="417" type="curve" smooth="yes"/>
      <point x="339" y="417" type="line"/>
      <point x="339" y="424" type="line" smooth="yes"/>
      <point x="339" y="525"/>
      <point x="300" y="589"/>
      <point x="222" y="589" type="curve" smooth="yes"/>
      <point x="163" y="589"/>
      <point x="129" y="547"/>
      <point x="129" y="495" type="curve" smooth="yes"/>
      <point x="129" y="473"/>
      <point x="134" y="451"/>
      <point x="141" y="433" type="curve"/>
      <point x="166" y="440" type="line"/>
      <point x="160" y="456"/>
      <point x="156" y="474"/>
      <point x="156" y="494" type="curve" smooth="yes"/>
      <point x="156" y="535"/>
      <point x="178" y="564"/>
      <point x="222" y="564" type="curve" smooth="yes"/>
      <point x="282" y="564"/>
      <point x="310" y="517"/>
      <point x="318" y="442" type="curve"/>
      <point x="314" y="442" type="line" smooth="yes"/>
      <point x="138" y="442"/>
      <point x="38" y="364"/>
      <point x="38" y="213" type="curve" smooth="yes"/>
      <point x="38" y="72"/>
      <point x="110" y="-10"/>
    </contour>
    <contour>
      <point x="318" y="-226" type="line"/>
      <point x="344" y="-226" type="line"/>
      <point x="344" y="381" type="line" smooth="yes"/>
      <point x="344" y="463"/>
      <point x="375" y="519"/>
      <point x="417" y="574" type="curve"/>
      <point x="397" y="590" type="line"/>
      <point x="350" y="531"/>
      <point x="318" y="445"/>
      <point x="318" y="374" type="curve" smooth="yes"/>
    </contour>
    <contour>
      <point x="397" y="256" type="curve" smooth="yes"/>
      <point x="449" y="256"/>
      <point x="477" y="283"/>
      <point x="477" y="342" type="curve" smooth="yes"/>
      <point x="477" y="380"/>
      <point x="462" y="407"/>
      <point x="434" y="451" type="curve" smooth="yes"/>
      <point x="408" y="492"/>
      <point x="405" y="511"/>
      <point x="405" y="534" type="curve" smooth="yes"/>
      <point x="405" y="540"/>
      <point x="405" y="555"/>
      <point x="409" y="570" type="curve"/>
      <point x="383" y="535" type="line"/>
      <point x="383" y="498"/>
      <point x="385" y="481"/>
      <point x="414" y="435" type="curve" smooth="yes"/>
      <point x="436" y="400"/>
      <point x="451" y="373"/>
      <point x="451" y="341" type="curve" smooth="yes"/>
      <point x="451" y="295"/>
      <point x="429" y="281"/>
      <point x="397" y="281" type="curve" smooth="yes"/>
      <point x="376" y="281"/>
      <point x="350" y="289"/>
      <point x="329" y="310" type="curve"/>
      <point x="324" y="285" type="line"/>
      <point x="344" y="265"/>
      <point x="372" y="256"/>
    </contour>
  </outline>
</glyph>
<glyph name="isinh" format="2">
  <advance width="537"/>
  <unicode hex="0D89"/>
  <outline>
    <contour>
      <point x="203" y="96" type="curve" smooth="yes"/>
      <point x="293" y="96"/>
      <point x="355" y="140"/>
      <point x="355" y="297" type="curve" smooth="yes"/>
      <point x="355" y="381"/>
      <point x="318" y="411"/>
      <point x="275" y="411" type="curve" smooth="yes"/>
      <point x="225" y="411"/>
      <point x="193" y="371"/>
      <point x="193" y="308" type="curve" smooth="yes"/>
      <point x="193" y="240"/>
      <point x="226" y="211"/>
      <point x="271" y="211" type="curve" smooth="yes"/>
      <point x="309" y="211"/>
      <point x="334" y="239"/>
      <point x="338" y="273" type="curve"/>
      <point x="333" y="271" type="line"/>
      <point x="326" y="174"/>
      <point x="288" y="121"/>
      <point x="203" y="121" type="curve" smooth="yes"/>
      <point x="126" y="121"/>
      <point x="64" y="171"/>
      <point x="64" y="326" type="curve" smooth="yes"/>
      <point x="64" y="479"/>
      <point x="148" y="564"/>
      <point x="268" y="564" type="curve" smooth="yes"/>
      <point x="415" y="564"/>
      <point x="471" y="449"/>
      <point x="471" y="291" type="curve" smooth="yes"/>
      <point x="471" y="115"/>
      <point x="406" y="25"/>
      <point x="255" y="25" type="curve" smooth="yes"/>
      <point x="241" y="25" type="line"/>
      <point x="240" y="0" type="line"/>
      <point x="252" y="0" type="line" smooth="yes"/>
      <point x="426" y="0"/>
      <point x="498" y="107"/>
      <point x="498" y="291" type="curve" smooth="yes"/>
      <point x="498" y="462"/>
      <point x="432" y="589"/>
      <point x="269" y="589" type="curve" smooth="yes"/>
      <point x="124" y="589"/>
      <point x="37" y="482"/>
      <point x="37" y="327" type="curve" smooth="yes"/>
      <point x="37" y="166"/>
      <point x="106" y="96"/>
    </contour>
    <contour>
      <point x="273" y="236" type="curve" smooth="yes"/>
      <point x="237" y="236"/>
      <point x="219" y="262"/>
      <point x="219" y="308" type="curve" smooth="yes"/>
      <point x="219" y="355"/>
      <point x="238" y="386"/>
      <point x="274" y="386" type="curve" smooth="yes"/>
      <point x="305" y="386"/>
      <point x="326" y="363"/>
      <point x="326" y="312" type="curve" smooth="yes"/>
      <point x="326" y="264"/>
      <point x="309" y="236"/>
    </contour>
    <contour>
      <point x="178" y="-6" type="curve"/>
      <point x="153" y="1" type="line"/>
      <point x="144" y="-24"/>
      <point x="138" y="-55"/>
      <point x="138" y="-94" type="curve" smooth="yes"/>
      <point x="138" y="-169"/>
      <point x="174" y="-240"/>
      <point x="268" y="-240" type="curve" smooth="yes"/>
      <point x="355" y="-240"/>
      <point x="401" y="-191"/>
      <point x="401" y="-87" type="curve" smooth="yes"/>
      <point x="401" y="-41"/>
      <point x="388" y="-1"/>
      <point x="361" y="35" type="curve"/>
      <point x="338" y="20" type="line"/>
      <point x="355" y="1"/>
      <point x="374" y="-43"/>
      <point x="374" y="-88" type="curve" smooth="yes"/>
      <point x="374" y="-176"/>
      <point x="340" y="-215"/>
      <point x="269" y="-215" type="curve" smooth="yes"/>
      <point x="202" y="-215"/>
      <point x="165" y="-172"/>
      <point x="165" y="-94" type="curve" smooth="yes"/>
      <point x="165" y="-60"/>
      <point x="171" y="-27"/>
    </contour>
  </outline>
</glyph>
<glyph name="iisinh" format="2">
  <advance width="495"/>
  <unicode hex="0D8A"/>
  <outline>
    <contour>
      <point x="245" y="-10" type="curve" smooth="yes"/>
      <point x="371" y="-10"/>
      <point x="455" y="87"/>
      <point x="455" y="282" type="curve" smooth="yes"/>
      <point x="455" y="459"/>
      <point x="381" y="572"/>
      <point x="249" y="572" type="curve" smooth="yes"/>
      <point x="139" y="572"/>
      <point x="40" y="464"/>
      <point x="40" y="285" type="curve" smooth="yes"/>
      <point x="40" y="94"/>
      <point x="112" y="-10"/>
    </contour>
    <contour>
      <point x="246" y="17" type="curve" smooth="yes"/>
      <point x="151" y="17"/>
      <point x="67" y="78"/>
      <point x="67" y="284" type="curve" smooth="yes"/>
      <point x="67" y="451"/>
      <point x="154" y="547"/>
      <point x="249" y="547" type="curve" smooth="yes"/>
      <point x="356" y="547"/>
      <point x="428" y="461"/>
      <point x="428" y="282" type="curve" smooth="yes"/>
      <point x="428" y="81"/>
      <point x="338" y="17"/>
    </contour>
    <contour>
      <point x="153" y="541" type="curve"/>
      <point x="204" y="559" type="line"/>
      <point x="287" y="619"/>
      <point x="409" y="730"/>
      <point x="484" y="808" type="curve"/>
      <point x="464" y="828" type="line"/>
      <point x="381" y="741"/>
      <point x="277" y="646"/>
    </contour>
    <contour>
      <point x="277" y="717" type="curve" smooth="yes"/>
      <point x="277" y="771"/>
      <point x="252" y="798"/>
      <point x="215" y="798" type="curve" smooth="yes"/>
      <point x="179" y="798"/>
      <point x="151" y="771"/>
      <point x="151" y="717" type="curve" smooth="yes"/>
      <point x="151" y="663"/>
      <point x="178" y="636"/>
      <point x="215" y="636" type="curve" smooth="yes"/>
      <point x="252" y="636"/>
      <point x="277" y="663"/>
    </contour>
    <contour>
      <point x="252" y="717" type="curve" smooth="yes"/>
      <point x="252" y="680"/>
      <point x="239" y="660"/>
      <point x="215" y="660" type="curve" smooth="yes"/>
      <point x="190" y="660"/>
      <point x="176" y="681"/>
      <point x="176" y="717" type="curve" smooth="yes"/>
      <point x="176" y="753"/>
      <point x="192" y="774"/>
      <point x="215" y="774" type="curve" smooth="yes"/>
      <point x="240" y="774"/>
      <point x="252" y="753"/>
    </contour>
    <contour>
      <point x="477" y="615" type="curve" smooth="yes"/>
      <point x="477" y="669"/>
      <point x="452" y="696"/>
      <point x="415" y="696" type="curve" smooth="yes"/>
      <point x="379" y="696"/>
      <point x="351" y="669"/>
      <point x="351" y="615" type="curve" smooth="yes"/>
      <point x="351" y="561"/>
      <point x="378" y="534"/>
      <point x="415" y="534" type="curve" smooth="yes"/>
      <point x="452" y="534"/>
      <point x="477" y="561"/>
    </contour>
    <contour>
      <point x="452" y="615" type="curve" smooth="yes"/>
      <point x="452" y="578"/>
      <point x="439" y="558"/>
      <point x="415" y="558" type="curve" smooth="yes"/>
      <point x="390" y="558"/>
      <point x="376" y="579"/>
      <point x="376" y="615" type="curve" smooth="yes"/>
      <point x="376" y="651"/>
      <point x="392" y="672"/>
      <point x="415" y="672" type="curve" smooth="yes"/>
      <point x="440" y="672"/>
      <point x="452" y="651"/>
    </contour>
  </outline>
</glyph>
<glyph name="usinh" format="2">
  <advance width="552"/>
  <unicode hex="0D8B"/>
  <outline>
    <contour>
      <point x="287" y="-230" type="curve" smooth="yes"/>
      <point x="456" y="-230"/>
      <point x="537" y="-128"/>
      <point x="537" y="79" type="curve" smooth="yes"/>
      <point x="537" y="98"/>
      <point x="535" y="113"/>
      <point x="534" y="127" type="curve"/>
      <point x="508" y="125" type="line"/>
      <point x="510" y="107"/>
      <point x="511" y="96"/>
      <point x="511" y="81" type="curve" smooth="yes"/>
      <point x="511" y="-108"/>
      <point x="442" y="-203"/>
      <point x="287" y="-203" type="curve" smooth="yes"/>
      <point x="131" y="-203"/>
      <point x="57" y="-88"/>
      <point x="57" y="81" type="curve" smooth="yes"/>
      <point x="57" y="300"/>
      <point x="179" y="417"/>
      <point x="412" y="417" type="curve" smooth="yes"/>
      <point x="467" y="417" type="line"/>
      <point x="467" y="424" type="line" smooth="yes"/>
      <point x="467" y="521"/>
      <point x="423" y="589"/>
      <point x="340" y="589" type="curve" smooth="yes"/>
      <point x="276" y="589"/>
      <point x="242" y="547"/>
      <point x="242" y="495" type="curve" smooth="yes"/>
      <point x="242" y="477"/>
      <point x="245" y="458"/>
      <point x="251" y="442" type="curve"/>
      <point x="276" y="449" type="line"/>
      <point x="272" y="461"/>
      <point x="269" y="477"/>
      <point x="269" y="494" type="curve" smooth="yes"/>
      <point x="269" y="535"/>
      <point x="291" y="564"/>
      <point x="340" y="564" type="curve" smooth="yes"/>
      <point x="405" y="564"/>
      <point x="433" y="517"/>
      <point x="441" y="442" type="curve"/>
      <point x="418" y="442" type="line" smooth="yes"/>
      <point x="166" y="442"/>
      <point x="30" y="320"/>
      <point x="30" y="80" type="curve" smooth="yes"/>
      <point x="30" y="-94"/>
      <point x="106" y="-230"/>
    </contour>
  </outline>
</glyph>
<glyph name="lvocalicsinh" format="2">
  <advance width="755"/>
  <unicode hex="0D8F"/>
  <outline>
    <contour>
      <point x="567" y="415" type="curve"/>
      <point x="592" y="409" type="line"/>
      <point x="598" y="428"/>
      <point x="604" y="456"/>
      <point x="604" y="489" type="curve" smooth="yes"/>
      <point x="604" y="543"/>
      <point x="565" y="589"/>
      <point x="518" y="589" type="curve" smooth="yes"/>
      <point x="443" y="589"/>
      <point x="395" y="517"/>
      <point x="395" y="424" type="curve" smooth="yes"/>
      <point x="395" y="417" type="line"/>
      <point x="400" y="417" type="line" smooth="yes"/>
      <point x="512" y="417"/>
      <point x="589" y="358"/>
      <point x="589" y="237" type="curve" smooth="yes"/>
      <point x="589" y="107"/>
      <point x="520" y="17"/>
      <point x="376" y="17" type="curve" smooth="yes"/>
      <point x="235" y="17"/>
      <point x="166" y="107"/>
      <point x="166" y="237" type="curve" smooth="yes"/>
      <point x="166" y="358"/>
      <point x="243" y="417"/>
      <point x="355" y="417" type="curve" smooth="yes"/>
      <point x="362" y="417" type="line"/>
      <point x="362" y="424" type="line" smooth="yes"/>
      <point x="362" y="521"/>
      <point x="318" y="589"/>
      <point x="244" y="589" type="curve" smooth="yes"/>
      <point x="197" y="589"/>
      <point x="156" y="543"/>
      <point x="156" y="495" type="curve" smooth="yes"/>
      <point x="156" y="466"/>
      <point x="163" y="445"/>
      <point x="173" y="421" type="curve"/>
      <point x="198" y="429" type="line"/>
      <point x="188" y="449"/>
      <point x="183" y="470"/>
      <point x="183" y="494" type="curve" smooth="yes"/>
      <point x="183" y="535"/>
      <point x="205" y="564"/>
      <point x="244" y="564" type="curve" smooth="yes"/>
      <point x="300" y="564"/>
      <point x="329" y="515"/>
      <point x="336" y="440" type="curve"/>
      <point x="360" y="442" type="line"/>
      <point x="357" y="442" type="line" smooth="yes"/>
      <point x="219" y="442"/>
      <point x="139" y="363"/>
      <point x="139" y="237" type="curve" smooth="yes"/>
      <point x="139" y="86"/>
      <point x="224" y="-10"/>
      <point x="376" y="-10" type="curve" smooth="yes"/>
      <point x="535" y="-10"/>
      <point x="616" y="90"/>
      <point x="616" y="238" type="curve" smooth="yes"/>
      <point x="616" y="363"/>
      <point x="531" y="442"/>
      <point x="404" y="442" type="curve" smooth="yes"/>
      <point x="399" y="442" type="line"/>
      <point x="421" y="438" type="line"/>
      <point x="428" y="510"/>
      <point x="459" y="564"/>
      <point x="518" y="564" type="curve" smooth="yes"/>
      <point x="567" y="564"/>
      <point x="578" y="525"/>
      <point x="578" y="486" type="curve" smooth="yes"/>
      <point x="578" y="456"/>
      <point x="572" y="433"/>
    </contour>
    <contour>
      <point x="40" y="332" type="curve" smooth="yes"/>
      <point x="40" y="210"/>
      <point x="81" y="125"/>
      <point x="137" y="51" type="curve"/>
      <point x="158" y="67" type="line"/>
      <point x="107" y="132"/>
      <point x="67" y="215"/>
      <point x="67" y="331" type="curve" smooth="yes"/>
      <point x="67" y="480"/>
      <point x="144" y="567"/>
      <point x="241" y="567" type="curve" smooth="yes"/>
      <point x="245" y="567"/>
      <point x="249" y="567"/>
      <point x="255" y="566" type="curve"/>
      <point x="274" y="584" type="line"/>
      <point x="262" y="588"/>
      <point x="250" y="589"/>
      <point x="241" y="589" type="curve" smooth="yes"/>
      <point x="129" y="589"/>
      <point x="40" y="493"/>
    </contour>
    <contour>
      <point x="715" y="343" type="curve" smooth="yes"/>
      <point x="715" y="496"/>
      <point x="627" y="589"/>
      <point x="525" y="589" type="curve" smooth="yes"/>
      <point x="510" y="589"/>
      <point x="498" y="587"/>
      <point x="486" y="582" type="curve"/>
      <point x="500" y="566" type="line"/>
      <point x="506" y="567"/>
      <point x="510" y="567"/>
      <point x="527" y="567" type="curve" smooth="yes"/>
      <point x="614" y="567"/>
      <point x="688" y="481"/>
      <point x="688" y="340" type="curve" smooth="yes"/>
      <point x="688" y="211"/>
      <point x="648" y="132"/>
      <point x="597" y="67" type="curve"/>
      <point x="618" y="51" type="line"/>
      <point x="674" y="125"/>
      <point x="715" y="205"/>
    </contour>
  </outline>
</glyph>
<glyph name="esinh" format="2">
  <advance width="568"/>
  <unicode hex="0D91"/>
  <outline>
    <contour>
      <point x="249" y="-10" type="curve" smooth="yes"/>
      <point x="435" y="-10"/>
      <point x="529" y="142"/>
      <point x="529" y="396" type="curve" smooth="yes"/>
      <point x="529" y="673"/>
      <point x="375" y="786"/>
      <point x="197" y="812" type="curve"/>
      <point x="194" y="787" type="line"/>
      <point x="355" y="765"/>
      <point x="502" y="669"/>
      <point x="502" y="397" type="curve" smooth="yes"/>
      <point x="502" y="163"/>
      <point x="421" y="17"/>
      <point x="249" y="17" type="curve" smooth="yes"/>
      <point x="136" y="17"/>
      <point x="77" y="85"/>
      <point x="77" y="210" type="curve" smooth="yes"/>
      <point x="77" y="312"/>
      <point x="131" y="380"/>
      <point x="229" y="423" type="curve"/>
      <point x="191" y="417" type="line"/>
      <point x="305" y="417" type="line"/>
      <point x="305" y="424" type="line" smooth="yes"/>
      <point x="305" y="521"/>
      <point x="261" y="589"/>
      <point x="187" y="589" type="curve" smooth="yes"/>
      <point x="133" y="589"/>
      <point x="99" y="547"/>
      <point x="99" y="495" type="curve" smooth="yes"/>
      <point x="99" y="483"/>
      <point x="101" y="466"/>
      <point x="104" y="454" type="curve"/>
      <point x="130" y="457" type="line"/>
      <point x="128" y="466"/>
      <point x="126" y="483"/>
      <point x="126" y="494" type="curve" smooth="yes"/>
      <point x="126" y="535"/>
      <point x="148" y="564"/>
      <point x="187" y="564" type="curve" smooth="yes"/>
      <point x="243" y="564"/>
      <point x="271" y="516"/>
      <point x="279" y="442" type="curve"/>
      <point x="24" y="442" type="line"/>
      <point x="24" y="417" type="line"/>
      <point x="76" y="417" type="line" smooth="yes"/>
      <point x="106" y="417"/>
      <point x="148" y="417"/>
      <point x="186" y="420" type="curve"/>
      <point x="185" y="424" type="line"/>
      <point x="100" y="381"/>
      <point x="50" y="309"/>
      <point x="50" y="210" type="curve" smooth="yes"/>
      <point x="50" y="67"/>
      <point x="124" y="-10"/>
    </contour>
    <contour>
      <point x="346" y="582" type="curve" smooth="yes"/>
      <point x="394" y="582"/>
      <point x="424" y="616"/>
      <point x="443" y="679" type="curve"/>
      <point x="420" y="692" type="line"/>
      <point x="404" y="637"/>
      <point x="383" y="608"/>
      <point x="348" y="608" type="curve" smooth="yes"/>
      <point x="308" y="608"/>
      <point x="287" y="631"/>
      <point x="276" y="692" type="curve" smooth="yes"/>
      <point x="264" y="760"/>
      <point x="251" y="779"/>
      <point x="223" y="798" type="curve"/>
      <point x="202" y="788" type="line"/>
      <point x="222" y="782"/>
      <point x="235" y="767"/>
      <point x="250" y="689" type="curve" smooth="yes"/>
      <point x="263" y="620"/>
      <point x="289" y="582"/>
    </contour>
  </outline>
</glyph>
<glyph name="eesinh" format="2">
  <advance width="568"/>
  <unicode hex="0D92"/>
  <outline>
    <contour>
      <point x="336" y="963" type="curve" smooth="yes"/>
      <point x="322" y="963"/>
      <point x="306" y="960"/>
      <point x="299" y="957" type="curve"/>
      <point x="302" y="934" type="line"/>
      <point x="311" y="937"/>
      <point x="321" y="939"/>
      <point x="333" y="939" type="curve" smooth="yes"/>
      <point x="358" y="939"/>
      <point x="378" y="925"/>
      <point x="378" y="864" type="curve" smooth="yes"/>
      <point x="378" y="838" type="line" smooth="yes"/>
      <point x="378" y="802"/>
      <point x="378" y="765"/>
      <point x="380" y="730" type="curve"/>
      <point x="404" y="704" type="line"/>
      <point x="404" y="738" type="line" smooth="yes"/>
      <point x="404" y="768"/>
      <point x="404" y="799"/>
      <point x="401" y="829" type="curve"/>
      <point x="404" y="836" type="line"/>
      <point x="404" y="901" type="line"/>
      <point x="395" y="902" type="line"/>
      <point x="389" y="947"/>
      <point x="367" y="963"/>
    </contour>
    <contour>
      <point x="454" y="963" type="curve" smooth="yes"/>
      <point x="421" y="963"/>
      <point x="400" y="938"/>
      <point x="387" y="900" type="curve"/>
      <point x="402" y="878" type="line"/>
      <point x="409" y="916"/>
      <point x="426" y="940"/>
      <point x="451" y="940" type="curve" smooth="yes"/>
      <point x="481" y="940"/>
      <point x="495" y="915"/>
      <point x="495" y="875" type="curve" smooth="yes"/>
      <point x="495" y="830"/>
      <point x="479" y="812"/>
      <point x="451" y="812" type="curve" smooth="yes"/>
      <point x="426" y="812"/>
      <point x="408" y="831"/>
      <point x="401" y="861" type="curve"/>
      <point x="393" y="836" type="line"/>
      <point x="404" y="806"/>
      <point x="426" y="789"/>
      <point x="453" y="789" type="curve" smooth="yes"/>
      <point x="494" y="789"/>
      <point x="521" y="817"/>
      <point x="521" y="875" type="curve" smooth="yes"/>
      <point x="521" y="926"/>
      <point x="496" y="963"/>
    </contour>
    <component base="esinh"/>
  </outline>
</glyph>
<glyph name="oosinh" format="2">
  <advance width="613"/>
  <unicode hex="0D95"/>
  <outline>
    <contour>
      <point x="417" y="-10" type="curve" smooth="yes"/>
      <point x="524" y="-10"/>
      <point x="571" y="77"/>
      <point x="571" y="311" type="curve" smooth="yes"/>
      <point x="571" y="548"/>
      <point x="499" y="723"/>
      <point x="268" y="723" type="curve" smooth="yes"/>
      <point x="177" y="723"/>
      <point x="112" y="711"/>
      <point x="46" y="688" type="curve"/>
      <point x="54" y="663" type="line"/>
      <point x="118" y="686"/>
      <point x="185" y="698"/>
      <point x="272" y="698" type="curve" smooth="yes"/>
      <point x="483" y="698"/>
      <point x="544" y="534"/>
      <point x="544" y="311" type="curve" smooth="yes"/>
      <point x="544" y="91"/>
      <point x="504" y="17"/>
      <point x="418" y="17" type="curve" smooth="yes"/>
      <point x="344" y="17"/>
      <point x="317" y="69"/>
      <point x="305" y="169" type="curve"/>
      <point x="281" y="169" type="line"/>
      <point x="264" y="78"/>
      <point x="248" y="17"/>
      <point x="175" y="17" type="curve" smooth="yes"/>
      <point x="99" y="17"/>
      <point x="69" y="108"/>
      <point x="69" y="263" type="curve" smooth="yes"/>
      <point x="69" y="417"/>
      <point x="114" y="532"/>
      <point x="153" y="532" type="curve" smooth="yes"/>
      <point x="170" y="532"/>
      <point x="177" y="519"/>
      <point x="177" y="490" type="curve" smooth="yes"/>
      <point x="177" y="453"/>
      <point x="168" y="426"/>
      <point x="168" y="387" type="curve" smooth="yes"/>
      <point x="168" y="297"/>
      <point x="217" y="245"/>
      <point x="303" y="245" type="curve" smooth="yes"/>
      <point x="386" y="245"/>
      <point x="447" y="294"/>
      <point x="447" y="411" type="curve" smooth="yes"/>
      <point x="447" y="512"/>
      <point x="400" y="571"/>
      <point x="327" y="571" type="curve" smooth="yes"/>
      <point x="268" y="571"/>
      <point x="237" y="534"/>
      <point x="237" y="468" type="curve" smooth="yes"/>
      <point x="237" y="412"/>
      <point x="258" y="372"/>
      <point x="312" y="372" type="curve" smooth="yes"/>
      <point x="360" y="372"/>
      <point x="387" y="403"/>
      <point x="387" y="471" type="curve" smooth="yes"/>
      <point x="387" y="500"/>
      <point x="376" y="536"/>
      <point x="349" y="551" type="curve"/>
      <point x="350" y="547" type="line"/>
      <point x="387" y="536"/>
      <point x="421" y="497"/>
      <point x="421" y="412" type="curve" smooth="yes"/>
      <point x="421" y="320"/>
      <point x="379" y="271"/>
      <point x="303" y="271" type="curve" smooth="yes"/>
      <point x="238" y="271"/>
      <point x="194" y="304"/>
      <point x="194" y="391" type="curve" smooth="yes"/>
      <point x="194" y="430"/>
      <point x="203" y="460"/>
      <point x="203" y="491" type="curve" smooth="yes"/>
      <point x="203" y="524"/>
      <point x="192" y="557"/>
      <point x="154" y="557" type="curve" smooth="yes"/>
      <point x="99" y="557"/>
      <point x="42" y="451"/>
      <point x="42" y="263" type="curve" smooth="yes"/>
      <point x="42" y="73"/>
      <point x="87" y="-10"/>
      <point x="176" y="-10" type="curve" smooth="yes"/>
      <point x="247" y="-10"/>
      <point x="278" y="41"/>
      <point x="292" y="118" type="curve"/>
      <point x="303" y="40"/>
      <point x="345" y="-10"/>
    </contour>
    <contour>
      <point x="361" y="471" type="curve" smooth="yes"/>
      <point x="361" y="423"/>
      <point x="347" y="397"/>
      <point x="312" y="397" type="curve" smooth="yes"/>
      <point x="278" y="397"/>
      <point x="263" y="421"/>
      <point x="263" y="468" type="curve" smooth="yes"/>
      <point x="263" y="515"/>
      <point x="281" y="546"/>
      <point x="314" y="546" type="curve" smooth="yes"/>
      <point x="345" y="546"/>
      <point x="361" y="520"/>
    </contour>
    <contour>
      <point x="293" y="934" type="curve" smooth="yes"/>
      <point x="157" y="934"/>
      <point x="103" y="874"/>
      <point x="103" y="806" type="curve" smooth="yes"/>
      <point x="103" y="764"/>
      <point x="128" y="727"/>
      <point x="157" y="699" type="curve"/>
      <point x="184" y="708" type="line"/>
      <point x="153" y="734"/>
      <point x="130" y="761"/>
      <point x="130" y="806" type="curve" smooth="yes"/>
      <point x="130" y="869"/>
      <point x="183" y="908"/>
      <point x="292" y="908" type="curve" smooth="yes"/>
      <point x="451" y="908"/>
      <point x="499" y="843"/>
      <point x="499" y="779" type="curve" smooth="yes"/>
      <point x="499" y="726"/>
      <point x="467" y="690"/>
      <point x="417" y="669" type="curve"/>
      <point x="439" y="651" type="line"/>
      <point x="481" y="674"/>
      <point x="526" y="707"/>
      <point x="526" y="781" type="curve" smooth="yes"/>
      <point x="526" y="851"/>
      <point x="469" y="934"/>
    </contour>
  </outline>
</glyph>
<glyph name="kasinh" format="2">
  <advance width="726"/>
  <unicode hex="0D9A"/>
  <outline>
    <contour>
      <point x="378" y="-10" type="curve" smooth="yes"/>
      <point x="444" y="-10"/>
      <point x="486" y="39"/>
      <point x="486" y="188" type="curve" smooth="yes"/>
      <point x="486" y="342"/>
      <point x="417" y="442"/>
      <point x="279" y="442" type="curve" smooth="yes"/>
      <point x="257" y="442"/>
      <point x="226" y="436"/>
      <point x="208" y="431" type="curve"/>
      <point x="195" y="406" type="line"/>
      <point x="218" y="414"/>
      <point x="240" y="417"/>
      <point x="277" y="417" type="curve" smooth="yes"/>
      <point x="413" y="417"/>
      <point x="459" y="315"/>
      <point x="459" y="189" type="curve" smooth="yes"/>
      <point x="459" y="54"/>
      <point x="428" y="17"/>
      <point x="378" y="17" type="curve" smooth="yes"/>
      <point x="326" y="17"/>
      <point x="294" y="53"/>
      <point x="287" y="159" type="curve"/>
      <point x="263" y="159" type="line"/>
      <point x="256" y="68"/>
      <point x="235" y="17"/>
      <point x="180" y="17" type="curve" smooth="yes"/>
      <point x="133" y="17"/>
      <point x="107" y="51"/>
      <point x="107" y="142" type="curve" smooth="yes"/>
      <point x="107" y="160"/>
      <point x="109" y="177"/>
      <point x="111" y="189" type="curve"/>
      <point x="54" y="193" type="line"/>
      <point x="46" y="190" type="line"/>
      <point x="41" y="169" type="line"/>
      <point x="98" y="165" type="line"/>
      <point x="88" y="190" type="line"/>
      <point x="85" y="180"/>
      <point x="81" y="162"/>
      <point x="81" y="142" type="curve" smooth="yes"/>
      <point x="81" y="58"/>
      <point x="103" y="-10"/>
      <point x="180" y="-10" type="curve" smooth="yes"/>
      <point x="232" y="-10"/>
      <point x="261" y="29"/>
      <point x="275" y="99" type="curve"/>
      <point x="286" y="31"/>
      <point x="317" y="-10"/>
    </contour>
    <contour>
      <point x="534" y="-8" type="curve" smooth="yes"/>
      <point x="641" y="-8"/>
      <point x="686" y="78"/>
      <point x="686" y="260" type="curve" smooth="yes"/>
      <point x="686" y="451"/>
      <point x="606" y="589"/>
      <point x="459" y="589" type="curve" smooth="yes"/>
      <point x="322" y="589"/>
      <point x="216" y="480"/>
      <point x="19" y="184" type="curve"/>
      <point x="41" y="169" type="line"/>
      <point x="110" y="276"/>
      <point x="173" y="362"/>
      <point x="223" y="419" type="curve"/>
      <point x="231" y="431" type="line"/>
      <point x="302" y="507"/>
      <point x="364" y="563"/>
      <point x="459" y="563" type="curve" smooth="yes"/>
      <point x="588" y="563"/>
      <point x="659" y="443"/>
      <point x="659" y="261" type="curve" smooth="yes"/>
      <point x="659" y="87"/>
      <point x="619" y="17"/>
      <point x="533" y="17" type="curve" smooth="yes"/>
      <point x="513" y="17"/>
      <point x="497" y="19"/>
      <point x="481" y="25" type="curve"/>
      <point x="476" y="0" type="line"/>
      <point x="494" y="-6"/>
      <point x="515" y="-8"/>
    </contour>
    <contour>
      <point x="118" y="571" type="curve" smooth="yes"/>
      <point x="72" y="571"/>
      <point x="38" y="530"/>
      <point x="38" y="470" type="curve" smooth="yes"/>
      <point x="38" y="435"/>
      <point x="48" y="395"/>
      <point x="57" y="373" type="curve"/>
      <point x="83" y="381" type="line"/>
      <point x="73" y="404"/>
      <point x="65" y="435"/>
      <point x="65" y="469" type="curve" smooth="yes"/>
      <point x="65" y="513"/>
      <point x="84" y="546"/>
      <point x="119" y="546" type="curve" smooth="yes"/>
      <point x="160" y="546"/>
      <point x="187" y="507"/>
      <point x="205" y="419" type="curve"/>
      <point x="225" y="436" type="line"/>
      <point x="209" y="519"/>
      <point x="176" y="571"/>
    </contour>
  </outline>
</glyph>
<glyph name="khasinh" format="2">
  <advance width="624"/>
  <unicode hex="0D9B"/>
  <outline>
    <contour>
      <point x="195" y="-10" type="curve" smooth="yes"/>
      <point x="253" y="-10"/>
      <point x="283" y="27"/>
      <point x="283" y="100" type="curve" smooth="yes"/>
      <point x="283" y="172"/>
      <point x="249" y="206"/>
      <point x="197" y="206" type="curve" smooth="yes"/>
      <point x="146" y="206"/>
      <point x="113" y="165"/>
      <point x="113" y="101" type="curve" smooth="yes"/>
      <point x="113" y="48"/>
      <point x="140" y="21"/>
      <point x="156" y="10" type="curve"/>
      <point x="169" y="7" type="line"/>
      <point x="116" y="39"/>
      <point x="66" y="87"/>
      <point x="66" y="254" type="curve" smooth="yes"/>
      <point x="66" y="409"/>
      <point x="142" y="512"/>
      <point x="240" y="512" type="curve" smooth="yes"/>
      <point x="323" y="512"/>
      <point x="377" y="451"/>
      <point x="377" y="330" type="curve" smooth="yes"/>
      <point x="377" y="258"/>
      <point x="355" y="196"/>
      <point x="333" y="135" type="curve" smooth="yes"/>
      <point x="317" y="91"/>
      <point x="302" y="46"/>
      <point x="289" y="0" type="curve"/>
      <point x="313" y="-9" type="line"/>
      <point x="326" y="43"/>
      <point x="341" y="89"/>
      <point x="356" y="130" type="curve"/>
      <point x="363" y="147" type="line"/>
      <point x="381" y="195"/>
      <point x="404" y="257"/>
      <point x="404" y="335" type="curve" smooth="yes"/>
      <point x="404" y="455"/>
      <point x="348" y="538"/>
      <point x="241" y="538" type="curve" smooth="yes"/>
      <point x="132" y="538"/>
      <point x="39" y="429"/>
      <point x="39" y="254" type="curve" smooth="yes"/>
      <point x="39" y="88"/>
      <point x="104" y="-10"/>
    </contour>
    <contour>
      <point x="461" y="-10" type="curve" smooth="yes"/>
      <point x="527" y="-10"/>
      <point x="582" y="54"/>
      <point x="582" y="330" type="curve" smooth="yes"/>
      <point x="582" y="634"/>
      <point x="482" y="804"/>
      <point x="274" y="804" type="curve" smooth="yes"/>
      <point x="183" y="804"/>
      <point x="115" y="782"/>
      <point x="41" y="738" type="curve"/>
      <point x="55" y="715" type="line"/>
      <point x="126" y="760"/>
      <point x="193" y="779"/>
      <point x="277" y="779" type="curve" smooth="yes"/>
      <point x="474" y="779"/>
      <point x="555" y="607"/>
      <point x="555" y="330" type="curve" smooth="yes"/>
      <point x="555" y="65"/>
      <point x="507" y="17"/>
      <point x="462" y="17" type="curve" smooth="yes"/>
      <point x="423" y="17"/>
      <point x="399" y="44"/>
      <point x="398" y="152" type="curve"/>
      <point x="351" y="152" type="line"/>
      <point x="338" y="128" type="line"/>
      <point x="389" y="128" type="line"/>
      <point x="375" y="138" type="line"/>
      <point x="375" y="58"/>
      <point x="392" y="-10"/>
    </contour>
    <contour>
      <point x="197" y="181" type="curve" smooth="yes"/>
      <point x="238" y="181"/>
      <point x="257" y="150"/>
      <point x="257" y="100" type="curve" smooth="yes"/>
      <point x="257" y="44"/>
      <point x="236" y="14"/>
      <point x="197" y="14" type="curve" smooth="yes"/>
      <point x="160" y="14"/>
      <point x="138" y="40"/>
      <point x="138" y="97" type="curve" smooth="yes"/>
      <point x="138" y="152"/>
      <point x="160" y="181"/>
    </contour>
  </outline>
</glyph>
<glyph name="gasinh" format="2">
  <advance width="638"/>
  <unicode hex="0D9C"/>
  <outline>
    <contour>
      <point x="423" y="-6" type="curve" smooth="yes"/>
      <point x="541" y="-6"/>
      <point x="599" y="73"/>
      <point x="599" y="285" type="curve" smooth="yes"/>
      <point x="599" y="457"/>
      <point x="549" y="589"/>
      <point x="434" y="589" type="curve" smooth="yes"/>
      <point x="342" y="589"/>
      <point x="268" y="499"/>
      <point x="251" y="293" type="curve"/>
      <point x="272" y="288" type="line"/>
      <point x="278" y="291"/>
      <point x="287" y="293"/>
      <point x="296" y="293" type="curve" smooth="yes"/>
      <point x="327" y="293"/>
      <point x="350" y="266"/>
      <point x="350" y="196" type="curve" smooth="yes"/>
      <point x="350" y="98"/>
      <point x="317" y="17"/>
      <point x="218" y="17" type="curve" smooth="yes"/>
      <point x="112" y="17"/>
      <point x="66" y="119"/>
      <point x="66" y="277" type="curve" smooth="yes"/>
      <point x="66" y="451"/>
      <point x="154" y="564"/>
      <point x="260" y="564" type="curve" smooth="yes"/>
      <point x="271" y="564"/>
      <point x="280" y="564"/>
      <point x="289" y="562" type="curve"/>
      <point x="292" y="587" type="line"/>
      <point x="283" y="589"/>
      <point x="271" y="589"/>
      <point x="260" y="589" type="curve" smooth="yes"/>
      <point x="145" y="589"/>
      <point x="39" y="474"/>
      <point x="39" y="274" type="curve" smooth="yes"/>
      <point x="39" y="95"/>
      <point x="100" y="-10"/>
      <point x="218" y="-10" type="curve" smooth="yes"/>
      <point x="335" y="-10"/>
      <point x="377" y="87"/>
      <point x="377" y="193" type="curve" smooth="yes"/>
      <point x="377" y="271"/>
      <point x="348" y="318"/>
      <point x="297" y="318" type="curve" smooth="yes"/>
      <point x="284" y="318"/>
      <point x="275" y="315"/>
      <point x="267" y="311" type="curve"/>
      <point x="278" y="307" type="line"/>
      <point x="298" y="480"/>
      <point x="353" y="563"/>
      <point x="434" y="563" type="curve" smooth="yes"/>
      <point x="533" y="563"/>
      <point x="572" y="445"/>
      <point x="572" y="285" type="curve" smooth="yes"/>
      <point x="572" y="81"/>
      <point x="517" y="19"/>
      <point x="423" y="19" type="curve" smooth="yes"/>
      <point x="406" y="19"/>
      <point x="382" y="22"/>
      <point x="361" y="28" type="curve"/>
      <point x="355" y="2" type="line"/>
      <point x="376" y="-3"/>
      <point x="404" y="-6"/>
    </contour>
  </outline>
</glyph>
<glyph name="ghasinh" format="2">
  <advance width="576"/>
  <unicode hex="0D9D"/>
  <outline>
    <contour>
      <point x="181" y="-10" type="curve" smooth="yes"/>
      <point x="208" y="-10"/>
      <point x="236" y="-6"/>
      <point x="261" y="5" type="curve"/>
      <point x="249" y="27" type="line"/>
      <point x="227" y="18"/>
      <point x="210" y="17"/>
      <point x="182" y="17" type="curve" smooth="yes"/>
      <point x="106" y="17"/>
      <point x="70" y="85"/>
      <point x="70" y="184" type="curve" smooth="yes"/>
      <point x="70" y="314"/>
      <point x="139" y="397"/>
      <point x="253" y="425" type="curve"/>
      <point x="212" y="417" type="line"/>
      <point x="277" y="417" type="line"/>
      <point x="277" y="424" type="line" smooth="yes"/>
      <point x="277" y="521"/>
      <point x="233" y="589"/>
      <point x="159" y="589" type="curve" smooth="yes"/>
      <point x="105" y="589"/>
      <point x="71" y="547"/>
      <point x="71" y="495" type="curve" smooth="yes"/>
      <point x="71" y="483"/>
      <point x="73" y="466"/>
      <point x="76" y="454" type="curve"/>
      <point x="102" y="457" type="line"/>
      <point x="100" y="466"/>
      <point x="98" y="483"/>
      <point x="98" y="494" type="curve" smooth="yes"/>
      <point x="98" y="535"/>
      <point x="120" y="564"/>
      <point x="159" y="564" type="curve" smooth="yes"/>
      <point x="215" y="564"/>
      <point x="243" y="516"/>
      <point x="251" y="442" type="curve"/>
      <point x="27" y="442" type="line"/>
      <point x="27" y="417" type="line"/>
      <point x="104" y="417" type="line" smooth="yes"/>
      <point x="144" y="417"/>
      <point x="169" y="418"/>
      <point x="208" y="423" type="curve"/>
      <point x="204" y="428" type="line"/>
      <point x="110" y="398"/>
      <point x="43" y="318"/>
      <point x="43" y="182" type="curve" smooth="yes"/>
      <point x="43" y="60"/>
      <point x="98" y="-10"/>
    </contour>
    <contour>
      <point x="395" y="-10" type="curve" smooth="yes"/>
      <point x="497" y="-10"/>
      <point x="537" y="66"/>
      <point x="537" y="199" type="curve" smooth="yes"/>
      <point x="537" y="347"/>
      <point x="453" y="442"/>
      <point x="325" y="442" type="curve"/>
      <point x="336" y="438" type="line"/>
      <point x="343" y="510"/>
      <point x="374" y="564"/>
      <point x="433" y="564" type="curve" smooth="yes"/>
      <point x="482" y="564"/>
      <point x="493" y="525"/>
      <point x="493" y="486" type="curve" smooth="yes"/>
      <point x="493" y="456"/>
      <point x="487" y="431"/>
      <point x="480" y="408" type="curve"/>
      <point x="504" y="401" type="line"/>
      <point x="513" y="424"/>
      <point x="520" y="457"/>
      <point x="520" y="486" type="curve" smooth="yes"/>
      <point x="520" y="541"/>
      <point x="494" y="589"/>
      <point x="433" y="589" type="curve" smooth="yes"/>
      <point x="358" y="589"/>
      <point x="310" y="516"/>
      <point x="310" y="424" type="curve" smooth="yes"/>
      <point x="310" y="417" type="line"/>
      <point x="318" y="417" type="line" smooth="yes"/>
      <point x="451" y="417"/>
      <point x="510" y="324"/>
      <point x="510" y="198" type="curve" smooth="yes"/>
      <point x="510" y="77"/>
      <point x="476" y="17"/>
      <point x="398" y="17" type="curve" smooth="yes"/>
      <point x="367" y="17"/>
      <point x="348" y="20"/>
      <point x="328" y="28" type="curve"/>
      <point x="316" y="5" type="line"/>
      <point x="344" y="-7"/>
      <point x="370" y="-10"/>
    </contour>
    <contour>
      <point x="287" y="193" type="curve" smooth="yes"/>
      <point x="332" y="193"/>
      <point x="355" y="162"/>
      <point x="355" y="118" type="curve" smooth="yes"/>
      <point x="355" y="80"/>
      <point x="336" y="49"/>
      <point x="321" y="33" type="curve"/>
      <point x="316" y="5" type="line"/>
      <point x="336" y="15" type="line"/>
      <point x="360" y="36"/>
      <point x="382" y="74"/>
      <point x="382" y="120" type="curve" smooth="yes"/>
      <point x="382" y="187"/>
      <point x="338" y="218"/>
      <point x="287" y="218" type="curve" smooth="yes"/>
      <point x="230" y="218"/>
      <point x="193" y="175"/>
      <point x="193" y="120" type="curve" smooth="yes"/>
      <point x="193" y="73"/>
      <point x="217" y="35"/>
      <point x="241" y="15" type="curve"/>
      <point x="261" y="5" type="line"/>
      <point x="255" y="33" type="line"/>
      <point x="238" y="53"/>
      <point x="220" y="79"/>
      <point x="220" y="118" type="curve" smooth="yes"/>
      <point x="220" y="163"/>
      <point x="244" y="193"/>
    </contour>
  </outline>
</glyph>
<glyph name="nngasinh" format="2">
  <advance width="750"/>
  <unicode hex="0D9F"/>
  <outline>
    <contour>
      <point x="535" y="-6" type="curve" smooth="yes"/>
      <point x="653" y="-6"/>
      <point x="711" y="73"/>
      <point x="711" y="285" type="curve" smooth="yes"/>
      <point x="711" y="457"/>
      <point x="661" y="589"/>
      <point x="546" y="589" type="curve" smooth="yes"/>
      <point x="454" y="589"/>
      <point x="380" y="499"/>
      <point x="363" y="293" type="curve"/>
      <point x="384" y="288" type="line"/>
      <point x="390" y="291"/>
      <point x="399" y="293"/>
      <point x="408" y="293" type="curve" smooth="yes"/>
      <point x="439" y="293"/>
      <point x="462" y="266"/>
      <point x="462" y="196" type="curve" smooth="yes"/>
      <point x="462" y="98"/>
      <point x="429" y="17"/>
      <point x="330" y="17" type="curve" smooth="yes"/>
      <point x="222" y="17"/>
      <point x="185" y="133"/>
      <point x="185" y="268" type="curve" smooth="yes"/>
      <point x="185" y="447"/>
      <point x="283" y="528"/>
      <point x="369" y="528" type="curve" smooth="yes"/>
      <point x="377" y="528"/>
      <point x="384" y="528"/>
      <point x="391" y="528" type="curve"/>
      <point x="400" y="564" type="line"/>
      <point x="393" y="550" type="line"/>
      <point x="385" y="552"/>
      <point x="378" y="552"/>
      <point x="370" y="552" type="curve" smooth="yes"/>
      <point x="268" y="552"/>
      <point x="158" y="464"/>
      <point x="158" y="269" type="curve" smooth="yes"/>
      <point x="158" y="104"/>
      <point x="210" y="-10"/>
      <point x="330" y="-10" type="curve" smooth="yes"/>
      <point x="447" y="-10"/>
      <point x="489" y="87"/>
      <point x="489" y="193" type="curve" smooth="yes"/>
      <point x="489" y="271"/>
      <point x="460" y="318"/>
      <point x="409" y="318" type="curve" smooth="yes"/>
      <point x="396" y="318"/>
      <point x="387" y="315"/>
      <point x="379" y="311" type="curve"/>
      <point x="390" y="307" type="line"/>
      <point x="410" y="480"/>
      <point x="465" y="563"/>
      <point x="546" y="563" type="curve" smooth="yes"/>
      <point x="645" y="563"/>
      <point x="684" y="445"/>
      <point x="684" y="285" type="curve" smooth="yes"/>
      <point x="684" y="81"/>
      <point x="629" y="19"/>
      <point x="535" y="19" type="curve" smooth="yes"/>
      <point x="518" y="19"/>
      <point x="494" y="22"/>
      <point x="473" y="28" type="curve"/>
      <point x="467" y="2" type="line"/>
      <point x="488" y="-3"/>
      <point x="516" y="-6"/>
    </contour>
    <contour>
      <point x="42" y="319" type="curve" smooth="yes"/>
      <point x="42" y="206"/>
      <point x="74" y="121"/>
      <point x="114" y="34" type="curve"/>
      <point x="139" y="47" type="line"/>
      <point x="100" y="129"/>
      <point x="69" y="213"/>
      <point x="69" y="317" type="curve" smooth="yes"/>
      <point x="69" y="476"/>
      <point x="155" y="564"/>
      <point x="285" y="564" type="curve" smooth="yes"/>
      <point x="324" y="564"/>
      <point x="358" y="559"/>
      <point x="392" y="543" type="curve"/>
      <point x="400" y="564" type="line"/>
      <point x="362" y="582"/>
      <point x="322" y="589"/>
      <point x="283" y="589" type="curve" smooth="yes"/>
      <point x="149" y="589"/>
      <point x="42" y="500"/>
    </contour>
  </outline>
</glyph>
<glyph name="casinh" format="2">
  <advance width="568"/>
  <unicode hex="0DA0"/>
  <outline>
    <contour>
      <point x="248" y="-10" type="curve" smooth="yes"/>
      <point x="434" y="-10"/>
      <point x="529" y="142"/>
      <point x="529" y="405" type="curve" smooth="yes"/>
      <point x="529" y="715"/>
      <point x="397" y="804"/>
      <point x="261" y="804" type="curve" smooth="yes"/>
      <point x="168" y="804"/>
      <point x="109" y="778"/>
      <point x="40" y="736" type="curve"/>
      <point x="53" y="712" type="line"/>
      <point x="118" y="755"/>
      <point x="176" y="779"/>
      <point x="261" y="779" type="curve" smooth="yes"/>
      <point x="386" y="779"/>
      <point x="502" y="696"/>
      <point x="502" y="408" type="curve" smooth="yes"/>
      <point x="502" y="163"/>
      <point x="420" y="17"/>
      <point x="248" y="17" type="curve" smooth="yes"/>
      <point x="136" y="17"/>
      <point x="77" y="85"/>
      <point x="77" y="210" type="curve" smooth="yes"/>
      <point x="77" y="312"/>
      <point x="131" y="380"/>
      <point x="229" y="423" type="curve"/>
      <point x="191" y="417" type="line"/>
      <point x="305" y="417" type="line"/>
      <point x="305" y="424" type="line" smooth="yes"/>
      <point x="305" y="521"/>
      <point x="261" y="589"/>
      <point x="187" y="589" type="curve" smooth="yes"/>
      <point x="133" y="589"/>
      <point x="99" y="547"/>
      <point x="99" y="495" type="curve" smooth="yes"/>
      <point x="99" y="483"/>
      <point x="101" y="466"/>
      <point x="104" y="454" type="curve"/>
      <point x="130" y="457" type="line"/>
      <point x="128" y="466"/>
      <point x="126" y="483"/>
      <point x="126" y="494" type="curve" smooth="yes"/>
      <point x="126" y="535"/>
      <point x="148" y="564"/>
      <point x="187" y="564" type="curve" smooth="yes"/>
      <point x="243" y="564"/>
      <point x="271" y="516"/>
      <point x="279" y="442" type="curve"/>
      <point x="24" y="442" type="line"/>
      <point x="24" y="417" type="line"/>
      <point x="76" y="417" type="line" smooth="yes"/>
      <point x="106" y="417"/>
      <point x="148" y="417"/>
      <point x="186" y="420" type="curve"/>
      <point x="185" y="424" type="line"/>
      <point x="100" y="381"/>
      <point x="50" y="309"/>
      <point x="50" y="210" type="curve" smooth="yes"/>
      <point x="50" y="67"/>
      <point x="124" y="-10"/>
    </contour>
  </outline>
</glyph>
<glyph name="chasinh" format="2">
  <advance width="557"/>
  <unicode hex="0DA1"/>
  <outline>
    <contour>
      <point x="277" y="-10" type="curve" smooth="yes"/>
      <point x="436" y="-10"/>
      <point x="517" y="90"/>
      <point x="517" y="238" type="curve" smooth="yes"/>
      <point x="517" y="361"/>
      <point x="429" y="442"/>
      <point x="302" y="442" type="curve" smooth="yes"/>
      <point x="300" y="442" type="line"/>
      <point x="317" y="427" type="line"/>
      <point x="323" y="513"/>
      <point x="362" y="564"/>
      <point x="415" y="564" type="curve" smooth="yes"/>
      <point x="465" y="564"/>
      <point x="486" y="521"/>
      <point x="486" y="446" type="curve" smooth="yes"/>
      <point x="486" y="335"/>
      <point x="443" y="278"/>
      <point x="390" y="278" type="curve" smooth="yes"/>
      <point x="341" y="278"/>
      <point x="317" y="311"/>
      <point x="317" y="419" type="curve"/>
      <point x="311" y="440" type="line"/>
      <point x="327" y="517" type="line"/>
      <point x="361" y="619"/>
      <point x="430" y="701"/>
      <point x="524" y="757" type="curve"/>
      <point x="510" y="780" type="line"/>
      <point x="416" y="722"/>
      <point x="293" y="607"/>
      <point x="293" y="402" type="curve" smooth="yes"/>
      <point x="293" y="298"/>
      <point x="330" y="253"/>
      <point x="388" y="253" type="curve" smooth="yes"/>
      <point x="460" y="253"/>
      <point x="512" y="332"/>
      <point x="512" y="446" type="curve" smooth="yes"/>
      <point x="512" y="542"/>
      <point x="475" y="589"/>
      <point x="419" y="589" type="curve" smooth="yes"/>
      <point x="357" y="589"/>
      <point x="304" y="522"/>
      <point x="298" y="426" type="curve"/>
      <point x="298" y="417" type="line"/>
      <point x="301" y="417" type="line" smooth="yes"/>
      <point x="413" y="417"/>
      <point x="490" y="358"/>
      <point x="490" y="237" type="curve" smooth="yes"/>
      <point x="490" y="107"/>
      <point x="421" y="17"/>
      <point x="277" y="17" type="curve" smooth="yes"/>
      <point x="136" y="17"/>
      <point x="67" y="107"/>
      <point x="67" y="237" type="curve" smooth="yes"/>
      <point x="67" y="358"/>
      <point x="144" y="417"/>
      <point x="256" y="417" type="curve" smooth="yes"/>
      <point x="263" y="417" type="line"/>
      <point x="263" y="424" type="line" smooth="yes"/>
      <point x="263" y="521"/>
      <point x="219" y="589"/>
      <point x="145" y="589" type="curve" smooth="yes"/>
      <point x="91" y="589"/>
      <point x="57" y="547"/>
      <point x="57" y="495" type="curve" smooth="yes"/>
      <point x="57" y="466"/>
      <point x="64" y="445"/>
      <point x="74" y="421" type="curve"/>
      <point x="99" y="429" type="line"/>
      <point x="89" y="449"/>
      <point x="84" y="470"/>
      <point x="84" y="494" type="curve" smooth="yes"/>
      <point x="84" y="535"/>
      <point x="106" y="564"/>
      <point x="145" y="564" type="curve" smooth="yes"/>
      <point x="201" y="564"/>
      <point x="230" y="515"/>
      <point x="237" y="440" type="curve"/>
      <point x="261" y="442" type="line"/>
      <point x="258" y="442" type="line" smooth="yes"/>
      <point x="120" y="442"/>
      <point x="40" y="363"/>
      <point x="40" y="237" type="curve" smooth="yes"/>
      <point x="40" y="86"/>
      <point x="125" y="-10"/>
    </contour>
  </outline>
</glyph>
<glyph name="jasinh" format="2">
  <advance width="557"/>
  <unicode hex="0DA2"/>
  <outline>
    <contour>
      <point x="277" y="-10" type="curve" smooth="yes"/>
      <point x="436" y="-10"/>
      <point x="517" y="90"/>
      <point x="517" y="238" type="curve" smooth="yes"/>
      <point x="517" y="363"/>
      <point x="429" y="442"/>
      <point x="302" y="442" type="curve" smooth="yes"/>
      <point x="300" y="442" type="line"/>
      <point x="322" y="438" type="line"/>
      <point x="329" y="507"/>
      <point x="356" y="564"/>
      <point x="419" y="564" type="curve" smooth="yes"/>
      <point x="461" y="564"/>
      <point x="481" y="536"/>
      <point x="481" y="489" type="curve" smooth="yes"/>
      <point x="481" y="436"/>
      <point x="456" y="422"/>
      <point x="435" y="422" type="curve" smooth="yes"/>
      <point x="401" y="422"/>
      <point x="389" y="456"/>
      <point x="389" y="512" type="curve" smooth="yes"/>
      <point x="389" y="627"/>
      <point x="438" y="707"/>
      <point x="524" y="757" type="curve"/>
      <point x="510" y="780" type="line"/>
      <point x="416" y="722"/>
      <point x="364" y="630"/>
      <point x="364" y="517" type="curve" smooth="yes"/>
      <point x="364" y="504" type="line" smooth="yes"/>
      <point x="364" y="435"/>
      <point x="398" y="400"/>
      <point x="433" y="400" type="curve" smooth="yes"/>
      <point x="485" y="400"/>
      <point x="508" y="431"/>
      <point x="508" y="490" type="curve" smooth="yes"/>
      <point x="508" y="550"/>
      <point x="473" y="589"/>
      <point x="420" y="589" type="curve" smooth="yes"/>
      <point x="342" y="589"/>
      <point x="296" y="515"/>
      <point x="296" y="424" type="curve" smooth="yes"/>
      <point x="296" y="417" type="line"/>
      <point x="301" y="417" type="line" smooth="yes"/>
      <point x="413" y="417"/>
      <point x="490" y="358"/>
      <point x="490" y="237" type="curve" smooth="yes"/>
      <point x="490" y="107"/>
      <point x="421" y="17"/>
      <point x="277" y="17" type="curve" smooth="yes"/>
      <point x="136" y="17"/>
      <point x="67" y="107"/>
      <point x="67" y="237" type="curve" smooth="yes"/>
      <point x="67" y="358"/>
      <point x="144" y="417"/>
      <point x="256" y="417" type="curve" smooth="yes"/>
      <point x="263" y="417" type="line"/>
      <point x="263" y="424" type="line" smooth="yes"/>
      <point x="263" y="521"/>
      <point x="219" y="589"/>
      <point x="145" y="589" type="curve" smooth="yes"/>
      <point x="91" y="589"/>
      <point x="57" y="547"/>
      <point x="57" y="495" type="curve" smooth="yes"/>
      <point x="57" y="466"/>
      <point x="64" y="445"/>
      <point x="74" y="421" type="curve"/>
      <point x="99" y="429" type="line"/>
      <point x="89" y="449"/>
      <point x="84" y="470"/>
      <point x="84" y="494" type="curve" smooth="yes"/>
      <point x="84" y="535"/>
      <point x="106" y="564"/>
      <point x="145" y="564" type="curve" smooth="yes"/>
      <point x="201" y="564"/>
      <point x="230" y="515"/>
      <point x="237" y="440" type="curve"/>
      <point x="261" y="442" type="line"/>
      <point x="258" y="442" type="line" smooth="yes"/>
      <point x="120" y="442"/>
      <point x="40" y="363"/>
      <point x="40" y="237" type="curve" smooth="yes"/>
      <point x="40" y="86"/>
      <point x="125" y="-10"/>
    </contour>
  </outline>
</glyph>
<glyph name="jhasinh" format="2">
  <advance width="1013"/>
  <unicode hex="0DA3"/>
  <outline>
    <contour>
      <point x="378" y="-10" type="curve" smooth="yes"/>
      <point x="444" y="-10"/>
      <point x="479" y="35"/>
      <point x="479" y="188" type="curve" smooth="yes"/>
      <point x="479" y="347"/>
      <point x="417" y="442"/>
      <point x="279" y="442" type="curve" smooth="yes"/>
      <point x="257" y="442"/>
      <point x="226" y="436"/>
      <point x="208" y="431" type="curve"/>
      <point x="195" y="406" type="line"/>
      <point x="218" y="414"/>
      <point x="240" y="417"/>
      <point x="277" y="417" type="curve" smooth="yes"/>
      <point x="413" y="417"/>
      <point x="459" y="315"/>
      <point x="459" y="189" type="curve" smooth="yes"/>
      <point x="459" y="54"/>
      <point x="428" y="17"/>
      <point x="378" y="17" type="curve" smooth="yes"/>
      <point x="326" y="17"/>
      <point x="294" y="53"/>
      <point x="287" y="159" type="curve"/>
      <point x="263" y="159" type="line"/>
      <point x="256" y="68"/>
      <point x="235" y="17"/>
      <point x="180" y="17" type="curve" smooth="yes"/>
      <point x="133" y="17"/>
      <point x="107" y="51"/>
      <point x="107" y="142" type="curve" smooth="yes"/>
      <point x="107" y="160"/>
      <point x="109" y="177"/>
      <point x="111" y="189" type="curve"/>
      <point x="54" y="193" type="line"/>
      <point x="46" y="190" type="line"/>
      <point x="41" y="169" type="line"/>
      <point x="98" y="165" type="line"/>
      <point x="88" y="190" type="line"/>
      <point x="85" y="180"/>
      <point x="81" y="162"/>
      <point x="81" y="142" type="curve" smooth="yes"/>
      <point x="81" y="58"/>
      <point x="103" y="-10"/>
      <point x="180" y="-10" type="curve" smooth="yes"/>
      <point x="232" y="-10"/>
      <point x="261" y="29"/>
      <point x="275" y="99" type="curve"/>
      <point x="286" y="31"/>
      <point x="317" y="-10"/>
    </contour>
    <contour>
      <point x="468" y="589" type="curve" smooth="yes"/>
      <point x="322" y="589"/>
      <point x="216" y="480"/>
      <point x="19" y="184" type="curve"/>
      <point x="41" y="169" type="line"/>
      <point x="110" y="276"/>
      <point x="173" y="362"/>
      <point x="223" y="419" type="curve"/>
      <point x="231" y="431" type="line"/>
      <point x="302" y="507"/>
      <point x="364" y="564"/>
      <point x="468" y="564" type="curve" smooth="yes"/>
      <point x="547" y="564"/>
      <point x="602" y="541"/>
      <point x="685" y="490" type="curve"/>
      <point x="711" y="497" type="line"/>
      <point x="637" y="551"/>
      <point x="563" y="589"/>
    </contour>
    <contour>
      <point x="118" y="571" type="curve" smooth="yes"/>
      <point x="72" y="571"/>
      <point x="38" y="530"/>
      <point x="38" y="470" type="curve" smooth="yes"/>
      <point x="38" y="435"/>
      <point x="48" y="395"/>
      <point x="57" y="373" type="curve"/>
      <point x="83" y="381" type="line"/>
      <point x="73" y="404"/>
      <point x="65" y="435"/>
      <point x="65" y="469" type="curve" smooth="yes"/>
      <point x="65" y="513"/>
      <point x="84" y="546"/>
      <point x="119" y="546" type="curve" smooth="yes"/>
      <point x="160" y="546"/>
      <point x="187" y="507"/>
      <point x="205" y="419" type="curve"/>
      <point x="225" y="436" type="line"/>
      <point x="209" y="519"/>
      <point x="176" y="571"/>
    </contour>
    <contour>
      <point x="822" y="-10" type="curve" smooth="yes"/>
      <point x="923" y="-10"/>
      <point x="971" y="87"/>
      <point x="971" y="346" type="curve" smooth="yes"/>
      <point x="971" y="610"/>
      <point x="890" y="804"/>
      <point x="684" y="804" type="curve" smooth="yes"/>
      <point x="611" y="804"/>
      <point x="539" y="782"/>
      <point x="465" y="738" type="curve"/>
      <point x="479" y="715" type="line"/>
      <point x="550" y="760"/>
      <point x="621" y="779"/>
      <point x="685" y="779" type="curve" smooth="yes"/>
      <point x="874" y="779"/>
      <point x="944" y="595"/>
      <point x="944" y="348" type="curve" smooth="yes"/>
      <point x="944" y="102"/>
      <point x="904" y="17"/>
      <point x="824" y="17" type="curve" smooth="yes"/>
      <point x="756" y="17"/>
      <point x="729" y="69"/>
      <point x="717" y="169" type="curve"/>
      <point x="693" y="169" type="line"/>
      <point x="676" y="78"/>
      <point x="660" y="17"/>
      <point x="586" y="17" type="curve" smooth="yes"/>
      <point x="519" y="17"/>
      <point x="484" y="87"/>
      <point x="484" y="224" type="curve" smooth="yes"/>
      <point x="484" y="394"/>
      <point x="563" y="479"/>
      <point x="665" y="479" type="curve" smooth="yes"/>
      <point x="680" y="479"/>
      <point x="693" y="478"/>
      <point x="702" y="476" type="curve"/>
      <point x="711" y="497" type="line"/>
      <point x="699" y="500"/>
      <point x="683" y="502"/>
      <point x="665" y="502" type="curve" smooth="yes"/>
      <point x="551" y="502"/>
      <point x="463" y="423"/>
      <point x="463" y="224" type="curve" smooth="yes"/>
      <point x="463" y="53"/>
      <point x="513" y="-10"/>
      <point x="586" y="-10" type="curve" smooth="yes"/>
      <point x="659" y="-10"/>
      <point x="690" y="41"/>
      <point x="704" y="118" type="curve"/>
      <point x="715" y="40"/>
      <point x="757" y="-10"/>
    </contour>
  </outline>
</glyph>
<glyph name="ttasinh" format="2">
  <advance width="562"/>
  <unicode hex="0DA7"/>
  <outline>
    <contour>
      <point x="252" y="-10" type="curve" smooth="yes"/>
      <point x="433" y="-10"/>
      <point x="523" y="133"/>
      <point x="523" y="405" type="curve" smooth="yes"/>
      <point x="523" y="715"/>
      <point x="391" y="804"/>
      <point x="257" y="804" type="curve" smooth="yes"/>
      <point x="168" y="804"/>
      <point x="109" y="778"/>
      <point x="40" y="736" type="curve"/>
      <point x="53" y="712" type="line"/>
      <point x="118" y="755"/>
      <point x="176" y="779"/>
      <point x="259" y="779" type="curve" smooth="yes"/>
      <point x="380" y="779"/>
      <point x="496" y="696"/>
      <point x="496" y="408" type="curve" smooth="yes"/>
      <point x="496" y="147"/>
      <point x="413" y="17"/>
      <point x="252" y="17" type="curve" smooth="yes"/>
      <point x="135" y="17"/>
      <point x="66" y="97"/>
      <point x="66" y="250" type="curve" smooth="yes"/>
      <point x="66" y="392"/>
      <point x="142" y="479"/>
      <point x="256" y="479" type="curve" smooth="yes"/>
      <point x="272" y="479"/>
      <point x="289" y="478"/>
      <point x="306" y="473" type="curve"/>
      <point x="310" y="498" type="line"/>
      <point x="294" y="502"/>
      <point x="273" y="504"/>
      <point x="256" y="504" type="curve" smooth="yes"/>
      <point x="133" y="504"/>
      <point x="39" y="410"/>
      <point x="39" y="250" type="curve" smooth="yes"/>
      <point x="39" y="85"/>
      <point x="117" y="-10"/>
    </contour>
  </outline>
</glyph>
<glyph name="tthasinh" format="2">
  <advance width="595"/>
  <unicode hex="0DA8"/>
  <outline>
    <contour>
      <point x="404" y="-10" type="curve" smooth="yes"/>
      <point x="505" y="-10"/>
      <point x="553" y="78"/>
      <point x="553" y="306" type="curve" smooth="yes"/>
      <point x="553" y="634"/>
      <point x="395" y="782"/>
      <point x="195" y="812" type="curve"/>
      <point x="192" y="787" type="line"/>
      <point x="375" y="761"/>
      <point x="526" y="627"/>
      <point x="526" y="307" type="curve" smooth="yes"/>
      <point x="526" y="102"/>
      <point x="486" y="17"/>
      <point x="406" y="17" type="curve" smooth="yes"/>
      <point x="338" y="17"/>
      <point x="311" y="69"/>
      <point x="299" y="169" type="curve"/>
      <point x="275" y="169" type="line"/>
      <point x="258" y="78"/>
      <point x="242" y="17"/>
      <point x="168" y="17" type="curve" smooth="yes"/>
      <point x="101" y="17"/>
      <point x="66" y="87"/>
      <point x="66" y="224" type="curve" smooth="yes"/>
      <point x="66" y="394"/>
      <point x="145" y="479"/>
      <point x="247" y="479" type="curve" smooth="yes"/>
      <point x="262" y="479"/>
      <point x="275" y="478"/>
      <point x="288" y="475" type="curve"/>
      <point x="292" y="499" type="line"/>
      <point x="280" y="502"/>
      <point x="265" y="504"/>
      <point x="247" y="504" type="curve" smooth="yes"/>
      <point x="136" y="504"/>
      <point x="39" y="417"/>
      <point x="39" y="224" type="curve" smooth="yes"/>
      <point x="39" y="56"/>
      <point x="93" y="-10"/>
      <point x="168" y="-10" type="curve" smooth="yes"/>
      <point x="241" y="-10"/>
      <point x="272" y="41"/>
      <point x="286" y="118" type="curve"/>
      <point x="297" y="40"/>
      <point x="339" y="-10"/>
    </contour>
    <contour>
      <point x="344" y="582" type="curve" smooth="yes"/>
      <point x="392" y="582"/>
      <point x="422" y="616"/>
      <point x="441" y="679" type="curve"/>
      <point x="418" y="692" type="line"/>
      <point x="402" y="637"/>
      <point x="381" y="608"/>
      <point x="346" y="608" type="curve" smooth="yes"/>
      <point x="306" y="608"/>
      <point x="285" y="631"/>
      <point x="274" y="692" type="curve" smooth="yes"/>
      <point x="262" y="760"/>
      <point x="249" y="779"/>
      <point x="221" y="798" type="curve"/>
      <point x="200" y="788" type="line"/>
      <point x="220" y="782"/>
      <point x="233" y="767"/>
      <point x="248" y="689" type="curve" smooth="yes"/>
      <point x="261" y="620"/>
      <point x="287" y="582"/>
    </contour>
  </outline>
</glyph>
<glyph name="ddasinh" format="2">
  <advance width="597"/>
  <unicode hex="0DA9"/>
  <outline>
    <contour>
      <point x="406" y="-10" type="curve" smooth="yes"/>
      <point x="507" y="-10"/>
      <point x="555" y="87"/>
      <point x="555" y="346" type="curve" smooth="yes"/>
      <point x="555" y="610"/>
      <point x="474" y="804"/>
      <point x="268" y="804" type="curve" smooth="yes"/>
      <point x="195" y="804"/>
      <point x="123" y="782"/>
      <point x="49" y="738" type="curve"/>
      <point x="63" y="715" type="line"/>
      <point x="134" y="760"/>
      <point x="205" y="779"/>
      <point x="269" y="779" type="curve" smooth="yes"/>
      <point x="458" y="779"/>
      <point x="528" y="595"/>
      <point x="528" y="348" type="curve" smooth="yes"/>
      <point x="528" y="102"/>
      <point x="488" y="17"/>
      <point x="408" y="17" type="curve" smooth="yes"/>
      <point x="340" y="17"/>
      <point x="313" y="69"/>
      <point x="301" y="169" type="curve"/>
      <point x="277" y="169" type="line"/>
      <point x="260" y="78"/>
      <point x="244" y="17"/>
      <point x="170" y="17" type="curve" smooth="yes"/>
      <point x="103" y="17"/>
      <point x="70" y="88"/>
      <point x="70" y="184" type="curve" smooth="yes"/>
      <point x="70" y="314"/>
      <point x="139" y="397"/>
      <point x="253" y="425" type="curve"/>
      <point x="212" y="417" type="line"/>
      <point x="287" y="417" type="line"/>
      <point x="287" y="424" type="line" smooth="yes"/>
      <point x="287" y="521"/>
      <point x="243" y="589"/>
      <point x="169" y="589" type="curve" smooth="yes"/>
      <point x="115" y="589"/>
      <point x="81" y="547"/>
      <point x="81" y="495" type="curve" smooth="yes"/>
      <point x="81" y="483"/>
      <point x="83" y="466"/>
      <point x="86" y="454" type="curve"/>
      <point x="112" y="457" type="line"/>
      <point x="110" y="466"/>
      <point x="108" y="483"/>
      <point x="108" y="494" type="curve" smooth="yes"/>
      <point x="108" y="535"/>
      <point x="130" y="564"/>
      <point x="169" y="564" type="curve" smooth="yes"/>
      <point x="225" y="564"/>
      <point x="253" y="516"/>
      <point x="261" y="442" type="curve"/>
      <point x="27" y="442" type="line"/>
      <point x="27" y="417" type="line"/>
      <point x="104" y="417" type="line" smooth="yes"/>
      <point x="144" y="417"/>
      <point x="169" y="418"/>
      <point x="208" y="423" type="curve"/>
      <point x="204" y="428" type="line"/>
      <point x="110" y="398"/>
      <point x="43" y="318"/>
      <point x="43" y="182" type="curve" smooth="yes"/>
      <point x="43" y="60"/>
      <point x="95" y="-10"/>
      <point x="170" y="-10" type="curve" smooth="yes"/>
      <point x="243" y="-10"/>
      <point x="274" y="41"/>
      <point x="288" y="118" type="curve"/>
      <point x="299" y="40"/>
      <point x="341" y="-10"/>
    </contour>
  </outline>
</glyph>
<glyph name="ddhasinh" format="2">
  <advance width="597"/>
  <unicode hex="0DAA"/>
  <outline>
    <contour>
      <point x="406" y="-10" type="curve" smooth="yes"/>
      <point x="507" y="-10"/>
      <point x="555" y="78"/>
      <point x="555" y="306" type="curve" smooth="yes"/>
      <point x="555" y="634"/>
      <point x="397" y="782"/>
      <point x="197" y="812" type="curve"/>
      <point x="194" y="787" type="line"/>
      <point x="377" y="761"/>
      <point x="528" y="627"/>
      <point x="528" y="307" type="curve" smooth="yes"/>
      <point x="528" y="102"/>
      <point x="488" y="17"/>
      <point x="408" y="17" type="curve" smooth="yes"/>
      <point x="340" y="17"/>
      <point x="313" y="69"/>
      <point x="301" y="169" type="curve"/>
      <point x="277" y="169" type="line"/>
      <point x="260" y="78"/>
      <point x="244" y="17"/>
      <point x="170" y="17" type="curve" smooth="yes"/>
      <point x="103" y="17"/>
      <point x="70" y="88"/>
      <point x="70" y="184" type="curve" smooth="yes"/>
      <point x="70" y="314"/>
      <point x="139" y="397"/>
      <point x="253" y="425" type="curve"/>
      <point x="212" y="417" type="line"/>
      <point x="287" y="417" type="line"/>
      <point x="287" y="424" type="line" smooth="yes"/>
      <point x="287" y="521"/>
      <point x="243" y="589"/>
      <point x="169" y="589" type="curve" smooth="yes"/>
      <point x="115" y="589"/>
      <point x="81" y="547"/>
      <point x="81" y="495" type="curve" smooth="yes"/>
      <point x="81" y="483"/>
      <point x="83" y="466"/>
      <point x="86" y="454" type="curve"/>
      <point x="112" y="457" type="line"/>
      <point x="110" y="466"/>
      <point x="108" y="483"/>
      <point x="108" y="494" type="curve" smooth="yes"/>
      <point x="108" y="535"/>
      <point x="130" y="564"/>
      <point x="169" y="564" type="curve" smooth="yes"/>
      <point x="225" y="564"/>
      <point x="253" y="516"/>
      <point x="261" y="442" type="curve"/>
      <point x="27" y="442" type="line"/>
      <point x="27" y="417" type="line"/>
      <point x="104" y="417" type="line" smooth="yes"/>
      <point x="144" y="417"/>
      <point x="169" y="418"/>
      <point x="208" y="423" type="curve"/>
      <point x="204" y="428" type="line"/>
      <point x="110" y="398"/>
      <point x="43" y="318"/>
      <point x="43" y="182" type="curve" smooth="yes"/>
      <point x="43" y="60"/>
      <point x="95" y="-10"/>
      <point x="170" y="-10" type="curve" smooth="yes"/>
      <point x="243" y="-10"/>
      <point x="274" y="41"/>
      <point x="288" y="118" type="curve"/>
      <point x="299" y="40"/>
      <point x="341" y="-10"/>
    </contour>
    <contour>
      <point x="346" y="582" type="curve" smooth="yes"/>
      <point x="394" y="582"/>
      <point x="424" y="616"/>
      <point x="443" y="679" type="curve"/>
      <point x="420" y="692" type="line"/>
      <point x="404" y="637"/>
      <point x="383" y="608"/>
      <point x="348" y="608" type="curve" smooth="yes"/>
      <point x="308" y="608"/>
      <point x="287" y="631"/>
      <point x="276" y="692" type="curve" smooth="yes"/>
      <point x="264" y="760"/>
      <point x="251" y="779"/>
      <point x="223" y="798" type="curve"/>
      <point x="202" y="788" type="line"/>
      <point x="222" y="782"/>
      <point x="235" y="767"/>
      <point x="250" y="689" type="curve" smooth="yes"/>
      <point x="263" y="620"/>
      <point x="289" y="582"/>
    </contour>
  </outline>
</glyph>
<glyph name="nnasinh" format="2">
  <advance width="813"/>
  <unicode hex="0DAB"/>
  <outline>
    <contour>
      <point x="24" y="121" type="line"/>
      <point x="41" y="144" type="line"/>
      <point x="217" y="350"/>
      <point x="416" y="579"/>
      <point x="648" y="837" type="curve"/>
      <point x="629" y="856" type="line"/>
      <point x="405" y="601"/>
      <point x="186" y="350"/>
      <point x="3" y="137" type="curve"/>
    </contour>
    <contour>
      <point x="252" y="170" type="curve" smooth="yes"/>
      <point x="323" y="170"/>
      <point x="363" y="206"/>
      <point x="363" y="279" type="curve" smooth="yes"/>
      <point x="363" y="334"/>
      <point x="334" y="376"/>
      <point x="287" y="376" type="curve" smooth="yes"/>
      <point x="243" y="376"/>
      <point x="208" y="338"/>
      <point x="208" y="280" type="curve" smooth="yes"/>
      <point x="208" y="238"/>
      <point x="227" y="203"/>
      <point x="262" y="191" type="curve"/>
      <point x="262" y="193" type="line"/>
      <point x="167" y="193"/>
      <point x="99" y="258"/>
      <point x="99" y="382" type="curve" smooth="yes"/>
      <point x="99" y="488"/>
      <point x="162" y="564"/>
      <point x="262" y="564" type="curve" smooth="yes"/>
      <point x="384" y="564"/>
      <point x="458" y="451"/>
      <point x="458" y="295" type="curve" smooth="yes"/>
      <point x="458" y="110"/>
      <point x="392" y="17"/>
      <point x="272" y="17" type="curve" smooth="yes"/>
      <point x="166" y="17"/>
      <point x="106" y="81"/>
      <point x="57" y="174" type="curve"/>
      <point x="39" y="161" type="line"/>
      <point x="24" y="121" type="line"/>
      <point x="44" y="145" type="line"/>
      <point x="91" y="57"/>
      <point x="156" y="-10"/>
      <point x="274" y="-10" type="curve" smooth="yes"/>
      <point x="406" y="-10"/>
      <point x="485" y="93"/>
      <point x="485" y="294" type="curve" smooth="yes"/>
      <point x="485" y="437"/>
      <point x="411" y="589"/>
      <point x="262" y="589" type="curve" smooth="yes"/>
      <point x="151" y="589"/>
      <point x="72" y="504"/>
      <point x="72" y="382" type="curve" smooth="yes"/>
      <point x="72" y="257"/>
      <point x="143" y="170"/>
    </contour>
    <contour>
      <point x="235" y="280" type="curve" smooth="yes"/>
      <point x="235" y="319"/>
      <point x="253" y="351"/>
      <point x="287" y="351" type="curve" smooth="yes"/>
      <point x="318" y="351"/>
      <point x="336" y="324"/>
      <point x="336" y="276" type="curve" smooth="yes"/>
      <point x="336" y="227"/>
      <point x="314" y="206"/>
      <point x="285" y="206" type="curve" smooth="yes"/>
      <point x="255" y="206"/>
      <point x="235" y="232"/>
    </contour>
    <contour>
      <point x="462" y="341" type="curve"/>
      <point x="482" y="339" type="line"/>
      <point x="484" y="410"/>
      <point x="497" y="459"/>
      <point x="530" y="459" type="curve" smooth="yes"/>
      <point x="562" y="459"/>
      <point x="572" y="418"/>
      <point x="574" y="335" type="curve"/>
      <point x="598" y="335" type="line"/>
      <point x="599" y="430"/>
      <point x="619" y="479"/>
      <point x="662" y="479" type="curve" smooth="yes"/>
      <point x="711" y="479"/>
      <point x="744" y="415"/>
      <point x="744" y="248" type="curve" smooth="yes"/>
      <point x="744" y="70"/>
      <point x="711" y="15"/>
      <point x="655" y="15" type="curve" smooth="yes"/>
      <point x="612" y="15"/>
      <point x="586" y="45"/>
      <point x="558" y="125" type="curve"/>
      <point x="534" y="114" type="line"/>
      <point x="563" y="30"/>
      <point x="596" y="-10"/>
      <point x="655" y="-10" type="curve" smooth="yes"/>
      <point x="728" y="-10"/>
      <point x="771" y="47"/>
      <point x="771" y="247" type="curve" smooth="yes"/>
      <point x="771" y="435"/>
      <point x="724" y="504"/>
      <point x="663" y="504" type="curve" smooth="yes"/>
      <point x="627" y="504"/>
      <point x="595" y="479"/>
      <point x="585" y="409" type="curve"/>
      <point x="581" y="464"/>
      <point x="557" y="484"/>
      <point x="531" y="484" type="curve" smooth="yes"/>
      <point x="488" y="484"/>
      <point x="467" y="440"/>
    </contour>
  </outline>
</glyph>
<glyph name="nnddasinh" format="2">
  <advance width="703"/>
  <unicode hex="0DAC"/>
  <outline>
    <contour>
      <point x="512" y="-10" type="curve" smooth="yes"/>
      <point x="613" y="-10"/>
      <point x="661" y="87"/>
      <point x="661" y="346" type="curve" smooth="yes"/>
      <point x="661" y="610"/>
      <point x="580" y="804"/>
      <point x="374" y="804" type="curve" smooth="yes"/>
      <point x="301" y="804"/>
      <point x="229" y="782"/>
      <point x="155" y="738" type="curve"/>
      <point x="169" y="715" type="line"/>
      <point x="240" y="760"/>
      <point x="311" y="779"/>
      <point x="375" y="779" type="curve" smooth="yes"/>
      <point x="564" y="779"/>
      <point x="634" y="595"/>
      <point x="634" y="348" type="curve" smooth="yes"/>
      <point x="634" y="102"/>
      <point x="594" y="17"/>
      <point x="514" y="17" type="curve" smooth="yes"/>
      <point x="446" y="17"/>
      <point x="419" y="69"/>
      <point x="407" y="169" type="curve"/>
      <point x="383" y="169" type="line"/>
      <point x="366" y="78"/>
      <point x="350" y="17"/>
      <point x="276" y="17" type="curve" smooth="yes"/>
      <point x="209" y="17"/>
      <point x="176" y="88"/>
      <point x="176" y="184" type="curve" smooth="yes"/>
      <point x="176" y="314"/>
      <point x="245" y="397"/>
      <point x="359" y="425" type="curve"/>
      <point x="318" y="417" type="line"/>
      <point x="393" y="417" type="line"/>
      <point x="393" y="424" type="line" smooth="yes"/>
      <point x="393" y="521"/>
      <point x="349" y="589"/>
      <point x="275" y="589" type="curve" smooth="yes"/>
      <point x="224" y="589"/>
      <point x="187" y="545"/>
      <point x="187" y="495" type="curve" smooth="yes"/>
      <point x="187" y="483"/>
      <point x="189" y="466"/>
      <point x="192" y="454" type="curve"/>
      <point x="218" y="457" type="line"/>
      <point x="216" y="466"/>
      <point x="214" y="483"/>
      <point x="214" y="494" type="curve" smooth="yes"/>
      <point x="214" y="535"/>
      <point x="236" y="564"/>
      <point x="275" y="564" type="curve" smooth="yes"/>
      <point x="331" y="564"/>
      <point x="359" y="516"/>
      <point x="367" y="442" type="curve"/>
      <point x="133" y="442" type="line"/>
      <point x="133" y="417" type="line"/>
      <point x="210" y="417" type="line" smooth="yes"/>
      <point x="250" y="417"/>
      <point x="275" y="418"/>
      <point x="314" y="423" type="curve"/>
      <point x="310" y="428" type="line"/>
      <point x="216" y="398"/>
      <point x="149" y="318"/>
      <point x="149" y="182" type="curve" smooth="yes"/>
      <point x="149" y="60"/>
      <point x="201" y="-10"/>
      <point x="276" y="-10" type="curve" smooth="yes"/>
      <point x="349" y="-10"/>
      <point x="380" y="41"/>
      <point x="394" y="118" type="curve"/>
      <point x="405" y="40"/>
      <point x="447" y="-10"/>
    </contour>
    <contour>
      <point x="40" y="332" type="curve" smooth="yes"/>
      <point x="40" y="216"/>
      <point x="76" y="137"/>
      <point x="120" y="75" type="curve"/>
      <point x="142" y="90" type="line"/>
      <point x="101" y="146"/>
      <point x="67" y="225"/>
      <point x="67" y="331" type="curve" smooth="yes"/>
      <point x="67" y="480"/>
      <point x="144" y="566"/>
      <point x="241" y="566" type="curve" smooth="yes"/>
      <point x="245" y="566"/>
      <point x="250" y="566"/>
      <point x="255" y="565" type="curve"/>
      <point x="274" y="584" type="line"/>
      <point x="262" y="587"/>
      <point x="251" y="589"/>
      <point x="241" y="589" type="curve" smooth="yes"/>
      <point x="129" y="589"/>
      <point x="40" y="493"/>
    </contour>
  </outline>
</glyph>
<glyph name="tasinh" format="2">
  <advance width="682"/>
  <unicode hex="0DAD"/>
  <outline>
    <contour>
      <point x="248" y="-10" type="curve" smooth="yes"/>
      <point x="395" y="-10"/>
      <point x="425" y="123"/>
      <point x="425" y="224" type="curve" smooth="yes"/>
      <point x="425" y="308"/>
      <point x="386" y="442"/>
      <point x="229" y="442" type="curve" smooth="yes"/>
      <point x="226" y="442"/>
      <point x="220" y="441"/>
      <point x="210" y="438" type="curve"/>
      <point x="194" y="414" type="line"/>
      <point x="205" y="416"/>
      <point x="216" y="417"/>
      <point x="227" y="417" type="curve" smooth="yes"/>
      <point x="369" y="417"/>
      <point x="398" y="302"/>
      <point x="398" y="224" type="curve" smooth="yes"/>
      <point x="398" y="125"/>
      <point x="370" y="17"/>
      <point x="248" y="17" type="curve" smooth="yes"/>
      <point x="157" y="17"/>
      <point x="104" y="65"/>
      <point x="104" y="152" type="curve" smooth="yes"/>
      <point x="104" y="173"/>
      <point x="105" y="182"/>
      <point x="107" y="192" type="curve"/>
      <point x="51" y="197" type="line"/>
      <point x="38" y="172" type="line"/>
      <point x="90" y="167" type="line"/>
      <point x="83" y="187" type="line"/>
      <point x="80" y="179"/>
      <point x="78" y="169"/>
      <point x="78" y="152" type="curve" smooth="yes"/>
      <point x="78" y="41"/>
      <point x="153" y="-10"/>
    </contour>
    <contour>
      <point x="487" y="-6" type="curve" smooth="yes"/>
      <point x="604" y="-6"/>
      <point x="642" y="112"/>
      <point x="642" y="263" type="curve" smooth="yes"/>
      <point x="642" y="452"/>
      <point x="572" y="589"/>
      <point x="443" y="589" type="curve" smooth="yes"/>
      <point x="315" y="589"/>
      <point x="198" y="445"/>
      <point x="18" y="187" type="curve"/>
      <point x="38" y="172" type="line"/>
      <point x="94" y="254"/>
      <point x="156" y="339"/>
      <point x="224" y="420" type="curve"/>
      <point x="229" y="425"/>
      <point x="228" y="428"/>
      <point x="233" y="432" type="curve"/>
      <point x="301" y="506"/>
      <point x="366" y="563"/>
      <point x="443" y="563" type="curve" smooth="yes"/>
      <point x="566" y="563"/>
      <point x="615" y="422"/>
      <point x="615" y="262" type="curve" smooth="yes"/>
      <point x="615" y="121"/>
      <point x="579" y="19"/>
      <point x="487" y="19" type="curve" smooth="yes"/>
      <point x="459" y="19"/>
      <point x="435" y="22"/>
      <point x="415" y="29" type="curve"/>
      <point x="408" y="3" type="line"/>
      <point x="432" y="-4"/>
      <point x="461" y="-6"/>
    </contour>
    <contour>
      <point x="118" y="571" type="curve" smooth="yes"/>
      <point x="72" y="571"/>
      <point x="38" y="530"/>
      <point x="38" y="470" type="curve" smooth="yes"/>
      <point x="38" y="435"/>
      <point x="48" y="395"/>
      <point x="57" y="373" type="curve"/>
      <point x="83" y="381" type="line"/>
      <point x="73" y="404"/>
      <point x="65" y="435"/>
      <point x="65" y="469" type="curve" smooth="yes"/>
      <point x="65" y="513"/>
      <point x="84" y="546"/>
      <point x="119" y="546" type="curve" smooth="yes"/>
      <point x="160" y="546"/>
      <point x="187" y="507"/>
      <point x="205" y="419" type="curve"/>
      <point x="225" y="436" type="line"/>
      <point x="209" y="519"/>
      <point x="176" y="571"/>
    </contour>
  </outline>
</glyph>
<glyph name="thasinh" format="2">
  <advance width="562"/>
  <unicode hex="0DAE"/>
  <outline>
    <contour>
      <point x="250" y="-10" type="curve" smooth="yes"/>
      <point x="441" y="-10"/>
      <point x="523" y="146"/>
      <point x="523" y="396" type="curve" smooth="yes"/>
      <point x="523" y="673"/>
      <point x="369" y="786"/>
      <point x="191" y="812" type="curve"/>
      <point x="188" y="787" type="line"/>
      <point x="349" y="765"/>
      <point x="496" y="669"/>
      <point x="496" y="397" type="curve" smooth="yes"/>
      <point x="496" y="163"/>
      <point x="423" y="17"/>
      <point x="250" y="17" type="curve" smooth="yes"/>
      <point x="136" y="17"/>
      <point x="66" y="97"/>
      <point x="66" y="250" type="curve" smooth="yes"/>
      <point x="66" y="392"/>
      <point x="142" y="479"/>
      <point x="256" y="479" type="curve" smooth="yes"/>
      <point x="272" y="479"/>
      <point x="289" y="478"/>
      <point x="306" y="473" type="curve"/>
      <point x="310" y="498" type="line"/>
      <point x="294" y="502"/>
      <point x="273" y="504"/>
      <point x="256" y="504" type="curve" smooth="yes"/>
      <point x="133" y="504"/>
      <point x="39" y="410"/>
      <point x="39" y="250" type="curve" smooth="yes"/>
      <point x="39" y="85"/>
      <point x="117" y="-10"/>
    </contour>
    <contour>
      <point x="340" y="582" type="curve" smooth="yes"/>
      <point x="388" y="582"/>
      <point x="418" y="616"/>
      <point x="437" y="679" type="curve"/>
      <point x="414" y="692" type="line"/>
      <point x="398" y="637"/>
      <point x="377" y="608"/>
      <point x="342" y="608" type="curve" smooth="yes"/>
      <point x="302" y="608"/>
      <point x="281" y="631"/>
      <point x="270" y="692" type="curve" smooth="yes"/>
      <point x="258" y="760"/>
      <point x="245" y="779"/>
      <point x="217" y="798" type="curve"/>
      <point x="196" y="788" type="line"/>
      <point x="216" y="782"/>
      <point x="229" y="767"/>
      <point x="244" y="689" type="curve" smooth="yes"/>
      <point x="257" y="620"/>
      <point x="283" y="582"/>
    </contour>
  </outline>
</glyph>
<glyph name="dasinh" format="2">
  <advance width="372"/>
  <unicode hex="0DAF"/>
  <outline>
    <contour>
      <point x="243" y="-10" type="curve" smooth="yes"/>
      <point x="281" y="-10"/>
      <point x="331" y="3"/>
      <point x="370" y="21" type="curve"/>
      <point x="360" y="45" type="line"/>
      <point x="327" y="26"/>
      <point x="286" y="16"/>
      <point x="244" y="16" type="curve" smooth="yes"/>
      <point x="127" y="16"/>
      <point x="65" y="85"/>
      <point x="65" y="213" type="curve" smooth="yes"/>
      <point x="65" y="350"/>
      <point x="151" y="417"/>
      <point x="316" y="417" type="curve" smooth="yes"/>
      <point x="344" y="417" type="line"/>
      <point x="344" y="424" type="line" smooth="yes"/>
      <point x="344" y="521"/>
      <point x="300" y="589"/>
      <point x="222" y="589" type="curve" smooth="yes"/>
      <point x="163" y="589"/>
      <point x="129" y="547"/>
      <point x="129" y="495" type="curve" smooth="yes"/>
      <point x="129" y="473"/>
      <point x="134" y="451"/>
      <point x="141" y="433" type="curve"/>
      <point x="166" y="440" type="line"/>
      <point x="160" y="456"/>
      <point x="156" y="474"/>
      <point x="156" y="494" type="curve" smooth="yes"/>
      <point x="156" y="535"/>
      <point x="178" y="564"/>
      <point x="222" y="564" type="curve" smooth="yes"/>
      <point x="282" y="564"/>
      <point x="310" y="517"/>
      <point x="318" y="442" type="curve"/>
      <point x="314" y="442" type="line" smooth="yes"/>
      <point x="138" y="442"/>
      <point x="38" y="364"/>
      <point x="38" y="213" type="curve" smooth="yes"/>
      <point x="38" y="72"/>
      <point x="110" y="-10"/>
    </contour>
    <contour>
      <point x="311" y="-284" type="curve" smooth="yes"/>
      <point x="348" y="-284"/>
      <point x="382" y="-273"/>
      <point x="411" y="-254" type="curve"/>
      <point x="399" y="-231" type="line"/>
      <point x="373" y="-250"/>
      <point x="346" y="-259"/>
      <point x="315" y="-259" type="curve" smooth="yes"/>
      <point x="268" y="-259"/>
      <point x="225" y="-229"/>
      <point x="225" y="-158" type="curve" smooth="yes"/>
      <point x="225" y="-87"/>
      <point x="270" y="-34"/>
      <point x="325" y="5" type="curve"/>
      <point x="288" y="-1" type="line"/>
      <point x="238" y="-38"/>
      <point x="198" y="-84"/>
      <point x="198" y="-157" type="curve" smooth="yes"/>
      <point x="198" y="-231"/>
      <point x="240" y="-284"/>
    </contour>
  </outline>
</glyph>
<glyph name="dhasinh" format="2">
  <advance width="595"/>
  <unicode hex="0DB0"/>
  <outline>
    <contour>
      <point x="404" y="-10" type="curve" smooth="yes"/>
      <point x="505" y="-10"/>
      <point x="553" y="87"/>
      <point x="553" y="346" type="curve" smooth="yes"/>
      <point x="553" y="610"/>
      <point x="472" y="804"/>
      <point x="266" y="804" type="curve" smooth="yes"/>
      <point x="193" y="804"/>
      <point x="121" y="782"/>
      <point x="47" y="738" type="curve"/>
      <point x="61" y="715" type="line"/>
      <point x="132" y="760"/>
      <point x="203" y="779"/>
      <point x="267" y="779" type="curve" smooth="yes"/>
      <point x="456" y="779"/>
      <point x="526" y="595"/>
      <point x="526" y="348" type="curve" smooth="yes"/>
      <point x="526" y="102"/>
      <point x="486" y="17"/>
      <point x="406" y="17" type="curve" smooth="yes"/>
      <point x="338" y="17"/>
      <point x="311" y="69"/>
      <point x="299" y="169" type="curve"/>
      <point x="275" y="169" type="line"/>
      <point x="258" y="78"/>
      <point x="242" y="17"/>
      <point x="168" y="17" type="curve" smooth="yes"/>
      <point x="101" y="17"/>
      <point x="66" y="87"/>
      <point x="66" y="224" type="curve" smooth="yes"/>
      <point x="66" y="394"/>
      <point x="145" y="479"/>
      <point x="247" y="479" type="curve" smooth="yes"/>
      <point x="262" y="479"/>
      <point x="275" y="478"/>
      <point x="288" y="475" type="curve"/>
      <point x="292" y="499" type="line"/>
      <point x="280" y="502"/>
      <point x="265" y="504"/>
      <point x="247" y="504" type="curve" smooth="yes"/>
      <point x="136" y="504"/>
      <point x="39" y="417"/>
      <point x="39" y="224" type="curve" smooth="yes"/>
      <point x="39" y="56"/>
      <point x="93" y="-10"/>
      <point x="168" y="-10" type="curve" smooth="yes"/>
      <point x="241" y="-10"/>
      <point x="272" y="41"/>
      <point x="286" y="118" type="curve"/>
      <point x="297" y="40"/>
      <point x="339" y="-10"/>
    </contour>
  </outline>
</glyph>
<glyph name="nasinh" format="2">
  <advance width="671"/>
  <unicode hex="0DB1"/>
  <outline>
    <contour>
      <point x="235" y="-10" type="curve" smooth="yes"/>
      <point x="357" y="-10"/>
      <point x="413" y="78"/>
      <point x="413" y="230" type="curve" smooth="yes"/>
      <point x="413" y="369"/>
      <point x="339" y="442"/>
      <point x="248" y="442" type="curve" smooth="yes"/>
      <point x="244" y="442"/>
      <point x="241" y="442"/>
      <point x="236" y="441" type="curve"/>
      <point x="223" y="416" type="line"/>
      <point x="232" y="417"/>
      <point x="240" y="417"/>
      <point x="246" y="417" type="curve" smooth="yes"/>
      <point x="330" y="417"/>
      <point x="386" y="351"/>
      <point x="386" y="228" type="curve" smooth="yes"/>
      <point x="386" y="87"/>
      <point x="336" y="17"/>
      <point x="236" y="17" type="curve" smooth="yes"/>
      <point x="112" y="17"/>
      <point x="64" y="125"/>
      <point x="64" y="246" type="curve" smooth="yes"/>
      <point x="64" y="286"/>
      <point x="65" y="296"/>
      <point x="66" y="304" type="curve"/>
      <point x="40" y="306" type="line"/>
      <point x="39" y="299"/>
      <point x="38" y="277"/>
      <point x="38" y="251" type="curve" smooth="yes"/>
      <point x="38" y="103"/>
      <point x="98" y="-10"/>
    </contour>
    <contour>
      <point x="468" y="-6" type="curve" smooth="yes"/>
      <point x="571" y="-6"/>
      <point x="631" y="73"/>
      <point x="631" y="266" type="curve" smooth="yes"/>
      <point x="631" y="452"/>
      <point x="557" y="589"/>
      <point x="427" y="589" type="curve" smooth="yes"/>
      <point x="322" y="589"/>
      <point x="261" y="498"/>
      <point x="199" y="383" type="curve" smooth="yes"/>
      <point x="145" y="284"/>
      <point x="113" y="275"/>
      <point x="78" y="275" type="curve" smooth="yes"/>
      <point x="69" y="275"/>
      <point x="61" y="277"/>
      <point x="50" y="282" type="curve"/>
      <point x="44" y="259" type="line"/>
      <point x="55" y="253"/>
      <point x="68" y="250"/>
      <point x="79" y="250" type="curve" smooth="yes"/>
      <point x="137" y="250"/>
      <point x="166" y="271"/>
      <point x="221" y="369" type="curve" smooth="yes"/>
      <point x="232" y="388"/>
      <point x="242" y="407"/>
      <point x="254" y="428" type="curve"/>
      <point x="257" y="433" type="line"/>
      <point x="298" y="503"/>
      <point x="350" y="563"/>
      <point x="427" y="563" type="curve" smooth="yes"/>
      <point x="534" y="563"/>
      <point x="604" y="454"/>
      <point x="604" y="265" type="curve" smooth="yes"/>
      <point x="604" y="95"/>
      <point x="556" y="19"/>
      <point x="466" y="19" type="curve" smooth="yes"/>
      <point x="434" y="19"/>
      <point x="413" y="23"/>
      <point x="387" y="32" type="curve"/>
      <point x="380" y="6" type="line"/>
      <point x="404" y="-2"/>
      <point x="435" y="-6"/>
    </contour>
    <contour>
      <point x="135" y="571" type="curve" smooth="yes"/>
      <point x="89" y="571"/>
      <point x="55" y="530"/>
      <point x="55" y="470" type="curve" smooth="yes"/>
      <point x="55" y="435"/>
      <point x="65" y="395"/>
      <point x="74" y="373" type="curve"/>
      <point x="100" y="381" type="line"/>
      <point x="90" y="404"/>
      <point x="82" y="435"/>
      <point x="82" y="469" type="curve" smooth="yes"/>
      <point x="82" y="513"/>
      <point x="101" y="546"/>
      <point x="136" y="546" type="curve" smooth="yes"/>
      <point x="177" y="546"/>
      <point x="204" y="507"/>
      <point x="222" y="419" type="curve"/>
      <point x="243" y="436" type="line"/>
      <point x="226" y="519"/>
      <point x="193" y="571"/>
    </contour>
  </outline>
</glyph>
<glyph name="ndasinh" format="2">
  <advance width="454"/>
  <unicode hex="0DB3"/>
  <outline>
    <contour>
      <point x="329" y="-10" type="curve" smooth="yes"/>
      <point x="366" y="-10"/>
      <point x="414" y="3"/>
      <point x="452" y="19" type="curve"/>
      <point x="442" y="43" type="line"/>
      <point x="410" y="26"/>
      <point x="371" y="16"/>
      <point x="330" y="16" type="curve" smooth="yes"/>
      <point x="217" y="16"/>
      <point x="157" y="85"/>
      <point x="157" y="213" type="curve" smooth="yes"/>
      <point x="157" y="350"/>
      <point x="240" y="417"/>
      <point x="398" y="417" type="curve" smooth="yes"/>
      <point x="426" y="417" type="line"/>
      <point x="426" y="424" type="line" smooth="yes"/>
      <point x="426" y="521"/>
      <point x="382" y="589"/>
      <point x="304" y="589" type="curve" smooth="yes"/>
      <point x="250" y="589"/>
      <point x="211" y="541"/>
      <point x="211" y="495" type="curve" smooth="yes"/>
      <point x="211" y="473"/>
      <point x="216" y="451"/>
      <point x="223" y="433" type="curve"/>
      <point x="248" y="440" type="line"/>
      <point x="242" y="456"/>
      <point x="238" y="474"/>
      <point x="238" y="494" type="curve" smooth="yes"/>
      <point x="238" y="535"/>
      <point x="260" y="564"/>
      <point x="304" y="564" type="curve" smooth="yes"/>
      <point x="364" y="564"/>
      <point x="392" y="517"/>
      <point x="400" y="442" type="curve"/>
      <point x="396" y="442" type="line" smooth="yes"/>
      <point x="226" y="442"/>
      <point x="130" y="364"/>
      <point x="130" y="213" type="curve" smooth="yes"/>
      <point x="130" y="72"/>
      <point x="200" y="-10"/>
    </contour>
    <contour>
      <point x="393" y="-284" type="curve" smooth="yes"/>
      <point x="430" y="-284"/>
      <point x="464" y="-273"/>
      <point x="493" y="-254" type="curve"/>
      <point x="481" y="-231" type="line"/>
      <point x="455" y="-250"/>
      <point x="428" y="-259"/>
      <point x="397" y="-259" type="curve" smooth="yes"/>
      <point x="350" y="-259"/>
      <point x="307" y="-229"/>
      <point x="307" y="-158" type="curve" smooth="yes"/>
      <point x="307" y="-87"/>
      <point x="351" y="-35"/>
      <point x="406" y="4" type="curve"/>
      <point x="370" y="-2" type="line"/>
      <point x="320" y="-39"/>
      <point x="280" y="-84"/>
      <point x="280" y="-157" type="curve" smooth="yes"/>
      <point x="280" y="-231"/>
      <point x="322" y="-284"/>
    </contour>
    <contour>
      <point x="40" y="332" type="curve" smooth="yes"/>
      <point x="40" y="221"/>
      <point x="73" y="148"/>
      <point x="113" y="84" type="curve"/>
      <point x="135" y="99" type="line"/>
      <point x="95" y="160"/>
      <point x="67" y="232"/>
      <point x="67" y="331" type="curve" smooth="yes"/>
      <point x="67" y="480"/>
      <point x="144" y="565"/>
      <point x="240" y="565" type="curve" smooth="yes"/>
      <point x="249" y="565"/>
      <point x="259" y="564"/>
      <point x="265" y="563" type="curve"/>
      <point x="285" y="584" type="line"/>
      <point x="272" y="587"/>
      <point x="260" y="589"/>
      <point x="241" y="589" type="curve" smooth="yes"/>
      <point x="129" y="589"/>
      <point x="40" y="493"/>
    </contour>
  </outline>
</glyph>
<glyph name="pasinh" format="2">
  <advance width="557"/>
  <unicode hex="0DB4"/>
  <outline>
    <contour>
      <point x="468" y="415" type="curve"/>
      <point x="493" y="409" type="line"/>
      <point x="499" y="428"/>
      <point x="506" y="457"/>
      <point x="506" y="486" type="curve" smooth="yes"/>
      <point x="506" y="541"/>
      <point x="481" y="589"/>
      <point x="419" y="589" type="curve" smooth="yes"/>
      <point x="344" y="589"/>
      <point x="296" y="517"/>
      <point x="296" y="424" type="curve" smooth="yes"/>
      <point x="296" y="417" type="line"/>
      <point x="301" y="417" type="line" smooth="yes"/>
      <point x="413" y="417"/>
      <point x="490" y="358"/>
      <point x="490" y="237" type="curve" smooth="yes"/>
      <point x="490" y="107"/>
      <point x="421" y="17"/>
      <point x="277" y="17" type="curve" smooth="yes"/>
      <point x="136" y="17"/>
      <point x="67" y="107"/>
      <point x="67" y="237" type="curve" smooth="yes"/>
      <point x="67" y="358"/>
      <point x="144" y="417"/>
      <point x="256" y="417" type="curve" smooth="yes"/>
      <point x="263" y="417" type="line"/>
      <point x="263" y="424" type="line" smooth="yes"/>
      <point x="263" y="521"/>
      <point x="219" y="589"/>
      <point x="145" y="589" type="curve" smooth="yes"/>
      <point x="91" y="589"/>
      <point x="57" y="547"/>
      <point x="57" y="495" type="curve" smooth="yes"/>
      <point x="57" y="466"/>
      <point x="64" y="445"/>
      <point x="74" y="421" type="curve"/>
      <point x="99" y="429" type="line"/>
      <point x="89" y="449"/>
      <point x="84" y="470"/>
      <point x="84" y="494" type="curve" smooth="yes"/>
      <point x="84" y="535"/>
      <point x="106" y="564"/>
      <point x="145" y="564" type="curve" smooth="yes"/>
      <point x="201" y="564"/>
      <point x="230" y="515"/>
      <point x="237" y="440" type="curve"/>
      <point x="261" y="442" type="line"/>
      <point x="258" y="442" type="line" smooth="yes"/>
      <point x="120" y="442"/>
      <point x="40" y="363"/>
      <point x="40" y="237" type="curve" smooth="yes"/>
      <point x="40" y="86"/>
      <point x="125" y="-10"/>
      <point x="277" y="-10" type="curve" smooth="yes"/>
      <point x="436" y="-10"/>
      <point x="517" y="90"/>
      <point x="517" y="238" type="curve" smooth="yes"/>
      <point x="517" y="363"/>
      <point x="432" y="442"/>
      <point x="305" y="442" type="curve" smooth="yes"/>
      <point x="300" y="442" type="line"/>
      <point x="322" y="438" type="line"/>
      <point x="329" y="510"/>
      <point x="360" y="564"/>
      <point x="419" y="564" type="curve" smooth="yes"/>
      <point x="468" y="564"/>
      <point x="479" y="525"/>
      <point x="479" y="486" type="curve" smooth="yes"/>
      <point x="479" y="456"/>
      <point x="473" y="433"/>
    </contour>
  </outline>
</glyph>
<glyph name="phasinh" format="2">
  <advance width="568"/>
  <unicode hex="0DB5"/>
  <outline>
    <contour>
      <point x="251" y="-10" type="curve" smooth="yes"/>
      <point x="434" y="-10"/>
      <point x="529" y="142"/>
      <point x="529" y="396" type="curve" smooth="yes"/>
      <point x="529" y="673"/>
      <point x="375" y="786"/>
      <point x="197" y="812" type="curve"/>
      <point x="194" y="787" type="line"/>
      <point x="355" y="765"/>
      <point x="502" y="669"/>
      <point x="502" y="397" type="curve" smooth="yes"/>
      <point x="502" y="163"/>
      <point x="420" y="17"/>
      <point x="251" y="17" type="curve" smooth="yes"/>
      <point x="135" y="17"/>
      <point x="66" y="92"/>
      <point x="66" y="230" type="curve" smooth="yes"/>
      <point x="66" y="302"/>
      <point x="89" y="351"/>
      <point x="130" y="381" type="curve" smooth="yes"/>
      <point x="164" y="406"/>
      <point x="203" y="417"/>
      <point x="277" y="417" type="curve" smooth="yes"/>
      <point x="316" y="417" type="line"/>
      <point x="316" y="424" type="line" smooth="yes"/>
      <point x="316" y="521"/>
      <point x="272" y="589"/>
      <point x="198" y="589" type="curve" smooth="yes"/>
      <point x="144" y="589"/>
      <point x="110" y="547"/>
      <point x="110" y="495" type="curve" smooth="yes"/>
      <point x="110" y="472"/>
      <point x="115" y="450"/>
      <point x="122" y="431" type="curve"/>
      <point x="147" y="438" type="line"/>
      <point x="140" y="458"/>
      <point x="137" y="473"/>
      <point x="137" y="494" type="curve" smooth="yes"/>
      <point x="137" y="535"/>
      <point x="159" y="564"/>
      <point x="198" y="564" type="curve" smooth="yes"/>
      <point x="256" y="564"/>
      <point x="283" y="513"/>
      <point x="290" y="442" type="curve"/>
      <point x="283" y="442" type="line" smooth="yes"/>
      <point x="203" y="442"/>
      <point x="155" y="429"/>
      <point x="115" y="401" type="curve" smooth="yes"/>
      <point x="67" y="367"/>
      <point x="39" y="310"/>
      <point x="39" y="228" type="curve" smooth="yes"/>
      <point x="39" y="71"/>
      <point x="125" y="-10"/>
    </contour>
    <contour>
      <point x="346" y="582" type="curve" smooth="yes"/>
      <point x="394" y="582"/>
      <point x="424" y="616"/>
      <point x="443" y="679" type="curve"/>
      <point x="420" y="692" type="line"/>
      <point x="404" y="637"/>
      <point x="383" y="608"/>
      <point x="348" y="608" type="curve" smooth="yes"/>
      <point x="308" y="608"/>
      <point x="287" y="631"/>
      <point x="276" y="692" type="curve" smooth="yes"/>
      <point x="264" y="760"/>
      <point x="251" y="779"/>
      <point x="223" y="798" type="curve"/>
      <point x="202" y="788" type="line"/>
      <point x="222" y="782"/>
      <point x="235" y="767"/>
      <point x="250" y="689" type="curve" smooth="yes"/>
      <point x="263" y="620"/>
      <point x="289" y="582"/>
    </contour>
  </outline>
</glyph>
<glyph name="basinh" format="2">
  <advance width="606"/>
  <unicode hex="0DB6"/>
  <outline>
    <contour>
      <point x="396" y="-10" type="curve" smooth="yes"/>
      <point x="487" y="-10"/>
      <point x="565" y="113"/>
      <point x="565" y="369" type="curve" smooth="yes"/>
      <point x="565" y="633"/>
      <point x="474" y="804"/>
      <point x="268" y="804" type="curve" smooth="yes"/>
      <point x="183" y="804"/>
      <point x="115" y="782"/>
      <point x="41" y="738" type="curve"/>
      <point x="55" y="715" type="line"/>
      <point x="126" y="760"/>
      <point x="193" y="779"/>
      <point x="271" y="779" type="curve" smooth="yes"/>
      <point x="462" y="779"/>
      <point x="538" y="612"/>
      <point x="538" y="368" type="curve" smooth="yes"/>
      <point x="538" y="125"/>
      <point x="468" y="17"/>
      <point x="396" y="17" type="curve" smooth="yes"/>
      <point x="359" y="17"/>
      <point x="339" y="43"/>
      <point x="339" y="81" type="curve" smooth="yes"/>
      <point x="339" y="170"/>
      <point x="404" y="236"/>
      <point x="404" y="349" type="curve" smooth="yes"/>
      <point x="404" y="464"/>
      <point x="348" y="538"/>
      <point x="245" y="538" type="curve" smooth="yes"/>
      <point x="131" y="538"/>
      <point x="39" y="429"/>
      <point x="39" y="254" type="curve" smooth="yes"/>
      <point x="39" y="88"/>
      <point x="104" y="-10"/>
      <point x="195" y="-10" type="curve" smooth="yes"/>
      <point x="253" y="-10"/>
      <point x="283" y="27"/>
      <point x="283" y="100" type="curve" smooth="yes"/>
      <point x="283" y="172"/>
      <point x="249" y="206"/>
      <point x="197" y="206" type="curve" smooth="yes"/>
      <point x="146" y="206"/>
      <point x="113" y="165"/>
      <point x="113" y="101" type="curve" smooth="yes"/>
      <point x="113" y="48"/>
      <point x="140" y="21"/>
      <point x="156" y="10" type="curve"/>
      <point x="169" y="7" type="line"/>
      <point x="116" y="39"/>
      <point x="66" y="87"/>
      <point x="66" y="254" type="curve" smooth="yes"/>
      <point x="66" y="409"/>
      <point x="142" y="512"/>
      <point x="245" y="512" type="curve" smooth="yes"/>
      <point x="323" y="512"/>
      <point x="377" y="459"/>
      <point x="377" y="349" type="curve" smooth="yes"/>
      <point x="377" y="237"/>
      <point x="313" y="174"/>
      <point x="313" y="80" type="curve" smooth="yes"/>
      <point x="313" y="34"/>
      <point x="336" y="-10"/>
    </contour>
    <contour>
      <point x="197" y="181" type="curve" smooth="yes"/>
      <point x="238" y="181"/>
      <point x="257" y="150"/>
      <point x="257" y="100" type="curve" smooth="yes"/>
      <point x="257" y="44"/>
      <point x="236" y="14"/>
      <point x="197" y="14" type="curve" smooth="yes"/>
      <point x="160" y="14"/>
      <point x="138" y="40"/>
      <point x="138" y="97" type="curve" smooth="yes"/>
      <point x="138" y="152"/>
      <point x="160" y="181"/>
    </contour>
  </outline>
</glyph>
<glyph name="bhasinh" format="2">
  <advance width="663"/>
  <unicode hex="0DB7"/>
  <outline>
    <contour>
      <point x="231" y="-10" type="curve" smooth="yes"/>
      <point x="352" y="-10"/>
      <point x="402" y="80"/>
      <point x="402" y="193" type="curve" smooth="yes"/>
      <point x="402" y="271"/>
      <point x="373" y="318"/>
      <point x="322" y="318" type="curve" smooth="yes"/>
      <point x="309" y="318"/>
      <point x="300" y="315"/>
      <point x="292" y="311" type="curve"/>
      <point x="303" y="307" type="line"/>
      <point x="323" y="480"/>
      <point x="378" y="563"/>
      <point x="459" y="563" type="curve" smooth="yes"/>
      <point x="558" y="563"/>
      <point x="597" y="445"/>
      <point x="597" y="285" type="curve" smooth="yes"/>
      <point x="597" y="81"/>
      <point x="542" y="19"/>
      <point x="448" y="19" type="curve" smooth="yes"/>
      <point x="431" y="19"/>
      <point x="407" y="22"/>
      <point x="386" y="28" type="curve"/>
      <point x="380" y="2" type="line"/>
      <point x="401" y="-3"/>
      <point x="429" y="-6"/>
      <point x="448" y="-6" type="curve" smooth="yes"/>
      <point x="566" y="-6"/>
      <point x="624" y="73"/>
      <point x="624" y="285" type="curve" smooth="yes"/>
      <point x="624" y="457"/>
      <point x="574" y="589"/>
      <point x="459" y="589" type="curve" smooth="yes"/>
      <point x="366" y="589"/>
      <point x="293" y="499"/>
      <point x="276" y="293" type="curve"/>
      <point x="297" y="288" type="line"/>
      <point x="303" y="291"/>
      <point x="312" y="293"/>
      <point x="321" y="293" type="curve" smooth="yes"/>
      <point x="352" y="293"/>
      <point x="375" y="266"/>
      <point x="375" y="196" type="curve" smooth="yes"/>
      <point x="375" y="102"/>
      <point x="343" y="17"/>
      <point x="231" y="17" type="curve" smooth="yes"/>
      <point x="125" y="17"/>
      <point x="80" y="93"/>
      <point x="80" y="210" type="curve" smooth="yes"/>
      <point x="80" y="312"/>
      <point x="134" y="380"/>
      <point x="232" y="423" type="curve"/>
      <point x="183" y="417" type="line"/>
      <point x="273" y="417" type="line"/>
      <point x="273" y="424" type="line" smooth="yes"/>
      <point x="273" y="521"/>
      <point x="229" y="589"/>
      <point x="155" y="589" type="curve" smooth="yes"/>
      <point x="101" y="589"/>
      <point x="67" y="547"/>
      <point x="67" y="495" type="curve" smooth="yes"/>
      <point x="67" y="483"/>
      <point x="69" y="466"/>
      <point x="72" y="454" type="curve"/>
      <point x="98" y="457" type="line"/>
      <point x="96" y="466"/>
      <point x="94" y="483"/>
      <point x="94" y="494" type="curve" smooth="yes"/>
      <point x="94" y="535"/>
      <point x="116" y="564"/>
      <point x="155" y="564" type="curve" smooth="yes"/>
      <point x="211" y="564"/>
      <point x="239" y="516"/>
      <point x="247" y="442" type="curve"/>
      <point x="27" y="442" type="line"/>
      <point x="27" y="417" type="line"/>
      <point x="79" y="417" type="line" smooth="yes"/>
      <point x="115" y="417"/>
      <point x="164" y="417"/>
      <point x="204" y="421" type="curve"/>
      <point x="188" y="424" type="line"/>
      <point x="103" y="381"/>
      <point x="53" y="309"/>
      <point x="53" y="210" type="curve" smooth="yes"/>
      <point x="53" y="74"/>
      <point x="112" y="-10"/>
    </contour>
  </outline>
</glyph>
<glyph name="yasinh" format="2">
  <advance width="573"/>
  <unicode hex="0DBA"/>
  <outline>
    <contour>
      <point x="406" y="-10" type="curve" smooth="yes"/>
      <point x="496" y="-10"/>
      <point x="533" y="70"/>
      <point x="533" y="199" type="curve" smooth="yes"/>
      <point x="533" y="347"/>
      <point x="449" y="442"/>
      <point x="321" y="442" type="curve"/>
      <point x="336" y="438" type="line"/>
      <point x="343" y="510"/>
      <point x="374" y="564"/>
      <point x="437" y="564" type="curve" smooth="yes"/>
      <point x="490" y="564"/>
      <point x="501" y="525"/>
      <point x="501" y="486" type="curve" smooth="yes"/>
      <point x="501" y="456"/>
      <point x="495" y="431"/>
      <point x="488" y="408" type="curve"/>
      <point x="512" y="401" type="line"/>
      <point x="521" y="424"/>
      <point x="528" y="457"/>
      <point x="528" y="486" type="curve" smooth="yes"/>
      <point x="528" y="541"/>
      <point x="502" y="589"/>
      <point x="436" y="589" type="curve" smooth="yes"/>
      <point x="358" y="589"/>
      <point x="310" y="516"/>
      <point x="310" y="423" type="curve" smooth="yes"/>
      <point x="310" y="417" type="line"/>
      <point x="314" y="417" type="line" smooth="yes"/>
      <point x="447" y="417"/>
      <point x="506" y="324"/>
      <point x="506" y="198" type="curve" smooth="yes"/>
      <point x="506" y="77"/>
      <point x="473" y="17"/>
      <point x="407" y="17" type="curve" smooth="yes"/>
      <point x="339" y="17"/>
      <point x="309" y="69"/>
      <point x="297" y="169" type="curve"/>
      <point x="273" y="169" type="line"/>
      <point x="256" y="82"/>
      <point x="235" y="17"/>
      <point x="168" y="17" type="curve" smooth="yes"/>
      <point x="103" y="17"/>
      <point x="66" y="75"/>
      <point x="66" y="202" type="curve" smooth="yes"/>
      <point x="66" y="333"/>
      <point x="128" y="421"/>
      <point x="218" y="421" type="curve" smooth="yes"/>
      <point x="230" y="421"/>
      <point x="243" y="420"/>
      <point x="251" y="419" type="curve"/>
      <point x="254" y="443" type="line"/>
      <point x="245" y="445"/>
      <point x="230" y="446"/>
      <point x="219" y="446" type="curve" smooth="yes"/>
      <point x="114" y="446"/>
      <point x="39" y="349"/>
      <point x="39" y="202" type="curve" smooth="yes"/>
      <point x="39" y="63"/>
      <point x="84" y="-10"/>
      <point x="169" y="-10" type="curve" smooth="yes"/>
      <point x="230" y="-10"/>
      <point x="266" y="35"/>
      <point x="284" y="118" type="curve"/>
      <point x="299" y="38"/>
      <point x="336" y="-10"/>
    </contour>
  </outline>
</glyph>
<glyph name="rasinh" format="2">
  <advance width="495"/>
  <unicode hex="0DBB"/>
  <outline>
    <contour>
      <point x="245" y="-10" type="curve" smooth="yes"/>
      <point x="371" y="-10"/>
      <point x="455" y="87"/>
      <point x="455" y="282" type="curve" smooth="yes"/>
      <point x="455" y="459"/>
      <point x="381" y="572"/>
      <point x="249" y="572" type="curve" smooth="yes"/>
      <point x="139" y="572"/>
      <point x="40" y="464"/>
      <point x="40" y="285" type="curve" smooth="yes"/>
      <point x="40" y="94"/>
      <point x="112" y="-10"/>
    </contour>
    <contour>
      <point x="246" y="17" type="curve" smooth="yes"/>
      <point x="151" y="17"/>
      <point x="67" y="78"/>
      <point x="67" y="284" type="curve" smooth="yes"/>
      <point x="67" y="451"/>
      <point x="154" y="547"/>
      <point x="249" y="547" type="curve" smooth="yes"/>
      <point x="356" y="547"/>
      <point x="428" y="461"/>
      <point x="428" y="282" type="curve" smooth="yes"/>
      <point x="428" y="81"/>
      <point x="338" y="17"/>
    </contour>
    <contour>
      <point x="153" y="541" type="curve"/>
      <point x="204" y="559" type="line"/>
      <point x="287" y="619"/>
      <point x="409" y="730"/>
      <point x="484" y="808" type="curve"/>
      <point x="464" y="828" type="line"/>
      <point x="381" y="741"/>
      <point x="277" y="646"/>
    </contour>
  </outline>
</glyph>
<glyph name="lasinh" format="2">
  <advance width="606"/>
  <unicode hex="0DBD"/>
  <outline>
    <contour>
      <point x="325" y="-230" type="curve" smooth="yes"/>
      <point x="501" y="-230"/>
      <point x="582" y="-128"/>
      <point x="582" y="79" type="curve" smooth="yes"/>
      <point x="582" y="104"/>
      <point x="580" y="126"/>
      <point x="578" y="140" type="curve"/>
      <point x="552" y="138" type="line"/>
      <point x="554" y="125"/>
      <point x="556" y="106"/>
      <point x="556" y="81" type="curve" smooth="yes"/>
      <point x="556" y="-108"/>
      <point x="487" y="-203"/>
      <point x="327" y="-203" type="curve" smooth="yes"/>
      <point x="168" y="-203"/>
      <point x="65" y="-88"/>
      <point x="65" y="174" type="curve" smooth="yes"/>
      <point x="65" y="399"/>
      <point x="172" y="582"/>
      <point x="359" y="582" type="curve" smooth="yes"/>
      <point x="496" y="582"/>
      <point x="540" y="489"/>
      <point x="540" y="385" type="curve" smooth="yes"/>
      <point x="540" y="286"/>
      <point x="507" y="224"/>
      <point x="431" y="224" type="curve" smooth="yes"/>
      <point x="378" y="224"/>
      <point x="345" y="256"/>
      <point x="345" y="314" type="curve" smooth="yes"/>
      <point x="345" y="364"/>
      <point x="375" y="404"/>
      <point x="431" y="427" type="curve"/>
      <point x="395" y="416" type="line"/>
      <point x="493" y="416" type="line"/>
      <point x="493" y="442" type="line"/>
      <point x="222" y="442" type="line"/>
      <point x="222" y="416" type="line"/>
      <point x="316" y="416" type="line" smooth="yes"/>
      <point x="344" y="416"/>
      <point x="368" y="417"/>
      <point x="393" y="420" type="curve"/>
      <point x="392" y="431" type="line"/>
      <point x="347" y="408"/>
      <point x="318" y="362"/>
      <point x="318" y="314" type="curve" smooth="yes"/>
      <point x="318" y="239"/>
      <point x="364" y="198"/>
      <point x="431" y="198" type="curve" smooth="yes"/>
      <point x="524" y="198"/>
      <point x="567" y="268"/>
      <point x="567" y="385" type="curve" smooth="yes"/>
      <point x="567" y="497"/>
      <point x="514" y="607"/>
      <point x="359" y="607" type="curve" smooth="yes"/>
      <point x="151" y="607"/>
      <point x="38" y="407"/>
      <point x="38" y="174" type="curve" smooth="yes"/>
      <point x="38" y="-100"/>
      <point x="150" y="-230"/>
    </contour>
  </outline>
</glyph>
<glyph name="vasinh" format="2">
  <advance width="568"/>
  <unicode hex="0DC0"/>
  <outline>
    <contour>
      <point x="251" y="-10" type="curve" smooth="yes"/>
      <point x="434" y="-10"/>
      <point x="529" y="142"/>
      <point x="529" y="405" type="curve" smooth="yes"/>
      <point x="529" y="715"/>
      <point x="397" y="804"/>
      <point x="261" y="804" type="curve" smooth="yes"/>
      <point x="168" y="804"/>
      <point x="109" y="778"/>
      <point x="40" y="736" type="curve"/>
      <point x="53" y="712" type="line"/>
      <point x="118" y="755"/>
      <point x="176" y="779"/>
      <point x="261" y="779" type="curve" smooth="yes"/>
      <point x="386" y="779"/>
      <point x="502" y="696"/>
      <point x="502" y="408" type="curve" smooth="yes"/>
      <point x="502" y="163"/>
      <point x="420" y="17"/>
      <point x="252" y="17" type="curve" smooth="yes"/>
      <point x="135" y="17"/>
      <point x="66" y="92"/>
      <point x="66" y="230" type="curve" smooth="yes"/>
      <point x="66" y="302"/>
      <point x="89" y="351"/>
      <point x="130" y="381" type="curve" smooth="yes"/>
      <point x="164" y="406"/>
      <point x="203" y="417"/>
      <point x="277" y="417" type="curve" smooth="yes"/>
      <point x="322" y="417" type="line"/>
      <point x="322" y="424" type="line" smooth="yes"/>
      <point x="322" y="521"/>
      <point x="278" y="589"/>
      <point x="204" y="589" type="curve" smooth="yes"/>
      <point x="150" y="589"/>
      <point x="116" y="547"/>
      <point x="116" y="495" type="curve" smooth="yes"/>
      <point x="116" y="472"/>
      <point x="121" y="450"/>
      <point x="128" y="431" type="curve"/>
      <point x="153" y="438" type="line"/>
      <point x="146" y="458"/>
      <point x="143" y="473"/>
      <point x="143" y="494" type="curve" smooth="yes"/>
      <point x="143" y="535"/>
      <point x="165" y="564"/>
      <point x="204" y="564" type="curve" smooth="yes"/>
      <point x="262" y="564"/>
      <point x="289" y="513"/>
      <point x="296" y="442" type="curve"/>
      <point x="283" y="442" type="line" smooth="yes"/>
      <point x="203" y="442"/>
      <point x="155" y="429"/>
      <point x="115" y="401" type="curve" smooth="yes"/>
      <point x="67" y="367"/>
      <point x="39" y="310"/>
      <point x="39" y="228" type="curve" smooth="yes"/>
      <point x="39" y="71"/>
      <point x="125" y="-10"/>
    </contour>
  </outline>
</glyph>
<glyph name="shasinh" format="2">
  <advance width="643"/>
  <unicode hex="0DC1"/>
  <outline>
    <contour>
      <point x="432" y="-6" type="curve" smooth="yes"/>
      <point x="552" y="-6"/>
      <point x="603" y="95"/>
      <point x="603" y="285" type="curve" smooth="yes"/>
      <point x="603" y="458"/>
      <point x="553" y="589"/>
      <point x="435" y="589" type="curve" smooth="yes"/>
      <point x="342" y="589"/>
      <point x="269" y="499"/>
      <point x="252" y="293" type="curve"/>
      <point x="272" y="288" type="line"/>
      <point x="279" y="291"/>
      <point x="287" y="293"/>
      <point x="297" y="293" type="curve" smooth="yes"/>
      <point x="328" y="293"/>
      <point x="351" y="266"/>
      <point x="351" y="196" type="curve" smooth="yes"/>
      <point x="351" y="98"/>
      <point x="318" y="17"/>
      <point x="219" y="17" type="curve" smooth="yes"/>
      <point x="113" y="17"/>
      <point x="67" y="119"/>
      <point x="67" y="277" type="curve" smooth="yes"/>
      <point x="67" y="451"/>
      <point x="155" y="564"/>
      <point x="261" y="564" type="curve" smooth="yes"/>
      <point x="272" y="564"/>
      <point x="281" y="564"/>
      <point x="290" y="562" type="curve"/>
      <point x="293" y="587" type="line"/>
      <point x="284" y="589"/>
      <point x="273" y="589"/>
      <point x="261" y="589" type="curve" smooth="yes"/>
      <point x="146" y="589"/>
      <point x="40" y="474"/>
      <point x="40" y="274" type="curve" smooth="yes"/>
      <point x="40" y="95"/>
      <point x="101" y="-10"/>
      <point x="219" y="-10" type="curve" smooth="yes"/>
      <point x="336" y="-10"/>
      <point x="378" y="87"/>
      <point x="378" y="193" type="curve" smooth="yes"/>
      <point x="378" y="271"/>
      <point x="349" y="318"/>
      <point x="298" y="318" type="curve" smooth="yes"/>
      <point x="287" y="318"/>
      <point x="276" y="315"/>
      <point x="268" y="311" type="curve"/>
      <point x="279" y="307" type="line"/>
      <point x="299" y="480"/>
      <point x="354" y="563"/>
      <point x="435" y="563" type="curve" smooth="yes"/>
      <point x="536" y="563"/>
      <point x="576" y="445"/>
      <point x="576" y="285" type="curve" smooth="yes"/>
      <point x="576" y="103"/>
      <point x="531" y="19"/>
      <point x="434" y="19" type="curve" smooth="yes"/>
      <point x="413" y="19"/>
      <point x="399" y="20"/>
      <point x="389" y="22" type="curve"/>
      <point x="387" y="-3" type="line"/>
      <point x="394" y="-5"/>
      <point x="424" y="-6"/>
    </contour>
    <contour>
      <point x="499" y="295" type="curve" smooth="yes"/>
      <point x="448" y="295"/>
      <point x="419" y="261"/>
      <point x="419" y="209" type="curve" smooth="yes"/>
      <point x="419" y="157"/>
      <point x="440" y="111"/>
      <point x="440" y="75" type="curve" smooth="yes"/>
      <point x="440" y="38"/>
      <point x="424" y="18"/>
      <point x="409" y="9" type="curve"/>
      <point x="442" y="13" type="line"/>
      <point x="455" y="27"/>
      <point x="466" y="49"/>
      <point x="466" y="76" type="curve" smooth="yes"/>
      <point x="466" y="123"/>
      <point x="446" y="153"/>
      <point x="446" y="209" type="curve" smooth="yes"/>
      <point x="446" y="254"/>
      <point x="468" y="269"/>
      <point x="501" y="269" type="curve" smooth="yes"/>
      <point x="532" y="269"/>
      <point x="556" y="254"/>
      <point x="588" y="225" type="curve"/>
      <point x="598" y="248" type="line"/>
      <point x="567" y="274"/>
      <point x="536" y="295"/>
    </contour>
  </outline>
</glyph>
<glyph name="ssasinh" format="2">
  <advance width="557"/>
  <unicode hex="0DC2"/>
  <outline>
    <contour>
      <point x="277" y="-10" type="curve" smooth="yes"/>
      <point x="436" y="-10"/>
      <point x="517" y="90"/>
      <point x="517" y="238" type="curve" smooth="yes"/>
      <point x="517" y="363"/>
      <point x="432" y="442"/>
      <point x="305" y="442" type="curve" smooth="yes"/>
      <point x="300" y="442" type="line"/>
      <point x="322" y="438" type="line"/>
      <point x="329" y="510"/>
      <point x="360" y="564"/>
      <point x="421" y="564" type="curve" smooth="yes"/>
      <point x="466" y="564"/>
      <point x="484" y="527"/>
      <point x="484" y="482" type="curve" smooth="yes"/>
      <point x="484" y="373"/>
      <point x="413" y="332"/>
      <point x="294" y="332" type="curve" smooth="yes"/>
      <point x="257" y="332" type="line" smooth="yes"/>
      <point x="190" y="332"/>
      <point x="152" y="298"/>
      <point x="152" y="248" type="curve" smooth="yes"/>
      <point x="152" y="191"/>
      <point x="189" y="150"/>
      <point x="275" y="150" type="curve" smooth="yes"/>
      <point x="376" y="150"/>
      <point x="403" y="200"/>
      <point x="403" y="249" type="curve" smooth="yes"/>
      <point x="403" y="286"/>
      <point x="385" y="311"/>
      <point x="353" y="324" type="curve"/>
      <point x="327" y="315" type="line"/>
      <point x="357" y="305"/>
      <point x="376" y="281"/>
      <point x="376" y="249" type="curve" smooth="yes"/>
      <point x="376" y="208"/>
      <point x="352" y="175"/>
      <point x="275" y="175" type="curve" smooth="yes"/>
      <point x="214" y="175"/>
      <point x="179" y="200"/>
      <point x="179" y="248" type="curve" smooth="yes"/>
      <point x="179" y="289"/>
      <point x="208" y="307"/>
      <point x="254" y="307" type="curve" smooth="yes"/>
      <point x="290" y="307" type="line" smooth="yes"/>
      <point x="419" y="307"/>
      <point x="511" y="353"/>
      <point x="511" y="483" type="curve" smooth="yes"/>
      <point x="511" y="544"/>
      <point x="482" y="589"/>
      <point x="422" y="589" type="curve" smooth="yes"/>
      <point x="344" y="589"/>
      <point x="296" y="517"/>
      <point x="296" y="424" type="curve" smooth="yes"/>
      <point x="296" y="417" type="line"/>
      <point x="301" y="417" type="line" smooth="yes"/>
      <point x="413" y="417"/>
      <point x="490" y="358"/>
      <point x="490" y="237" type="curve" smooth="yes"/>
      <point x="490" y="107"/>
      <point x="421" y="17"/>
      <point x="277" y="17" type="curve" smooth="yes"/>
      <point x="136" y="17"/>
      <point x="67" y="107"/>
      <point x="67" y="237" type="curve" smooth="yes"/>
      <point x="67" y="358"/>
      <point x="144" y="417"/>
      <point x="256" y="417" type="curve" smooth="yes"/>
      <point x="263" y="417" type="line"/>
      <point x="263" y="424" type="line" smooth="yes"/>
      <point x="263" y="521"/>
      <point x="219" y="589"/>
      <point x="145" y="589" type="curve" smooth="yes"/>
      <point x="91" y="589"/>
      <point x="57" y="547"/>
      <point x="57" y="495" type="curve" smooth="yes"/>
      <point x="57" y="466"/>
      <point x="64" y="445"/>
      <point x="74" y="421" type="curve"/>
      <point x="99" y="429" type="line"/>
      <point x="89" y="449"/>
      <point x="84" y="470"/>
      <point x="84" y="494" type="curve" smooth="yes"/>
      <point x="84" y="535"/>
      <point x="106" y="564"/>
      <point x="145" y="564" type="curve" smooth="yes"/>
      <point x="201" y="564"/>
      <point x="230" y="515"/>
      <point x="237" y="440" type="curve"/>
      <point x="261" y="442" type="line"/>
      <point x="258" y="442" type="line" smooth="yes"/>
      <point x="120" y="442"/>
      <point x="40" y="363"/>
      <point x="40" y="237" type="curve" smooth="yes"/>
      <point x="40" y="86"/>
      <point x="125" y="-10"/>
    </contour>
  </outline>
</glyph>
<glyph name="sasinh" format="2">
  <advance width="576"/>
  <unicode hex="0DC3"/>
  <outline>
    <contour>
      <point x="410" y="-10" type="curve" smooth="yes"/>
      <point x="500" y="-10"/>
      <point x="537" y="70"/>
      <point x="537" y="199" type="curve" smooth="yes"/>
      <point x="537" y="347"/>
      <point x="453" y="442"/>
      <point x="325" y="442" type="curve"/>
      <point x="336" y="438" type="line"/>
      <point x="343" y="510"/>
      <point x="374" y="564"/>
      <point x="433" y="564" type="curve" smooth="yes"/>
      <point x="482" y="564"/>
      <point x="493" y="525"/>
      <point x="493" y="486" type="curve" smooth="yes"/>
      <point x="493" y="456"/>
      <point x="487" y="431"/>
      <point x="480" y="408" type="curve"/>
      <point x="504" y="401" type="line"/>
      <point x="513" y="424"/>
      <point x="520" y="457"/>
      <point x="520" y="486" type="curve" smooth="yes"/>
      <point x="520" y="541"/>
      <point x="494" y="589"/>
      <point x="433" y="589" type="curve" smooth="yes"/>
      <point x="358" y="589"/>
      <point x="310" y="516"/>
      <point x="310" y="424" type="curve" smooth="yes"/>
      <point x="310" y="417" type="line"/>
      <point x="318" y="417" type="line" smooth="yes"/>
      <point x="451" y="417"/>
      <point x="510" y="324"/>
      <point x="510" y="198" type="curve" smooth="yes"/>
      <point x="510" y="77"/>
      <point x="477" y="17"/>
      <point x="410" y="17" type="curve" smooth="yes"/>
      <point x="343" y="17"/>
      <point x="313" y="69"/>
      <point x="301" y="169" type="curve"/>
      <point x="277" y="169" type="line"/>
      <point x="260" y="78"/>
      <point x="244" y="17"/>
      <point x="170" y="17" type="curve" smooth="yes"/>
      <point x="103" y="17"/>
      <point x="70" y="88"/>
      <point x="70" y="184" type="curve" smooth="yes"/>
      <point x="70" y="314"/>
      <point x="139" y="397"/>
      <point x="253" y="425" type="curve"/>
      <point x="212" y="417" type="line"/>
      <point x="277" y="417" type="line"/>
      <point x="277" y="424" type="line" smooth="yes"/>
      <point x="277" y="521"/>
      <point x="233" y="589"/>
      <point x="159" y="589" type="curve" smooth="yes"/>
      <point x="105" y="589"/>
      <point x="71" y="547"/>
      <point x="71" y="495" type="curve" smooth="yes"/>
      <point x="71" y="483"/>
      <point x="73" y="466"/>
      <point x="76" y="454" type="curve"/>
      <point x="102" y="457" type="line"/>
      <point x="100" y="466"/>
      <point x="98" y="483"/>
      <point x="98" y="494" type="curve" smooth="yes"/>
      <point x="98" y="535"/>
      <point x="120" y="564"/>
      <point x="159" y="564" type="curve" smooth="yes"/>
      <point x="215" y="564"/>
      <point x="243" y="516"/>
      <point x="251" y="442" type="curve"/>
      <point x="27" y="442" type="line"/>
      <point x="27" y="417" type="line"/>
      <point x="104" y="417" type="line" smooth="yes"/>
      <point x="144" y="417"/>
      <point x="169" y="418"/>
      <point x="208" y="423" type="curve"/>
      <point x="204" y="428" type="line"/>
      <point x="110" y="398"/>
      <point x="43" y="318"/>
      <point x="43" y="182" type="curve" smooth="yes"/>
      <point x="43" y="60"/>
      <point x="95" y="-10"/>
      <point x="170" y="-10" type="curve" smooth="yes"/>
      <point x="243" y="-10"/>
      <point x="274" y="41"/>
      <point x="288" y="118" type="curve"/>
      <point x="303" y="38"/>
      <point x="340" y="-10"/>
    </contour>
  </outline>
</glyph>
<glyph name="hasinh" format="2">
  <advance width="653"/>
  <unicode hex="0DC4"/>
  <outline>
    <contour>
      <point x="438" y="-6" type="curve" smooth="yes"/>
      <point x="556" y="-6"/>
      <point x="614" y="73"/>
      <point x="614" y="285" type="curve" smooth="yes"/>
      <point x="614" y="457"/>
      <point x="564" y="589"/>
      <point x="449" y="589" type="curve" smooth="yes"/>
      <point x="356" y="589"/>
      <point x="283" y="499"/>
      <point x="266" y="293" type="curve"/>
      <point x="287" y="288" type="line"/>
      <point x="293" y="291"/>
      <point x="302" y="293"/>
      <point x="311" y="293" type="curve" smooth="yes"/>
      <point x="342" y="293"/>
      <point x="365" y="266"/>
      <point x="365" y="196" type="curve" smooth="yes"/>
      <point x="365" y="102"/>
      <point x="331" y="17"/>
      <point x="224" y="17" type="curve" smooth="yes"/>
      <point x="115" y="17"/>
      <point x="67" y="100"/>
      <point x="67" y="224" type="curve" smooth="yes"/>
      <point x="67" y="358"/>
      <point x="144" y="417"/>
      <point x="256" y="417" type="curve" smooth="yes"/>
      <point x="263" y="417" type="line"/>
      <point x="263" y="424" type="line" smooth="yes"/>
      <point x="263" y="521"/>
      <point x="219" y="589"/>
      <point x="145" y="589" type="curve" smooth="yes"/>
      <point x="91" y="589"/>
      <point x="57" y="547"/>
      <point x="57" y="495" type="curve" smooth="yes"/>
      <point x="57" y="466"/>
      <point x="64" y="444"/>
      <point x="73" y="421" type="curve"/>
      <point x="99" y="429" type="line"/>
      <point x="89" y="449"/>
      <point x="84" y="470"/>
      <point x="84" y="494" type="curve" smooth="yes"/>
      <point x="84" y="535"/>
      <point x="106" y="564"/>
      <point x="145" y="564" type="curve" smooth="yes"/>
      <point x="201" y="564"/>
      <point x="230" y="515"/>
      <point x="237" y="440" type="curve"/>
      <point x="261" y="442" type="line"/>
      <point x="257" y="442" type="line" smooth="yes"/>
      <point x="121" y="442"/>
      <point x="40" y="363"/>
      <point x="40" y="224" type="curve" smooth="yes"/>
      <point x="40" y="84"/>
      <point x="100" y="-10"/>
      <point x="224" y="-10" type="curve" smooth="yes"/>
      <point x="342" y="-10"/>
      <point x="392" y="80"/>
      <point x="392" y="193" type="curve" smooth="yes"/>
      <point x="392" y="271"/>
      <point x="363" y="318"/>
      <point x="312" y="318" type="curve" smooth="yes"/>
      <point x="299" y="318"/>
      <point x="290" y="315"/>
      <point x="282" y="311" type="curve"/>
      <point x="293" y="307" type="line"/>
      <point x="313" y="480"/>
      <point x="368" y="563"/>
      <point x="449" y="563" type="curve" smooth="yes"/>
      <point x="548" y="563"/>
      <point x="587" y="445"/>
      <point x="587" y="285" type="curve" smooth="yes"/>
      <point x="587" y="81"/>
      <point x="532" y="19"/>
      <point x="438" y="19" type="curve" smooth="yes"/>
      <point x="421" y="19"/>
      <point x="397" y="22"/>
      <point x="376" y="28" type="curve"/>
      <point x="370" y="2" type="line"/>
      <point x="391" y="-3"/>
      <point x="419" y="-6"/>
    </contour>
  </outline>
</glyph>
<glyph name="llasinh" format="2">
  <advance width="558"/>
  <unicode hex="0DC5"/>
  <outline>
    <contour>
      <point x="292" y="-230" type="curve" smooth="yes"/>
      <point x="459" y="-230"/>
      <point x="543" y="-138"/>
      <point x="543" y="69" type="curve" smooth="yes"/>
      <point x="543" y="81"/>
      <point x="542" y="97"/>
      <point x="541" y="107" type="curve"/>
      <point x="515" y="105" type="line"/>
      <point x="516" y="96"/>
      <point x="517" y="77"/>
      <point x="517" y="71" type="curve" smooth="yes"/>
      <point x="517" y="-118"/>
      <point x="445" y="-203"/>
      <point x="292" y="-203" type="curve" smooth="yes"/>
      <point x="130" y="-203"/>
      <point x="57" y="-88"/>
      <point x="57" y="81" type="curve" smooth="yes"/>
      <point x="57" y="300"/>
      <point x="179" y="417"/>
      <point x="412" y="417" type="curve" smooth="yes"/>
      <point x="491" y="417" type="line"/>
      <point x="491" y="430" type="line" smooth="yes"/>
      <point x="491" y="525"/>
      <point x="458" y="589"/>
      <point x="396" y="589" type="curve" smooth="yes"/>
      <point x="349" y="589"/>
      <point x="320" y="549"/>
      <point x="310" y="485" type="curve"/>
      <point x="322" y="484" type="line"/>
      <point x="314" y="547"/>
      <point x="290" y="589"/>
      <point x="241" y="589" type="curve" smooth="yes"/>
      <point x="180" y="589"/>
      <point x="130" y="523"/>
      <point x="130" y="382" type="curve" smooth="yes"/>
      <point x="130" y="367"/>
      <point x="130" y="350"/>
      <point x="131" y="335" type="curve"/>
      <point x="138" y="222"/>
      <point x="190" y="119"/>
      <point x="315" y="119" type="curve" smooth="yes"/>
      <point x="426" y="119"/>
      <point x="477" y="181"/>
      <point x="493" y="304" type="curve"/>
      <point x="468" y="307" type="line"/>
      <point x="455" y="199"/>
      <point x="415" y="145"/>
      <point x="316" y="145" type="curve" smooth="yes"/>
      <point x="208" y="145"/>
      <point x="156" y="236"/>
      <point x="156" y="359" type="curve" smooth="yes"/>
      <point x="156" y="378" type="line" smooth="yes"/>
      <point x="156" y="515"/>
      <point x="196" y="564"/>
      <point x="240" y="564" type="curve" smooth="yes"/>
      <point x="278" y="564"/>
      <point x="298" y="533"/>
      <point x="303" y="460" type="curve"/>
      <point x="328" y="460" type="line"/>
      <point x="335" y="534"/>
      <point x="362" y="564"/>
      <point x="397" y="564" type="curve" smooth="yes"/>
      <point x="443" y="564"/>
      <point x="462" y="509"/>
      <point x="465" y="442" type="curve"/>
      <point x="421" y="442" type="line" smooth="yes"/>
      <point x="168" y="442"/>
      <point x="30" y="319"/>
      <point x="30" y="80" type="curve" smooth="yes"/>
      <point x="30" y="-94"/>
      <point x="105" y="-230"/>
    </contour>
  </outline>
</glyph>
<glyph name="fasinh" format="2">
  <advance width="582"/>
  <unicode hex="0DC6"/>
  <outline>
    <contour>
      <point x="370" y="-10" type="curve" smooth="yes"/>
      <point x="477" y="-10"/>
      <point x="540" y="96"/>
      <point x="540" y="288" type="curve" smooth="yes"/>
      <point x="540" y="450"/>
      <point x="494" y="589"/>
      <point x="401" y="589" type="curve" smooth="yes"/>
      <point x="345" y="589"/>
      <point x="305" y="543"/>
      <point x="291" y="452" type="curve"/>
      <point x="280" y="539"/>
      <point x="244" y="589"/>
      <point x="185" y="589" type="curve" smooth="yes"/>
      <point x="98" y="589"/>
      <point x="42" y="458"/>
      <point x="42" y="287" type="curve" smooth="yes"/>
      <point x="42" y="99"/>
      <point x="98" y="-10"/>
      <point x="208" y="-10" type="curve" smooth="yes"/>
      <point x="221" y="-10"/>
      <point x="231" y="-10"/>
      <point x="244" y="-5" type="curve"/>
      <point x="241" y="20" type="line"/>
      <point x="229" y="17"/>
      <point x="217" y="15"/>
      <point x="207" y="15" type="curve" smooth="yes"/>
      <point x="116" y="15"/>
      <point x="69" y="109"/>
      <point x="69" y="286" type="curve" smooth="yes"/>
      <point x="69" y="456"/>
      <point x="120" y="563"/>
      <point x="186" y="563" type="curve" smooth="yes"/>
      <point x="240" y="563"/>
      <point x="269" y="507"/>
      <point x="279" y="398" type="curve"/>
      <point x="303" y="398" type="line"/>
      <point x="316" y="508"/>
      <point x="346" y="563"/>
      <point x="400" y="563" type="curve" smooth="yes"/>
      <point x="476" y="563"/>
      <point x="513" y="436"/>
      <point x="513" y="286" type="curve" smooth="yes"/>
      <point x="513" y="113"/>
      <point x="463" y="15"/>
      <point x="370" y="15" type="curve" smooth="yes"/>
      <point x="360" y="15"/>
      <point x="347" y="16"/>
      <point x="336" y="20" type="curve"/>
      <point x="332" y="-5" type="line"/>
      <point x="342" y="-9"/>
      <point x="355" y="-10"/>
    </contour>
  </outline>
</glyph>
<glyph name="viramasinh" format="2">
  <unicode hex="0DCA"/>
  <outline>
    <contour>
      <point x="-185" y="963" type="curve" smooth="yes"/>
      <point x="-199" y="963"/>
      <point x="-215" y="960"/>
      <point x="-222" y="957" type="curve"/>
      <point x="-219" y="934" type="line"/>
      <point x="-210" y="937"/>
      <point x="-200" y="939"/>
      <point x="-188" y="939" type="curve" smooth="yes"/>
      <point x="-163" y="939"/>
      <point x="-143" y="925"/>
      <point x="-143" y="864" type="curve" smooth="yes"/>
      <point x="-143" y="525" type="line"/>
      <point x="-117" y="525" type="line"/>
      <point x="-117" y="738" type="line" smooth="yes"/>
      <point x="-117" y="768"/>
      <point x="-117" y="799"/>
      <point x="-120" y="829" type="curve"/>
      <point x="-117" y="836" type="line"/>
      <point x="-117" y="901" type="line"/>
      <point x="-126" y="902" type="line"/>
      <point x="-132" y="947"/>
      <point x="-154" y="963"/>
    </contour>
    <contour>
      <point x="-67" y="963" type="curve" smooth="yes"/>
      <point x="-100" y="963"/>
      <point x="-121" y="938"/>
      <point x="-134" y="900" type="curve"/>
      <point x="-119" y="878" type="line"/>
      <point x="-112" y="916"/>
      <point x="-95" y="940"/>
      <point x="-70" y="940" type="curve" smooth="yes"/>
      <point x="-40" y="940"/>
      <point x="-26" y="915"/>
      <point x="-26" y="875" type="curve" smooth="yes"/>
      <point x="-26" y="830"/>
      <point x="-42" y="812"/>
      <point x="-70" y="812" type="curve" smooth="yes"/>
      <point x="-95" y="812"/>
      <point x="-113" y="831"/>
      <point x="-120" y="861" type="curve"/>
      <point x="-128" y="836" type="line"/>
      <point x="-117" y="806"/>
      <point x="-95" y="789"/>
      <point x="-68" y="789" type="curve" smooth="yes"/>
      <point x="-27" y="789"/>
      <point x="0" y="817"/>
      <point x="0" y="875" type="curve" smooth="yes"/>
      <point x="0" y="926"/>
      <point x="-25" y="963"/>
    </contour>
  </outline>
</glyph>
<glyph name="aavowelsignsinh" format="2">
  <advance width="276"/>
  <unicode hex="0DCF"/>
  <outline>
    <contour>
      <point x="234" y="247" type="curve" smooth="yes"/>
      <point x="234" y="430"/>
      <point x="187" y="504"/>
      <point x="116" y="504" type="curve" smooth="yes"/>
      <point x="64" y="504"/>
      <point x="33" y="468"/>
      <point x="5" y="408" type="curve"/>
      <point x="29" y="398" type="line"/>
      <point x="53" y="451"/>
      <point x="77" y="479"/>
      <point x="115" y="479" type="curve" smooth="yes"/>
      <point x="171" y="479"/>
      <point x="207" y="414"/>
      <point x="207" y="247" type="curve" smooth="yes"/>
      <point x="207" y="64"/>
      <point x="171" y="15"/>
      <point x="117" y="15" type="curve" smooth="yes"/>
      <point x="79" y="15"/>
      <point x="52" y="42"/>
      <point x="28" y="99" type="curve"/>
      <point x="4" y="88" type="line"/>
      <point x="28" y="32"/>
      <point x="59" y="-10"/>
      <point x="117" y="-10" type="curve" smooth="yes"/>
      <point x="187" y="-10"/>
      <point x="234" y="39"/>
    </contour>
  </outline>
</glyph>
<glyph name="aevowelsignsinh" format="2">
  <advance width="214"/>
  <unicode hex="0DD0"/>
  <outline>
    <contour>
      <point x="16" y="391" type="line"/>
      <point x="16" y="365" type="line"/>
      <point x="101" y="365" type="line" smooth="yes"/>
      <point x="130" y="365"/>
      <point x="155" y="366"/>
      <point x="175" y="368" type="curve"/>
      <point x="167" y="369" type="line"/>
      <point x="57" y="222"/>
      <point x="23" y="108"/>
      <point x="23" y="7" type="curve" smooth="yes"/>
      <point x="23" y="-128"/>
      <point x="81" y="-168"/>
      <point x="155" y="-168" type="curve" smooth="yes"/>
      <point x="185" y="-168"/>
      <point x="215" y="-160"/>
      <point x="239" y="-146" type="curve"/>
      <point x="227" y="-123" type="line"/>
      <point x="204" y="-135"/>
      <point x="184" y="-142"/>
      <point x="155" y="-142" type="curve" smooth="yes"/>
      <point x="85" y="-142"/>
      <point x="50" y="-97"/>
      <point x="50" y="7" type="curve" smooth="yes"/>
      <point x="50" y="135"/>
      <point x="107" y="247"/>
      <point x="192" y="364" type="curve"/>
      <point x="178" y="391" type="line"/>
    </contour>
  </outline>
</glyph>
<glyph name="aaevowelsignsinh" format="2">
  <advance width="214"/>
  <unicode hex="0DD1"/>
  <outline>
    <contour>
      <point x="155" y="-168" type="curve" smooth="yes"/>
      <point x="185" y="-168"/>
      <point x="215" y="-160"/>
      <point x="239" y="-146" type="curve"/>
      <point x="227" y="-123" type="line"/>
      <point x="204" y="-135"/>
      <point x="184" y="-142"/>
      <point x="154" y="-142" type="curve" smooth="yes"/>
      <point x="85" y="-142"/>
      <point x="50" y="-99"/>
      <point x="50" y="-13" type="curve" smooth="yes"/>
      <point x="50" y="76"/>
      <point x="93" y="140"/>
      <point x="185" y="215" type="curve"/>
      <point x="173" y="242" type="line"/>
      <point x="136" y="242" type="line" smooth="yes"/>
      <point x="105" y="242"/>
      <point x="65" y="240"/>
      <point x="42" y="236" type="curve"/>
      <point x="49" y="229" type="line"/>
      <point x="94" y="271"/>
      <point x="154" y="328"/>
      <point x="187" y="362" type="curve"/>
      <point x="175" y="391" type="line"/>
      <point x="16" y="391" type="line"/>
      <point x="16" y="365" type="line"/>
      <point x="101" y="365" type="line" smooth="yes"/>
      <point x="130" y="365"/>
      <point x="154" y="366"/>
      <point x="173" y="368" type="curve"/>
      <point x="172" y="376" type="line"/>
      <point x="123" y="332"/>
      <point x="76" y="287"/>
      <point x="30" y="240" type="curve"/>
      <point x="41" y="218" type="line"/>
      <point x="71" y="218" type="line" smooth="yes"/>
      <point x="99" y="218"/>
      <point x="144" y="219"/>
      <point x="172" y="223" type="curve"/>
      <point x="162" y="225" type="line"/>
      <point x="86" y="165"/>
      <point x="23" y="92"/>
      <point x="23" y="-14" type="curve" smooth="yes"/>
      <point x="23" y="-130"/>
      <point x="81" y="-168"/>
    </contour>
  </outline>
</glyph>
<glyph name="ivowelsignsinh" format="2">
  <unicode hex="0DD2"/>
  <outline>
    <contour>
      <point x="-318" y="835" type="curve" smooth="yes"/>
      <point x="-460" y="835"/>
      <point x="-516" y="761"/>
      <point x="-516" y="693" type="curve" smooth="yes"/>
      <point x="-516" y="637"/>
      <point x="-486" y="599"/>
      <point x="-455" y="569" type="curve"/>
      <point x="-436" y="584" type="line"/>
      <point x="-467" y="616"/>
      <point x="-489" y="645"/>
      <point x="-489" y="691" type="curve" smooth="yes"/>
      <point x="-489" y="755"/>
      <point x="-437" y="809"/>
      <point x="-318" y="809" type="curve" smooth="yes"/>
      <point x="-181" y="809"/>
      <point x="-127" y="759"/>
      <point x="-127" y="683" type="curve" smooth="yes"/>
      <point x="-127" y="638"/>
      <point x="-144" y="608"/>
      <point x="-172" y="582" type="curve"/>
      <point x="-155" y="567" type="line"/>
      <point x="-119" y="596"/>
      <point x="-100" y="635"/>
      <point x="-100" y="684" type="curve" smooth="yes"/>
      <point x="-100" y="756"/>
      <point x="-149" y="835"/>
    </contour>
  </outline>
</glyph>
<glyph name="iivowelsignsinh" format="2">
  <unicode hex="0DD3"/>
  <outline>
    <contour>
      <point x="-318" y="835" type="curve" smooth="yes"/>
      <point x="-460" y="835"/>
      <point x="-516" y="761"/>
      <point x="-516" y="693" type="curve" smooth="yes"/>
      <point x="-516" y="637"/>
      <point x="-486" y="599"/>
      <point x="-455" y="569" type="curve"/>
      <point x="-436" y="584" type="line"/>
      <point x="-467" y="616"/>
      <point x="-489" y="645"/>
      <point x="-489" y="691" type="curve" smooth="yes"/>
      <point x="-489" y="755"/>
      <point x="-437" y="809"/>
      <point x="-318" y="809" type="curve" smooth="yes"/>
      <point x="-232" y="809"/>
      <point x="-172" y="795"/>
      <point x="-127" y="739" type="curve"/>
      <point x="-117" y="738" type="line"/>
      <point x="-129" y="752"/>
      <point x="-152" y="765"/>
      <point x="-173" y="765" type="curve" smooth="yes"/>
      <point x="-219" y="765"/>
      <point x="-252" y="731"/>
      <point x="-252" y="667" type="curve" smooth="yes"/>
      <point x="-252" y="600"/>
      <point x="-215" y="567"/>
      <point x="-170" y="567" type="curve" smooth="yes"/>
      <point x="-126" y="567"/>
      <point x="-89" y="592"/>
      <point x="-89" y="671" type="curve" smooth="yes"/>
      <point x="-89" y="740"/>
      <point x="-135" y="835"/>
    </contour>
    <contour>
      <point x="-115" y="671" type="curve" smooth="yes"/>
      <point x="-115" y="615"/>
      <point x="-134" y="592"/>
      <point x="-171" y="592" type="curve" smooth="yes"/>
      <point x="-205" y="592"/>
      <point x="-226" y="617"/>
      <point x="-226" y="667" type="curve" smooth="yes"/>
      <point x="-226" y="716"/>
      <point x="-206" y="744"/>
      <point x="-170" y="744" type="curve" smooth="yes"/>
      <point x="-133" y="744"/>
      <point x="-115" y="714"/>
    </contour>
  </outline>
</glyph>
<glyph name="uvowelsignsinh" format="2">
  <unicode hex="0DD4"/>
  <outline>
    <contour>
      <point x="-554" y="-162" type="curve" smooth="yes"/>
      <point x="-554" y="-232"/>
      <point x="-510" y="-284"/>
      <point x="-388" y="-284" type="curve" smooth="yes"/>
      <point x="-77" y="-284" type="line"/>
      <point x="-77" y="64" type="line"/>
      <point x="-103" y="64" type="line"/>
      <point x="-103" y="-259" type="line"/>
      <point x="-385" y="-259" type="line" smooth="yes"/>
      <point x="-479" y="-259"/>
      <point x="-527" y="-227"/>
      <point x="-527" y="-162" type="curve" smooth="yes"/>
      <point x="-527" y="-104"/>
      <point x="-490" y="-80"/>
      <point x="-452" y="-80" type="curve" smooth="yes"/>
      <point x="-424" y="-80"/>
      <point x="-401" y="-89"/>
      <point x="-382" y="-100" type="curve"/>
      <point x="-372" y="-77" type="line"/>
      <point x="-396" y="-65"/>
      <point x="-417" y="-55"/>
      <point x="-451" y="-55" type="curve" smooth="yes"/>
      <point x="-516" y="-55"/>
      <point x="-554" y="-103"/>
    </contour>
  </outline>
</glyph>
<glyph name="uuvowelsignsinh" format="2">
  <unicode hex="0DD6"/>
  <outline>
    <contour>
      <point x="-554" y="-171" type="curve" smooth="yes"/>
      <point x="-554" y="-249"/>
      <point x="-517" y="-289"/>
      <point x="-451" y="-289" type="curve" smooth="yes"/>
      <point x="-410" y="-289"/>
      <point x="-380" y="-276"/>
      <point x="-317" y="-227" type="curve" smooth="yes"/>
      <point x="-259" y="-182"/>
      <point x="-240" y="-176"/>
      <point x="-213" y="-176" type="curve" smooth="yes"/>
      <point x="-171" y="-176"/>
      <point x="-142" y="-206"/>
      <point x="-98" y="-284" type="curve"/>
      <point x="-77" y="-284" type="line"/>
      <point x="-77" y="64" type="line"/>
      <point x="-103" y="64" type="line"/>
      <point x="-103" y="-164" type="line" smooth="yes"/>
      <point x="-103" y="-182"/>
      <point x="-103" y="-219"/>
      <point x="-101" y="-257" type="curve"/>
      <point x="-94" y="-250" type="line"/>
      <point x="-135" y="-177"/>
      <point x="-169" y="-151"/>
      <point x="-214" y="-151" type="curve" smooth="yes"/>
      <point x="-253" y="-151"/>
      <point x="-276" y="-163"/>
      <point x="-333" y="-207" type="curve" smooth="yes"/>
      <point x="-385" y="-247"/>
      <point x="-416" y="-264"/>
      <point x="-453" y="-264" type="curve" smooth="yes"/>
      <point x="-495" y="-264"/>
      <point x="-527" y="-239"/>
      <point x="-527" y="-171" type="curve" smooth="yes"/>
      <point x="-527" y="-104"/>
      <point x="-490" y="-80"/>
      <point x="-452" y="-80" type="curve" smooth="yes"/>
      <point x="-424" y="-80"/>
      <point x="-401" y="-89"/>
      <point x="-382" y="-100" type="curve"/>
      <point x="-372" y="-77" type="line"/>
      <point x="-396" y="-65"/>
      <point x="-417" y="-55"/>
      <point x="-451" y="-55" type="curve" smooth="yes"/>
      <point x="-516" y="-55"/>
      <point x="-554" y="-103"/>
    </contour>
  </outline>
</glyph>
<glyph name="rvocalicvowelsignsinh" format="2">
  <advance width="292"/>
  <unicode hex="0DD8"/>
  <outline>
    <contour>
      <point x="107" y="-4" type="curve" smooth="yes"/>
      <point x="136" y="-4"/>
      <point x="157" y="4"/>
      <point x="178" y="22" type="curve"/>
      <point x="217" y="0" type="line"/>
      <point x="234" y="21" type="line"/>
      <point x="176" y="54" type="line"/>
      <point x="159" y="34"/>
      <point x="140" y="21"/>
      <point x="107" y="21" type="curve" smooth="yes"/>
      <point x="59" y="21"/>
      <point x="38" y="63"/>
      <point x="38" y="118" type="curve" smooth="yes"/>
      <point x="38" y="209"/>
      <point x="91" y="246"/>
      <point x="191" y="246" type="curve" smooth="yes"/>
      <point x="226" y="246" type="line"/>
      <point x="229" y="271" type="line"/>
      <point x="191" y="271" type="line" smooth="yes"/>
      <point x="88" y="271"/>
      <point x="11" y="230"/>
      <point x="11" y="119" type="curve" smooth="yes"/>
      <point x="11" y="48"/>
      <point x="44" y="-4"/>
    </contour>
    <contour>
      <point x="130" y="504" type="curve" smooth="yes"/>
      <point x="74" y="504"/>
      <point x="43" y="468"/>
      <point x="15" y="408" type="curve"/>
      <point x="39" y="398" type="line"/>
      <point x="63" y="451"/>
      <point x="87" y="479"/>
      <point x="128" y="479" type="curve" smooth="yes"/>
      <point x="187" y="479"/>
      <point x="215" y="413"/>
      <point x="215" y="294" type="curve" smooth="yes"/>
      <point x="215" y="16" type="line"/>
      <point x="219" y="13" type="line"/>
      <point x="217" y="0" type="line"/>
      <point x="241" y="0" type="line"/>
      <point x="241" y="292" type="line" smooth="yes"/>
      <point x="241" y="361"/>
      <point x="235" y="430"/>
      <point x="199" y="472" type="curve" smooth="yes"/>
      <point x="182" y="492"/>
      <point x="158" y="504"/>
    </contour>
  </outline>
</glyph>
<glyph name="evowelsignsinh" format="2">
  <advance width="459"/>
  <unicode hex="0DD9"/>
  <outline>
    <contour>
      <point x="41" y="254" type="curve" smooth="yes"/>
      <point x="41" y="107"/>
      <point x="105" y="-10"/>
      <point x="247" y="-10" type="curve" smooth="yes"/>
      <point x="366" y="-10"/>
      <point x="425" y="70"/>
      <point x="425" y="191" type="curve" smooth="yes"/>
      <point x="425" y="311"/>
      <point x="366" y="379"/>
      <point x="273" y="379" type="curve" smooth="yes"/>
      <point x="198" y="379"/>
      <point x="164" y="336"/>
      <point x="164" y="270" type="curve" smooth="yes"/>
      <point x="164" y="202"/>
      <point x="197" y="173"/>
      <point x="244" y="173" type="curve" smooth="yes"/>
      <point x="297" y="173"/>
      <point x="323" y="211"/>
      <point x="323" y="271" type="curve" smooth="yes"/>
      <point x="323" y="320"/>
      <point x="305" y="347"/>
      <point x="276" y="359" type="curve"/>
      <point x="273" y="357" type="line"/>
      <point x="355" y="354"/>
      <point x="398" y="292"/>
      <point x="398" y="190" type="curve" smooth="yes"/>
      <point x="398" y="94"/>
      <point x="356" y="17"/>
      <point x="245" y="17" type="curve" smooth="yes"/>
      <point x="125" y="17"/>
      <point x="68" y="120"/>
      <point x="68" y="253" type="curve" smooth="yes"/>
      <point x="68" y="417"/>
      <point x="154" y="509"/>
      <point x="283" y="509" type="curve" smooth="yes"/>
      <point x="335" y="509"/>
      <point x="378" y="496"/>
      <point x="422" y="472" type="curve"/>
      <point x="433" y="496" type="line"/>
      <point x="384" y="519"/>
      <point x="346" y="534"/>
      <point x="283" y="534" type="curve" smooth="yes"/>
      <point x="136" y="534"/>
      <point x="41" y="427"/>
    </contour>
    <contour>
      <point x="297" y="273" type="curve" smooth="yes"/>
      <point x="297" y="226"/>
      <point x="280" y="198"/>
      <point x="244" y="198" type="curve" smooth="yes"/>
      <point x="208" y="198"/>
      <point x="190" y="224"/>
      <point x="190" y="270" type="curve" smooth="yes"/>
      <point x="190" y="317"/>
      <point x="209" y="348"/>
      <point x="245" y="348" type="curve" smooth="yes"/>
      <point x="276" y="348"/>
      <point x="297" y="325"/>
    </contour>
  </outline>
</glyph>
<glyph name="uni0DDD" format="2">
  <advance width="846"/>
  <unicode hex="0DDD"/>
  <outline>
    <contour>
      <point x="661" y="963" type="curve" smooth="yes"/>
      <point x="647" y="963"/>
      <point x="631" y="960"/>
      <point x="624" y="957" type="curve"/>
      <point x="627" y="934" type="line"/>
      <point x="636" y="937"/>
      <point x="646" y="939"/>
      <point x="658" y="939" type="curve" smooth="yes"/>
      <point x="683" y="939"/>
      <point x="703" y="925"/>
      <point x="703" y="864" type="curve" smooth="yes"/>
      <point x="703" y="487" type="line"/>
      <point x="729" y="487" type="line"/>
      <point x="729" y="738" type="line" smooth="yes"/>
      <point x="729" y="768"/>
      <point x="729" y="799"/>
      <point x="726" y="829" type="curve"/>
      <point x="729" y="836" type="line"/>
      <point x="729" y="901" type="line"/>
      <point x="720" y="902" type="line"/>
      <point x="714" y="947"/>
      <point x="692" y="963"/>
    </contour>
    <contour>
      <point x="779" y="963" type="curve" smooth="yes"/>
      <point x="746" y="963"/>
      <point x="725" y="938"/>
      <point x="712" y="900" type="curve"/>
      <point x="727" y="878" type="line"/>
      <point x="734" y="916"/>
      <point x="751" y="940"/>
      <point x="776" y="940" type="curve" smooth="yes"/>
      <point x="806" y="940"/>
      <point x="820" y="915"/>
      <point x="820" y="875" type="curve" smooth="yes"/>
      <point x="820" y="830"/>
      <point x="804" y="812"/>
      <point x="776" y="812" type="curve" smooth="yes"/>
      <point x="751" y="812"/>
      <point x="733" y="831"/>
      <point x="726" y="861" type="curve"/>
      <point x="718" y="836" type="line"/>
      <point x="729" y="806"/>
      <point x="751" y="789"/>
      <point x="778" y="789" type="curve" smooth="yes"/>
      <point x="819" y="789"/>
      <point x="846" y="817"/>
      <point x="846" y="875" type="curve" smooth="yes"/>
      <point x="846" y="926"/>
      <point x="821" y="963"/>
    </contour>
    <component base="evowelsignsinh"/>
    <component base="period.sinh" xOffset="431" yOffset="215"/>
    <component base="aavowelsignsinh" xOffset="570"/>
  </outline>
</glyph>
<glyph name="uni0DE6" format="2">
  <advance width="317"/>
  <unicode hex="0DE6"/>
  <outline>
    <contour>
      <point x="71" y="706" type="curve" smooth="yes"/>
      <point x="54" y="706"/>
      <point x="29" y="700"/>
      <point x="16" y="694" type="curve"/>
      <point x="20" y="671" type="line"/>
      <point x="34" y="676"/>
      <point x="51" y="680"/>
      <point x="69" y="680" type="curve" smooth="yes"/>
      <point x="96" y="680"/>
      <point x="119" y="670"/>
      <point x="119" y="596" type="curve" smooth="yes"/>
      <point x="119" y="0" type="line"/>
      <point x="145" y="0" type="line"/>
      <point x="145" y="439" type="line" smooth="yes"/>
      <point x="145" y="463"/>
      <point x="145" y="517"/>
      <point x="143" y="543" type="curve"/>
      <point x="146" y="548" type="line"/>
      <point x="146" y="639" type="line"/>
      <point x="137" y="630" type="line"/>
      <point x="135" y="687"/>
      <point x="106" y="706"/>
    </contour>
    <contour>
      <point x="212" y="706" type="curve" smooth="yes"/>
      <point x="172" y="706"/>
      <point x="140" y="675"/>
      <point x="125" y="620" type="curve"/>
      <point x="139" y="602" type="line"/>
      <point x="151" y="651"/>
      <point x="177" y="681"/>
      <point x="210" y="681" type="curve" smooth="yes"/>
      <point x="245" y="681"/>
      <point x="262" y="650"/>
      <point x="262" y="596" type="curve" smooth="yes"/>
      <point x="262" y="541"/>
      <point x="245" y="515"/>
      <point x="210" y="515" type="curve" smooth="yes"/>
      <point x="173" y="515"/>
      <point x="152" y="543"/>
      <point x="140" y="580" type="curve"/>
      <point x="128" y="556" type="line"/>
      <point x="145" y="514"/>
      <point x="171" y="490"/>
      <point x="211" y="490" type="curve" smooth="yes"/>
      <point x="261" y="490"/>
      <point x="289" y="523"/>
      <point x="289" y="596" type="curve" smooth="yes"/>
      <point x="289" y="663"/>
      <point x="261" y="706"/>
    </contour>
  </outline>
</glyph>
